<mxfile host="app.diagrams.net" modified="2023-04-11T03:47:35.466Z" agent="Mozilla/5.0 (Macintosh; Intel Mac OS X 10_15_7) AppleWebKit/537.36 (KHTML, like Gecko) Chrome/111.0.0.0 Safari/537.36" etag="zbA4TvQWTwVpWeJyTMRT" version="21.1.5" type="github">
  <diagram name="第 1 页" id="Rp7Ow2bVTWImLBGLOw4L">
    <mxGraphModel dx="2288" dy="1368" grid="1" gridSize="10" guides="1" tooltips="1" connect="1" arrows="1" fold="1" page="1" pageScale="1" pageWidth="827" pageHeight="1169" math="0" shadow="0">
      <root>
        <mxCell id="0" />
        <mxCell id="1" parent="0" />
        <mxCell id="gFBRsMoK_zdnoC3hOrfU-45" value="" style="rounded=1;whiteSpace=wrap;html=1;glass=0;shadow=0;sketch=1;curveFitting=1;jiggle=2;" vertex="1" parent="1">
          <mxGeometry x="504" y="127" width="320" height="513" as="geometry" />
        </mxCell>
        <mxCell id="gFBRsMoK_zdnoC3hOrfU-2" value="Web Browser" style="text;html=1;align=center;verticalAlign=middle;resizable=0;points=[];autosize=1;strokeColor=none;fillColor=none;labelBackgroundColor=none;rounded=1;fontColor=#1A1A1A;" vertex="1" parent="1">
          <mxGeometry x="7.5" y="360" width="100" height="30" as="geometry" />
        </mxCell>
        <mxCell id="gFBRsMoK_zdnoC3hOrfU-57" style="edgeStyle=orthogonalEdgeStyle;rounded=1;orthogonalLoop=1;jettySize=auto;html=1;strokeColor=#736CA8;fontColor=#1A1A1A;sketch=1;curveFitting=1;jiggle=2;" edge="1" parent="1" source="gFBRsMoK_zdnoC3hOrfU-3" target="gFBRsMoK_zdnoC3hOrfU-12">
          <mxGeometry relative="1" as="geometry" />
        </mxCell>
        <mxCell id="gFBRsMoK_zdnoC3hOrfU-3" value="" style="shape=image;verticalLabelPosition=bottom;labelBackgroundColor=none;verticalAlign=top;aspect=fixed;imageAspect=0;image=data:image/png,iVBORw0KGgoAAAANSUhEUgAAAgAAAAIACAYAAAD0eNT6AAAABHNCSVQICAgIfAhkiAAAAAlwSFlzAAAN1wAADdcBQiibeAAAABl0RVh0U29mdHdhcmUAd3d3Lmlua3NjYXBlLm9yZ5vuPBoAADG/SURBVHja7d15vE1l3/jxyxmcY8g8ZJ4ic6ZkLBnKkCKaSIZKIlQqInMoJUPmDBHJEA2IyJx5HjNzEClJ0nA3fJ917X3c93l0cJy11t5r+Hi93n/8nl83Z++99vX9nL3XupYSEQUAAPyFJwEAAAIAAAAQAAAAgAAAAAAEAAAAIAAAAAABAAAACAAAAEAAAAAAAgAAABAAAACAAAAAAAQAAAAgAAAAAAEAAAAIAAAAQAAAAAACAAAAAgAAABAAAACAAAAAAAQAAAAgAAAAAAEAAAAIAAAAQAAAAAACAAAAEAAAAIAAAAAABAAAACAAAAAAAQAAAAgAAABAAAAAAAIAAAACAAAAEAAAAIAAAAAABAAAACAAAAAAAQAAAPwcAMafLIbbDHcZagBAElQ05DFEs0gDDg8A40+k4U7D24bVhiOG3w0CAMn0j+F7w07DYsP7hkGGtoa8LOBAmALA+JPC0Mgw1fADixWAENtu6B//iUEKFnQgBAFg/Kll2MoCBMAhThveM9xvSMXiDlgcAMafkoaFLDYAHOw7Q0dDShZ5wIIAMP68aPiLxQWAS+hzkZobIljsgWQEgPEnxjCZxQSAS+0w1GfBB24gAIw/2Q1rWUAAeMBKfcIgCz9wnQAw/mQ2HGTRAOAhfxqeZfEHrhIAegMOw3IWCwAeNdoQxRAAAfDvABjHAgHA45bpTzoZBCAA/jf8O7IwAPCJw4biDAP4PgCMP7kNv7IoAPCRnw33MRDg9wCYxGIAwIf+NrRhKMCXARC/y9/fLAQAfHzzISIAvgyABSwAAIgAIgA+CgDjT1Hb3lCZsosqfgcQVKScqCw5RUVGhW+Rj4gUVbiCc9xcUFRM6vAOvuwFnPN85CshKl0WUSlSEAFACAKgm2VvHv2mbfi0qIHzRM09IWq1AP+28m9Rn54RNXl78Fi5v62ozDlCt8g3eFbUrJ+cZcpJUcO3iOqzQNRjvYLDMFRDUEfImL3Oej5m/CBq7D5Rg5aL6jheVJUHRaVORwQAFgfAOkveNDmM3yLeXcFwQ/Ks+kfU+A2iWnQXlauQPyPgSuP3i3pmuKiydeyPASdGwL+i4HtRrxnBeO/TwU8JiAAg+QFg/MkRf6Cbe7NUbiDqy4sMMVhjxZ+iXh4X/LrA1gho7/wIuGzwalFlahMBl009JeqhbqJi0xABQDIDoK3pN0nGbKLmf8/QgvWW/mr8BjxIVNoMRMBlvecHvx4gAoImHBJVr52oqJREAHCDATDc9BtkwFwGFey14JyoSvWIgITaDrNv6LktAjR9/kSeokQAcAMBMMvUG6Pc3QwnhO7EwcdeIgIS6rdIVPqsREDCEykr1CMCgCQGwGpTb4qWrzGYEFo9poiKjrFnkb+vg/siYPRuUflLEQGXzTwvqnEXIgBIQgAcNvWGGPQJAwmhN3adqJsyEgGXfXBaVPm6REBCnd6za78JIgCeCQBzN/+Ze5JhhPCYuIUISOjDs/Z9/O3WCHhxChEAXCMAzL0RvvqNQQQigAggAgACAPBQBDR8jgggAogAEAAEAIgAIoAIIAJAABAAIAKIACKACAABABABRAARwGABAQB4MgI6EgFEABEAAoAAABFABBABRAAIAIAIIAKIACIABABABBABRACDBgQA4MUIuL8TEUAEEAEgAAAigAggAogAEAAAEUAEEAFEAAgAgAggAogABg8IAMCLEfBAZyKACCACQAAARAARQAQQASAAACKACCACiAAQAAARQAQQAQwiEACAJyPgeSKACCACQAAARAARQAQQASAAACKACCACiAAQAAARQAQQAQwmEACAFyOg+iOipp0hAogAIgAEAOC7CChwm6jRu4kAIoAIAAEA+C4C0mQQ9cQAUdO/IwKIACIABADgqwjQsuYR9ewoUVNOEgFEABEAAgDwVQRoUSlF3VZTVJvBovovFjVyh6jpZ4gAIoAIAAEAeD4CEpMqrajU6ZwnNo19jzmUETDzR1EvTBbVoL2oYlWM1zhz8p+TiEi7nhMdAT/BU84adhi+MEw09Dc8a3jAkI8AAIgA/wpFBIzYKurWO3iu4UTbDX0MZQkAgAjwnxy3iJp6yp7h/+psUTGpeI7hBscNIwyVCQCACPCPOq2tH/4Tj4hKn43nFm4031CSAACIAH/o8bG1AVC1Cc8p3Oxvw2RDHgIAIAK8rXxda3/75zmFN/xmGGxIRwAA4fD+DlHZ87IY2SnjzdYFQI+5PJ/wmn2GWwgAIBw++05UqaosRHYa9401AfBYL55LeNE5Q00CAAiHZX+IatCGhcguMw6cM57ns6Y173aJ5xMe9afeS4AAAMKl41A7N4TxJ32ehVWvz6BPeD7hdSMNUQQAEA5Dl4jKXZiFyCoValv32sw9yfMJPxhDAADhsuJPUS+NFZU5B4uRWd0nW/valLmL5xR+8BwBAITTkkui2g4UlSY9C1JyVKpn/Wsy87C99zIAnHNOQG0CAAi3BedEtejOVwM3dPlftuBH9na8Hq+MF5UiBc8xvO5HQxECAHCKD/eLem6IqLI17LqFrPvd1UTU52ftfR2GLWUPB/jBfkMGAgBwmi/Oi+rzkahWvUQ1fFpU5QaiipQTlelmURER/lmk9JUTBUqIqvuEqAFzQ/f8L7og6sm+wa8aMnJ/AHjWCAIAcJOVfwV/C/70tPfpcyWc8JzP/8EfzzfC6+M4UePWi3r9Y1Gdh4uq9Yjd5wn9x1CQAAAAwGmW/0fU8K9E1Wlm1/kpMwgAAACcbMJmUeXutjoA/jGUJwAAAHC6rhNERae0MgKWEgAAALjByFWi0mexMgJqEgAAALjBR4esvEplIgEAAIBbjF5j1dcBZw0RBAAAAG6h74thzacA1QgAAADc5I66VgTAWwQAAABuMmWnFbuEHiQAAABwmwZtrPgUoDgBAACAm+hthM0HQAsCAAAAN1n1j6hM2c0GQFcCAAAA/30NMJwAAADAf5cEziEAAABwm6FLzAbAWgIAAAC3mbbXbAAcIwAAOEbsGpFsa0UKrBcptAFuVNB47W5eJ5L6a+ceZ6mM4yz7uuDPavbx6mNVH7P62A3p41j0k9kA+IMAABBWOY2F+J6tIh13i/TcBy95YY9Ig23BIRnu4yyf8TPUN36W5/fY93j1MayPZX1M2/6Y9Ow1fykgAQAg9KKN35jqbWNI+kWT7eH5VED/Zv7A9tA/3rpbg8c4AQAACeQ1fht7jt/4fedF47fvohtCd5zpj+jt/I3/ejoYx3ju9QQAAATcuYVB6HcNt9l/nOmP4p3wWF8zVN1MAADwOX3SFQMQWrlN9h1nxTc67/HmW08AAPCpmDUinfcw+BDUda9IehvOCUhj/J1dHHic6RMEU64hAAD40P2c8IcrtNhp/XH28A7nPt762wgAAD5TgI/+cRVlLfwqoNhG5z/evOsJAAA+Eo7LsOAOLS38FOCRHc5/vA22EQAAfCLC8PJeBh2ufpa8FfsD6GvuX3XBcaYvhUxBAADwg0xrGXK4toIWfCyud99zy+O15ORHAgCAGzb9YcjhWkpvNH+c6Q2G3PJ4LdkciAAA4HRuWpgRHndYsFFO+U3ueby3biAAAPhAPj4BwHXcZsGVAMU3uufx5uUTAAB+kIVzAHAdhSz4jTi3i0Iz41oCAIAPRK4R6cZVALiGdBacFKfv+tfDBY9VXxETwVUAAPyiKfsA4Cqe2mXdcfb4Tuc/3kbb2QcAgI8U28igQ+IqW3invLIuOBGw8AYCAIDPPLaDYYf/7+ldFn0cHk9vsNPKwZ8CPLSDewEA8KG0X7MjIP6nuyH7OuuPM32CnRPPOdF3KEz9NQEAwKdK8lUA4lXbYt9xVsGBXwUU3WDx4yQAALhNQ24L7Hv6ZL0UNh9nDznoKydLbwNMAABws1Ib+TrAj/TNevSufylCdJzp3QG7hvE4e8n4t0tstOnxEQAA3HxOwKOcGOgbrXeJZF4b+uMsw9rgLYdD/Xj1rYnTfm3jYyMAAHjhEsGHd7BZkBfpjXma7wxenpcizMfZbcZx1mxH8ORDux6vPob1sVxsYwgeEwEAwCui1gTPCtfbwuq7w+n94eE++rW7xXgNbzZey5g1zjvOUq4J/my3WHSc6a+z9DGrj92oUD5eAgAAAB8iAAAAIAAIAAAACAACAAAAAoAAAACAACAAAAAgAAgAAAAIAAIAAAACgAAAAIAAIAAAACAAeCEAACAAAAAAAQAAAAgAAABAAAAAAAIAAAAQAAAAgAAAAAAEAAAABAABAAAAAUAAAABAABAAAAAQAAQAAAAEAAEAAAABQAAAAEAAEAAAABAABAAAAAQAAQAAAAEAAAAIAAAAQAAAAAACAAAAEAAAAIAAAAAABAAAACAAAAAgAAgAAAAIAAIAAAACgAAAAIAAIAAAACAACAAAAAgAAgAAAAKAAADcshh8ekbUjAOi3tskavhXogbPFzV6jahp+0R9flbUyr94ngACgAAAXOPLi6LGrBX18jhRD3YQVa6mqMJlROUsKCp9ZlFR0Ul7r6ZIISptBlG5CokqVlFU5fqi7m0h6uHnRT3VX1SX0aKGLQ3+ezzvAAFAAAAhsvLv4G/wr88R1aqXqOqNgkNeD27zb/Ski4gUdcttoho9K+q1qaI+OsRrAxAABABgqUUXRPWdKeqe5qLSZQrtoL8RGbOJqvaAqGffFDVylailv/LaAQQAAQDckFlHRHUeLqpC7aR/fO80+ucudruoNn1EzT7GawoQAAASNW69qBaviipY0p0D/5pfGUSIur2OqD4zRC37ndcaIAAAn9Mfk3edIKpQae8N/avRX2M06Shq0jZef4AAAHzm4zhRj3cLnqHvl8GfmCLlRL04StQX5zkmAAIA8LBRq0Xd/ZCoyCh/D/4rpYwVVaeZqJErOUYAAgDwyqV7f4nqMUVU4bIM+qSocl9wYyKOHYAAAFxrxHJ/fb9vFf0JiT5PYP4PHEMAAQC4iL7srUZTBrlZelfCju+IWv4fjimAAAAcbMklUa16Br/TZoBbJ/ctogbO4/gCCADAgXpNF5U1N8PaTmVriJq0lWMNIAAAB5iyS1TJKgznUG4qVL+1qM++49gDCAAgTPTd9/i4Pzyy5Azec4DjECAAgJDRN+ip9YjrhmZsbCrJlv1mKVykqJSvcIdUq363lCpdVnLlziOpUqV259UC7QdzPAIEABACEzaLylXIkQNRD/J76t4nL7zUQ96b/JHMX7RaVq3bJdv3npCjJ3+Wk2d/v6ZDcedl47ZDsuir9fLh7AUycuwU6T/wncDf1+ShZpI3b35nhoC+CyG7CQIEAGAbfYe+6JSOGHr6t/imDzeX3v0Gy6y5i2X3/m+vO+CtsHnHERk1bqq0bP2MFC1WUlKkSOGMCMhZUNTELRyjAAEAWGjhj8HfMsM44PSgLVe+ovToPVDWbNgTkmGfFHsOnJb3p82V9s91Cfx8UdFhvH1xdEzwvAyOWYAAAEybvF1U9rxhGWhRUVGB7+kHvDlctuw86pihfy37Dp8N/Ly3Fi0RvhC4t0VwTwaOXxAABACQLGPXBXejC/EAK3JrcXnrnTEh+1jfLh9/9pU0evARiU4Zhq9NCpTgngIgAAgAIBmGLRUVmyakQ6tSleoyZfo8OfHdb64e/FfSJyF269FPcucO8ScpqW8SNWYtxzIIAAIASKJBnwa/Tw7BkIqIiJAGDR8MnLHvpaGfmLgzvwbOF6hZu27gcYckAtKkEzV+I8c0CAACAEjClr76+nKbB1NMTKw80aqtfL1xr+cHf2KWrtwsd1SqGpoIuCmjqEnbOLZBABAAwFW8NDa41azNA+muGrV9O/ivNHzUJMmaLbv9EZA+S3DbZo5zEAAEAPD/6B3lbB5CetDpzXUY/P++cuDJts9JZGSkva9BJiM0pn/DsQ4CgAAALg//t2z/nl9/3L/v0HcM/GtYsmKTVLzD5hsr6XsIfHSIYx4EAAEATvj7xNaP/YuXKC2f++AEPysNGzlRsmbNZl8E6H0dZh/j2AcBQADA15v82HSpn965r8srPeX46UsM9eR8LXDoO3nokcfti4AcBUTNPcF7AAQAAQDf+fS0qGx5bBkuN92ULnC5G4PcvF5937TvksHchYPHAe8HEAAEAHz0xihW0ZahUuiWIrJy7U6Gt4WmfvhJIKpsiYBSVUWt/Iv3BAgAAgC+UOsRW4ZJ7XvqB85oZ2hbb9nqbZIvf0F7IqBVT94TIAAIAHhe6962fN/f+cVXPbeFr9Ps2v+tVK56p/UBoL9ieHcF7w0QAAQAPGXVP6K+vCjqk29FvTrJ8uGRMmWMjJ80w1WD9Nipi4FhunnHETlw7JzrfvbHWz5lfQRkzSVq/g+8X0AAEABwBb1gj/laVLeJopq9IqraA6KKlBOVp4iozDlEpUoryvjt3K4zyfVd7vTNe5w0IPWnEGs3fyPTPvpM+r7+dmD/garVa0j+AoUkc+YsgS2IE4uYm3PklGLFS0mVancF7k3QouXT0m/AEFmweE1g6DotBPoPGmr9xkH6+OF9BQKAAIADD2Z9h74W3UWVriYqfebw3W/eEBUVJRPen+mIYbhp+2F5Z8R70qjJo7ZcP6+j4faKlaVd+xfkvckfydZdxxzxuMdOmG79FQIvjOS9BgKAAEBY6TOz9a1cn35dVLm7Q3Z3vqTQv3mOeW9aWIff6vW7pdML3QJXHYTjOdAbHOlPCPRXCeF8Hvr0t3gXx5Sxot7fwfsPBAABgJDTd217+IXgvu0OGfhXbus7YvTksO2Z/9Y7YwK/jTvl+dBfg9S/r3HgUr1wbXrU9tnO1j6u/MVFLbnEexEEAAEA2807FbwZT8GSjhz6Cc/2HzJ8fFi+19e/6aZKldrRz0/2m3NIh04vy7Y9cSF/fho+0NTax9Pwad6XIAAIANhm7DpRVRuG5Ba8Vhg4eETIh78+U7/6nTVd8fxcliZNWnm5W285ePzHkD1PR05ekDsqV7P2sfSfzXsUBAABAEuNWC6qfC1XDbVmLdqE/pK3b3+REiVvc9XzlJC+smDouxMk7syvIXm+9h48I0VuLWbtnQOX/sr7FQQAAQDT3v4iuPWqywaZHsKHT/wU8gDo3vN11w7/K5+/mR8vCslztmHrwcBXEZb9/PpW0bx3QQAQAEgmfVa1Cwf/5Rv7rNmwJ+TDX3+PHhubyhMBcJm+THH/0R9sf+6+XL7RunsH6MtNF//MexgEAAGAG6IXTn1Gf2SUa4dWuHb5mzR1jqeG/2W3FL5Vlq3eavvzN3yUhbs+tunDexkEAAGAJOs7M/gdqouH1ZNtnwvb9e0vde3lyQDQ9NUMekDb/RzeVaO2NT9zmnRsEwwCgADAdc09IariPa4fUmXL3R7WLXAfbPqYZwMg4YmVdp5bsW7LfkmdOo01P+9jL/PeBgFAAOCqBs8P+xa9VtB75uuTycK5w13X7n09HwCXTxDUlzra9Tz27jfYmp81JlXwhlK8z0EAEABIYPl/RD3axdYb74Ty4+n5i1aHfZ/7WXMX+yIAtAIFb7Ht/gJ6d8Lbylaw5mdt3J73OggAAgD/NfuYqOJ3eGYQffbFKkfc6EafLe/0nf+sPjnQrh0El6zYJFHR0eZ/zuiUxvF+lPc8CAACAGqI8Vtq2gyOHy765j3p0meQ9Bky/usWsvr/XfGOKoEb2xyKO++oW94OeHO4rc9JhoyZAnc1dMrrVOTW4rJj30lbnsuOz3e15ues14r3PQgAAsDnen8oKio67END34xGD4669R8I7EOvb4v7yYIVgbvlbdt9PNHtaA8cOydbdh6VPQdOB/aRd9q97q06k13vxPfwoy3k+S7dZdBb7wYuLVz45deBx57wxj36JkNrN38T+P/TN/XRVyDcXeveQDCF+vUsWqykLXcY1FsFFyxU2PzPGGEE5LR9vP9BABAAPtVpWNi+74+MjJIy5SpKuw5d5KM5iwILu5MHuBUbAulhnNTnJ2++AvJshxcDX2WYjRv9v1/x9Q55462RIb0DoT4xcN+h7yx/Lj/+dGnghk7mIyBC1E1GHOUoIKpw2eDtqu9sLOqBZ0R1Hi5q+DJRn59lnQABQAB4TItXQz70U6aMkTp1G8qIMR/Ipp1xsufQOdl7+EdPD/4rjXlvmuTMlTvR2xMXL1E68Fv+4mUbbP0ZVq7dKe07viTZst9s+2uubzFsx2OofU/90B27GbMZcVBTVPOuooYtZS0EAQCXWvm3qAZtQjr49W/6vfsPkXVbDgeGfkKH4n72VQAkvDvglOnzAucH6N9oQ7G1bmJn1g8bOVFy5Mxl6+uvv7aw+mfX9yQI21dW+lLC2+sEb309aRtrCggAuESjZ0O2UFasVE1mzl36r6Gf0PEQ3WEOV6dPmtTnC+jb/9pxHMTExMpXq7ZY/nMXK17KGSc+5isWvNnQZ9+xvoAAgEPpvdBDdBb42Ikzrzn4tW+OnmcAO+k8hd3Hbdu5UN/eN7ETOc3QJ4o66koVfa+M6o1EvfGZqJV/sd6AAIBDdBkdgvvG55KBg0fJrgPfX3f4a4dPXmTwOtDQdyfYsnfBY4+3tvyKgKxZsznzstVchUS9OknUij9Ze0AAIIz6zw6e8WzTYqevze/StY9s3fNtkgb/ZU6/dM/P9J3+ChcpavmxMm7ih5b+nF1e6ens/StyFhTVbSIhAAIAYTBylajoGNsu5Wv91HOJntx3PfuP/cSgdTi9z0KDhg9aeszkyp3H0ks+9YZD+hwDx++SqC817DWd9QgEAEJEn5SUOYdtv/VPnDrvhgf/ZUdP/cKQdQF9pcD9jR6y9Njp+/rblv6MjzVv5Z7tkivUFjXjIGsTCADYaNU/tt3Ot0ChwrJw6aZkD3+N4eoex779JXA9v5V3abTyskd9hYGr7pmQMlbUU/1FLfuDdQoEAGzQdqAti1fV6jVl/bajpoY/Z/+7MAJOXZS69e637DjSlx1a+fPdeVct9908SV8++N4m1ioQALDQqNXBS5IsXrCeaN1Odu4/a2r4aweOX2CoutDRkz9bdkvem25KJ7stvFfA54tWW7M9cKjpOxO+MJI1CwQALLDgnKisuS1dpKKioqXfoOGmBz+X/7nf2k37AsPbiuNK3+vAyp/tgcYPu/dWyjWNn33xz6xfIABgQv3Wli5MGTNmlqkz5ls2/LVj315imLrYyLFTLDm2YmNTyeET1l0Nojcy0hsOuTYCchcW9f4O1jAQAEiG0Wssvbuf/k1v/uL1lg5/rv/3hkcee8KSY0zf8tnKn0t/rVCufEX3RkDqm4J3IWQ9AwGAJNMbjRQqbeE1/pEyfvJsy4e/3+7+5+U9ArJmy276OOvZ5w1brloYO2F6SG99bPlVAoM+ZU0DAYAk6viOpYtQ1x4DLB/+bADkLf0HDXXc9sCJ3ehow9aD8sXSdbJ05WZZt2W/7Nr/rXxz5HtZs2GPfPzZVzJ6/AfSu9/gwDkJjZs+JlWq3SW3FL5VolOmDO99BV6byroGAgDXMfdk8KNDixafJg89bsvw9/Ptf716VUCePPlMHWs9eg907OPTkaA/SWjU5NHAxlchjwD9dR5XCIAAwDXd09yyRaf87ZVlxzdnbAsAdgD03o2DzBxv02fNd80+CDPmLJRWbdpJjpy5QhsBfBJAABAASNSH+y270U+u3HllzaYDtg1/7fjpXxmcHtsqOLln3qdOncbSvQBCaeGXXwdiICo6OjRfB7z9BWsdAUAA4Ar1rNkHPU2atPLJwjW2Dn8CwJvmfLIkWcdcr75vemJfBL3/gO2bEMWmETV+A+sdAUAAIN7so5bt+Ddy3HTbh38gAM4QAF7UrEWbGzreSpYqE/j0wCuPf+GStVL9zpr2RkD6LMFP/Fj7CAACAKpRO0sWljp1G4Zk+BMA3v4qoGXrZ5J0vOl9+zfvOOLJ50Gf06DjxrYIyF9c1JJLrH0EAAHga/NOiYqOseB6/yjTd/a7EXEEgKeNGjdVihUvddVbSOtLB72+EZR+fEOGj5dUqVLbEwEN2rD+EQAEgK81e8WSxeTR5m1CNvwJAP/QN+d5a+hY6fRCt8AwXLZ6m+92gNR7D9h2xUCv6ayBBAAB4Esr/xKVOYfpg0Kfhb1q/TcEAGATfX+CsuVut2fL4BkHWQsJAALAd4YssmQRad/plZAOfwIAfqRveKR3GLQ8AopWMH4Z+Jv1kAAgAHylTjPTB0SmzFlk0844AgAIkW49+ll/ueCLo1gPCQACwDf0PcNjzZ9c9FrfwSEf/sEA4E6A8K+JU2dLTEysdQFwU0ZR879nXSQACABfeHWS6YMhX/6Ctm73SwAAV/fu6MnWfgpw31OsiwQAAeAL5WuZPhjeGvZeWIY/OwECQe07vmTt/QLGb2RtJAAIAE/TG4BEm7tFaYYMmWT7vtNhC4Cj315iAMD39Lkwde5tYF0ElKzC+kgAEADePvt/sQX3X38ybMNfO3zyIgMAiL/dcJFbi1sXAcOXsUYSAAQAm/9c3cy5S8MaAAfjfmbxBxLcTChjxkzWBID+epB1kgAgADxKX/dr4jUsUKhwWIe/tv/YTyz8QAKz530pUVHW3NSLOwYSAASAF31xXlREhKnXsEOnrmEPgH1HzrPoA1fQWyZbEgDV7metJAAIAM8ZOM/0QTBt5sKwB4Dmtz3hgaScD5A5cxZrrgiYtpf1kgAgADzlcXO/Ieg7k4Xr2v8rHeNKAOBf9J0SLfkUoHlX1ksCgADwlOqNTL1+1e6s5Yjhrx06wYmAwJWOnboo+QsUMr/YZ83FPQIIAALAU/IVM/X6denaxzEBsP8oJwICiRk7Ybo1nwIMXcKaSQAQAJ65/a/JDYCmz/rCMQGgsdgDiStjxe2D723BukkAEACeMOOA6QNg3ZbDjgoAzgMAEjfnkyXmF/zYNKKW/MLaSQAQAK735uemXruMGTM7avgHNwS6wGIPXEW16nebX/QHL2DtJAAIANfr8Lap165s+TscFwB7D//IQg9cxeAho80v+o+9xNpJABAArqcv6zHx2j34UHPHBQBfAwBXt233cYkwufGXurU8aycBQAC4XuP2pl67zl1ec2QAHDjO1wDA1ZSvcIe5NVsHhN5BlDWUACAAXEyf0WvitevZ9y1HBsDew3pXQBZ6IDHdew0wv/AP+pT1kwAgAFztzsamXrs3hoxxZABoR7g9MJCoVet2mV/4H+3C+kkAEACuVqG2qddu5Ljpjg2AfUc4GRC4msJFippbtyvVY/0kAAgAVytu7rvAydM+dWwAaEdP/cJiDySiQ6eXza3bOQuyfhIABICrFShh6rWbNe8rRwfAN0e5RTCQmHnzl5s8ETBS1LI/WEMJAALAtQqX9dQ2wFwSCCT9ckDTa/cHe1hDCQACwLVuu9PUazd+8mzHBwCfAgD/FnfmV4mMjDS3dg+cxxpKABAArlW5vqnX7p13Jzk+AAJXBHAuAPAv2W/OYW7t7jiUNZQAIABcq9Yjpl67/oNGuCIA9PbAJ777jUUfSKB0mfLm1u4n+7KGEgAEgGvd95Sp165rjwGuCADtUNzPLPpAAvfUvc/kPQFeZg0lAAgA13r4eVOv3ZNtO7kmADT9vScLPxD0eEtzvwCoRs+yhhIABIBrtepl6rWrWbueqwKAEwKB/+nySk9za7feSpx1lAAgAFyq+2RTr12BQoVdFQCBrwJO8FUAoL31zhhza7feSpx1lAAgAFxq7DpTr11UVLTs3H/WdRHA3gDA7zJ6/Afm1u7KDVhDCQACwLUW/mj6AFi4dJPrAkDfJ4CrAuB3/QYMMff+r/kwaygBQAC4WoasvtgL4Er7j/3EEICvte/4krm1u35r1k8CgABw926A1U29fo82b+PKANAOxl1gEMC3mj7c3Nza3aQj6ycBQAD4eS+AAgVvcW0AaIdPXmQYwJeq31nT3Nrd4lXWTwKAAHC1TsNMHwTL1+5xdQRw22D4UZFbi5l777cdwPpJABAArjZ5u+mD4I0hY1wdAFwZAD9KnyGjufd+l9GsnwQAAeBqq/4RlT6LqdewXoPGrg+AwCcBRAB84lDcefOL/7ClrJ8EAAHgenc/ZOo1jImJkfXbjnojAvg6AD6wdtM+84v/3BOsnQQAAeB6L401fSD0HTDUEwHA7YPhB2MnTDf3nk+VlnWTACAAPGHGAdMHQrkKlTwTAIGrA05wdQC8q1GTR82954uUY90kAAgAz8iWx/TBsHj5Fk9FgN4sKI4dA+Exx05dlHTpM5h7v9dpxppJABAAnvFQZ9MHQ9NHnvBUAGh7D//IyYHwlBlzFppf+J99kzWTACAAPGPCZtMHQ2RkpHy+eJ3nIiC4ayB3EYQ3tGrTzvzCP34jayYBQAB4Sv7ipg+ImrXreTIAtG+Onpe4M78yROBqOXLmMvc+T5Ne1Mq/WC8JAALAU54ZZMUBIdNmLvRsBOw9zFUCcK+FS9aaf49Xu5+1kgAgADxHX9cbEWH6oChTrqJnA+CyA8cvcEthuE7nF181v+jr7cNZLwkAAsCDytW05FOAEWM+8HwE6BMEj3AzIbjEkZMXJFdu81f7qCm7WCcJAALAk/rNsiQAChQqLDv3n/V8BGj7jvzIDoJwvJ593jD/3s5dmDWSACAAPGvl36LyFbUkAvq8/o4vAiDhSYJcMggn2nvwjGTImMn8+/qp/qyRBAAB4GmvTbUkALJmyy4bdxz3VQQEPxE4L4dPXuQcATjGsx1eNP+eTpFC1OyjrI8EAAHgaSv+FJWzoCURUKNmXdl14HvfRcDlcwT0/gFcOohw2rjtkMTExJp/P5e5i7WRACAAfOGV8ZYEgPbkM519GQBXfj2g7y9ADCDUmj7c3Jr3creJrIsEAAHgC8v+EJU1t2UR8MaQMb6PgP/GwJHzcujEz3Ls9CU5wYCCjZas2CQRFlzaG9j8Z/HPrIsEAAHgG90nWxYAMTEx8tHHSwiAq3w6cCju58CVBHFnOG8A1tCfNlWpdpc17+EW3VkPCQACwFdW/SOqdDXLIkCfFLjs690M/eudOxD/KcGBYz8FwuDIyV/k2LeXAp8YHD/9a2Bh13cp5CRDXEu79i9Y896NTS1q/veshwQAAeA7U3aKioyyLAJKlCojW3afYtDDNSdy6qs69M6P+hMat0TXsJETLXvPqodfYB0kAAgA33rkResWE0P9+x5kuMDFuz86e9Onz75YJSlTxljzfo02/p55p1gDCQACwLe+vCgqay5LI6D1U8/J7oM/MFTgSvuP/eTI8zU2bT8c+KrNsvfqgx1Y/wgAAsD3Xp9jaQBoterUl0074xgocO2nAU7aAvpQ3HkpVbqsde/R9JlFLTjH2kcAEAAw3Pek5RFQpGgJ+XLFNgYKXEufmBnu4a/PTWj4QFNr359dJ7DmEQAEAOIt/VVUwZKWR0CmTFlk6oz5DBO4duvncA7/A8fOSb0Gjax9X5aoFLwKiHWPACAA8F/T9omKTWN5BERFRUvfgcMYKHAlfblmOIb/hq0HpXiJ0ta+HyMiRU3aylpHABAAsO9mQYl5vGVb39xGGHwVYMa8+cslS5as1r8P9VU/rHMEAAGAq2rQxrYIqFKthqxa/w1DBa5y8PiFkA3/t4eNk+iUKa1//xW7PbgNOGscAUAA4Or3CvhdVLm7bYuA1KnTSIdOXWXzrhMMF7jmqgC7B//x05fkqWc62vO+S5uB2/0SAAQAkmjRBVGFy9oWAVqWrNmkd/8hsnP/dwwZ+PprAL3BT4XbK9n3fhs4jzWNACAAcAM+PSMqVyFbI0ArUKiwvDt2GkMGjqbv2WD14F+9frfUv6+xve8xtvslAAgAJMtHh0Rlym57BGjlKlSSD+csZtjAkY5YuDHQ9r0npGXrZyQqKsre91WleqJW/Mk6RgAQAEgmfdmQ/g4xBBGg1anbUKbM+JzthOEoVuwMqK/r7/JKT0mTJq3976ViFUUt+YX1iwAgAGDS+ztEZc4RsgjQcubKI0+3e14+W7SWAYTwfwVwOnlfARw7dVFmzFkordq0s+fSvsTkvZXb/BIABAAsNOtISM4JSEzRYqXkKSMG3nv/Y245jLCIu4HbBe8/+oOMnTBdGjd9TNKlzxDa90uWnKJmH2O9IgAIANhwYmDhMmGJgMuio1PK7RWrSvtOr8iwke/Lp198Ldv3nWZIwTbfHD1/zd/w9a59ny9aLW++PUpq1q5r3S17b5S+s+cHe1inCAACADZeIljmrrBGwJUiIyMlX/6CUqNmXeO3rmbS/ImnA18fdO7ymrzac5D06vc2kGz9Bw6T/oOGSqcXusmjzVoax9k9Uqx4KcmcOYukSJHCGe+DfEVFzTnO+gQCACHYLKhRO0dFAOBb+gY/839gXQIBgBDqN0tUmnQswEC4VG4gaskl1iIQAAiDmYdFFa3AQgyEkv7qoXlXrvMHAYBwfyXwh6iHOrMoA6GQPrOowQtYd0AAwEGGfxW8BplFGrBHycqiPo5jrQEBAId+GtB2gKiYVCzWgFWiokW1eJWP/EEAwAX07UerNmThBszSt+eetpc1BQQAXObNz8O+eRDgSnr77V7TWUNAAMDl9ElLpaqyqAPXkyqtqGavBDfdYu0AAQDPeHeFqNvrsMgDV9J33WzVU9SCc6wTIADgYRM2B3cTvCkjCz/8LUNWUc8M4jd+EADw4VUDr88RVe2B4JnODAT45az+avcHj339HmAtAAEAX9P3MH/+XVEV7xEVm5ohAe/Ru2Y+PyJ4rPOeBwEAXOWTgZErRbXuLap0NT4dgDtlzyuqXitRr00VNfck72sQAMANW/KLqGFLg58QNHkueCJhtjzBPdEZNAi3iEhRuQqJqlQvuC121/dEfXSI9y0IAMC+MLgkatI2UW98Jqr3h6JeHieqw9ui2vQR9WgXUfe3Df4GVq8lkHwN2ohq2knUEz1EtXtDVJfRonp+ENznYto+vscHAUAAAABAAPBCAABAAAAAAAIAAAAQAAAAgAAAAAAEAAAAIAAAAAABAAAACAAAAAgAAgAAAAKAAAAAgAAgAAAAIAAIAAAACAACAAAAAoAAAACAACAAAAAgAAgAAAAIAAIAAAACAAAAEAAAAIAAAAAABAAAACAAAAAAAQAAAAgAAABAAAAAQAAQAAAAEAAEAAAABAABAAAAAUAAAABAABAAAAAQAAQAAAAEAAEAAAABQAAAAEAAEAAAABAAAACAAAAAAAQAAAAgAAAAAAEAAAAIAAAAQAAAAAACAAAAAoAAAACAACAAAAAgAAgAAAAIAAIAAAACgAAAAIAAIAAAACAACAAAAAgAAgAAAAKAAAAAwL8BMOecqFX/8GIAABAKeubq2Rv2AJh+RtS8i6JW/M2LAgCAnfSs1TNXz15HBMCsn4wauSDqqz95cQAAsOVj/z+Ds1bPXEcFwGWf/iJq2V+8UAAAWEHPVD1bE85aRwbAZZ9f4msBAADMfNyvZ2liM9bRAXDZJ0a1LPqdGAAAIClDX8/MT3659mx1RQAkpE9cWPibqMV/iFr6Z/BjjZVcQQAA8Bk9+/QM1LNQz0Q9G/WMTOo8dV0AXMtsAAB8wIqZ6akAAAAABAAAACAAAAAAAQAAAAFAAAAAQAAQAAAAEAAEAAAABEAiAfC3qb/gg9O8EAAAhJKeveaGv5796rSpv2TkDl4IAABCSc9ecwGgZ7/aYuov6beIFwIAgFDSs9dcAOjZrz439Zc8P4kXAgCAUNKz11wA6Nmvxpn6Sxp34YUAACCU9Ow1FwB69qvepv6SvMV5IQAACCU9e80FgJ796mnTlxKM2sWLAQBAKOiZa/4SQD37VQ3Tf1HzvrwgAACEgp655gNAz34VZfjR1F+UNqOoycd5UQAAsJOetXrmmhv+PwZmv0hgM6APTNdEw468MAAA2EnPWvO//X8QmP3xAdDU9F8YHSNqyHpeHAAA7KBnrJ615gOgScIASGv4zfRfmi2fqImHeZEAALCSnq16xpof/nrWp/1vAMRHwHwL/mJRxaqImvE9LxYAAFbQM1XPVitmtDHr/zv3EwRAa4v+clG31RL1fhwvGgAAZuhZqmeqVfPZmPWJBUC04bBl/0iuIqJGbOXFAwAgOfQM1bPUuuGvZ3z0vwIgPgIetfAfEpUmvaiWg0R9eJYXEgCApNAzU89OPUOtnMnGjP9/M/+KAEhh2GzxPygqa15RHccRAgAAXGvw61mpZ6bVczg421NcNQDiI6CWDf9wUKq0oio3FtV5gqjRu0XN+IEXHADg05P7fgjOQj0T9WzUM9Ku+WvM9n/N+yv/D/ERsNjGH+J/UkSIypBdVIHbRBWuAACA9+mZp2efnoGhmLXGTE901l8lAEoYLoXoBwMAAPbQs7xEkgMgPgKaGP7hyQMAwJX+ubzr3w0FQHwE9OYJBADAlXpfc8ZfJwD0VQGzeBIBAHCVWVee9X9DARAfAakNW3kyAQBwBT2zU193vl/vP4iPgNyGvTypAAA4mp7VuZM025PyH8VHQDrDQp5cAAAcSc/odEme60n9D+MjIMIwhCcZAABH0bM54oZm+o38xwlCoI3hD55wAADCSs/iNsma5cn5H8VHQDXDPp58AADCQs/gasme48n9H8ZHQKThacMpXggAAELiVPzsjTQ1w838j6+4VLC74QIvDAAAtrgQP2tTWzK7rfhLEoRAZsObhuO8UAAAWOJ4/GzNbOnMtvIvuyIGyhr6Grbz4gEAcEO2x8/QsrbNabv+4itiIL+hs2GyCt5qeJfhHC8wAMDnzsXPxMXxM1LPyvwhmc2h+EeuEQaxhgKGKoYaAAD4QJX42Rcb1hkczn8cAAAQAAAAgAAAAAAEAAAAIAAAAAABAAAACAAAAEAAAAAAAgAAAAKAJwEAAAIAAAAQAAAAgAAAAAAEAAAAIAAAAAABAAAACAAAAEAAAAAAAgAAABAAAACAAAAAAAQAAAAgAAAAAAEAAAAIAAAAQAAAAAACAAAAAgAAABAAAACAAAAAAAQAAAAgAAAAAAEAAAAIAAAAQAAAAAACAAAAEAAAAIAAAAAABAAAACAAAAAAAQAAAAgAAACQiP8D5jwKcshKf1IAAAAASUVORK5CYII=;rounded=1;fillColor=#5D7F99;strokeColor=#D0CEE2;fontColor=#1A1A1A;" vertex="1" parent="1">
          <mxGeometry x="560" y="760" width="100" height="100" as="geometry" />
        </mxCell>
        <mxCell id="gFBRsMoK_zdnoC3hOrfU-4" value="" style="shape=image;verticalLabelPosition=bottom;labelBackgroundColor=none;verticalAlign=top;aspect=fixed;imageAspect=0;image=data:image/png,iVBORw0KGgoAAAANSUhEUgAAAgAAAAIACAYAAAD0eNT6AAAABHNCSVQICAgIfAhkiAAAAAlwSFlzAAALEwAACxMBAJqcGAAAABl0RVh0U29mdHdhcmUAd3d3Lmlua3NjYXBlLm9yZ5vuPBoAACAASURBVHic7N13eFv3eTf8Lw4AgnuDorj3HprUJmVNS/KIM+zYcdMkbVM2dtrmTar2veq2T5+2aV626UxTdjxN88TZqZ3YlixZliyKmhS1KO69F0iKmwQBnPP+QdGWbQ0SxDkHwPl+ritXbBI49y2YIr4453d+t06SJBAREZG2CGo3QERERMpjACAiItIgBgAiIiINYgAgIiLSIAYAIiIiDWIAICIi0iAGACIiIg1iACAiItIgBgAiIiINYgAgIiLSIAYAIiIiDWIAICIi0iAGACIiIg1iACAiItIgBgAiIiINYgAgIiLSIAYAIiIiDWIAICIi0iAGACIiIg1iACAiItIgBgAiIiINYgAgIiLSIAYAIiIiDWIAICIi0iAGACIiIg1iACAiItIgBgAiIiINYgAgIiLSIAYAIiIiDWIAICIi0iAGACIiIg1iACAiItIgBgAiIiINYgAgIiLSIAYAIiIiDWIAICIi0iAGACIiIg1iACAiItIgw2oP8K0aSwaApwHkAVh7z/8iVntsIiLSFlEUYbeJsNsdsNsdsC3YMT01j7m5BZfV0OsFUW8QFvSCMC3ohXG9XqgzGvV/9+39aedcVsQD6CRJWvGTvlVjyQPwAoBPAMh2dVNERET3stsdmJ6cx+TkLGZnrLLU8DEZ5k0mY5XRx/BXf7c/7R1ZiriRFQWAb9VYEgH8BYAXAejkaoqIiOhBZmetGB6cwLwLzwp8iA4ICPBt9PU1Pv/t/Wk35SmivmUFgG/VWIIB/AmArwIwyd0UERHRo0xNzmF4aAK2BbssxxcEHQICfStNJuMn/3Zf6ogsRVT0yABw9xr/GwAyFemIiIhomRwOEf29Y5iZnpetho/JMBcU5Lfn2/vTLstWRAUPvQvgWzWWAwCugG/+RETkhvR6AfEJkQiPCJStxoLV7jd+Z+bC195p+YpsRVTwwDMA36qxfBnAdwHoFe2IiIjICeN3ZjDYf0e24+t0OoSE+n/nHx7P+KpsRRR03wBw95P/cfDNn4iIPIhleBKjlknZjq/T6RAaHlD69wfS/022Igr5WAC4e83/CoBQVToiIiJahd7uUUxPzcl2fL1BEENDA7Z/e3/aFdmKKOBDawDurvZ/A3zzJyIiDxUTFw6TySjb8R12UZiemj/zjXfbwmUrooCPLgL8E3DBHxEReTBB0CE6Rt7PsVarzX9hwf5TWYvI7P1LAHc3+WkC7/MnIiIvIPelAEHQSWERgTnf3pfWKFsRGd17BuAvwDd/IiLyElFrQmTds1YUJZ113vYT+SrISwDe39v/RZV7ISIichkfkwEhoQGy1piZthZ+/VTrdlmLyGTpDMAL4N7+RETkZYJD/GU9viRJsNkcfyxrEZksBYBPqNoFERGRDPz9fSDoH7rp7apZrbZdshaQiXD3vn+O9CUiIq+j0+kQGOgraw3rvC3o66daC2QtIgMBwNNqN0FERCSXwCB5AwAA2O3iN2Qv4mICgDy1myAiIpKLnJsCLXE4HB55BmCt2k0QERHJxWCUf6yNKEoRshdxMQYAIiLyanq9AJ1O3hvdRIcYLGsBGTAAEBGR15P7LIDDIfrJWkAGAgCPO21BRES0EnqZbwV0iJJB1gIykPcVISIicgOy73QnyV3A9RgAiIiINIgBgIiISIMYAIiIiDSIAYCIiEiDGACIiIg0iAGAiIhIgxgAiIiINIgBgIiISIMYAIiIiDSIAYCIiEiDGACIiIg0iAGAiIhIgxgAiIiINIgBgIiISIMYAIiIiDSIAYCIiEiDGACIiIg0iAGAiIhIgxgAiIiINIgBgIiISIMYAIiIiDSIAYCIiEiDGACIiIg0iAGAiIhIgxgAiIiINIgBgIiISIMYAIiIiDSIAYCIiEiDGACIiIg0iAGAiIhIgxgAiIiINIgBgIiISIMYAIiIiDSIAYCIiEiDGACIiIg0iAGAiIhIgxgAiIiINIgBgIiISIMYAIiIiDSIAYCIiEiDDGo3QET0MA6bHQO1LRjvG8LcxDR8AvwQGBmG2MJM+AYFqN0ekcdiACAit+Sw2dFaWY2Oizdhm7d+7PsN71xAbEEGsg/sgG9woAodEnk2BgAicjt9Nc1oOHkecxNTD3yMJIrovdmIgbpWpBVvRurODdAb+SuNaLn4t4WI3MZE/zBqj1VgrKt/2c9x2OxoOn0J3ddqkXNwF2Ly02XskMh7MAB4GLt1AQBgMPmo3AmR61inZ9F46iJ6rtdDkiSnjjE3PoVrPz2OziuxyD1SgpC1Zhd3SeRdGAA8wNTQKForq2Fp7YZ1ehYA4BsUAHN6ItJ2bUSgOVzlDomcIzoc6Lh4E81nq94Pt6s12tmHyu/+GPEbc5G1fxtMAf4uOS6Rt2EAcGO2OSvqjleg52YD8JEPRfNTM+i5Xo+eG/VI2JiHnMd3wuhrUqdRIicMNraj/u1KzIyOu/zYkiShu7oWA7UtSN9dhORt6yDoedcz0b0YANzUQH0rbr/x3vuf+B9IArqrazHc1IGCp/dgTVaKMg0SOWlqeAx1xytgae2WvZZt3or6E5Xoqq5F7qFdWJOZLHtNIk/BAOBmrDOzuP3GWQzUtazoefNTM6h69U3EFmYi70gJfPz9ZOqQyDm2OSuaTl9CZ9VtSKKoaO2ZkTuo+sEbiEpPRO7hEgSawxStT+SOGADcSO/NRtQdr8DC7LzTx+i71QRLazfyn9iNmPwMF3ZH5BxJlNB19TaaTl9a1c+2Kwy3dMHyz68ieWshMvZs4WUz0jQGADcwPzmNml+dwVBTh0uOtzAzh2s/fRt9Nc3If+ox7pZGqhlp60Ht8QpMDY2q3cr7JFFE+8Ub6L3ZiKx925CwKQ86Qad2W0SKYwBQkwR0Vdei/kSly1ZA32uwoQ2jHb3IPVyM+A05Lj8+0YPMjk2g7u1KDDa0qd3KAy3MzqHmjTPorKpB3pESRCTHqd0SkaIYAFQyOzaBW788jZH2Hlnr2OatuPnaKfTVNKHwE/vgFxokaz3SNvuCDS1nq9B+8QZEu0PtdpZlcnAEF//P/2BtbhpyHt8F/7BgtVsiUgQDgMIkSULHpZtoPHURDptdsbqW1m6c/acfIPvgTiQVFQA840muJAE9N+rReOoi5qdm1O7GKQN1rRhq6kDqzo1IL94EvY9R7ZaIZMUAoKBpyxhuvv4u7nQPqFLfvmDD7TffQ//tZhQ+sw8BEaGq9EHe5U73AGqPVWC8b0jtVlZNtDvQcrYKPdfqkH1wJ+IKsxiWyWvp/vrWsHP7btKySaKI1spraH7vitucFtUbDcjcuw0p29dzARQ5ZX5yGvUnL6CvpvFjG1V5i7C4aOQ+UYKwuGi1W6FV6mofxtyc69daLREEQfqv5wo9arcpBgCZTVvGcP1nJzAxYFG7lfsKjV2DDc8+zrMBtGyi3YG289fQcq4ajgWbYnX1RgPi1mdjqKFd2csMOiBuXfbi2GHeUeOxGAA+jgFARpODI7j0X69hYXZO7VYeyhToj21f+hSCojhTgB6uv7YF9ScqMTf+4DG9cojJT0fOwV3wCw2CY8GGlnPVaDt/TdEzagYfI9JKNiN1xwYIBr1idck1GAA+jgFAJksri21z6m58slymAH9s/81PcbAQ3dfkgAW1xysw2tGnaN2QtWbkHSlBeFLsx743e2cS9ScqMVDXqmhP/mHByDm0C2tz0hStS6vDAPBxXAQok4Z3LnjMmz+wuAVx46lL2PTCEbVbITeyMDOHxncvoru6zukxvc4wBfgja/82xG/MhU53/zUq/mHB2PT8EYx29KL2WAUmB0cU6W32ziSqf3QMkSlxyD1cguDoSEXqErkaA4AMZkbHMdzSqXYbKzbY2Ia5iSn4hXCvAK0THSI6L99E83tVsM1bFasr6PVI3laIjMe2wGDyWdZzIpLjUPzSC+iurkXjqUuKXXIbae/Fue/+CImb8pG5byvnb5DHYQCQQV9Nk0euipZECX01zUjbtVHtVkhFw82dqDt+DtMjdxStuyYzGbmHi51akKrT6ZC4OR8x+RloPnMFnVduQXTIP3BIEiV0VtWgr6YJGXu3InlLAXSCR50FJg1jAJCBXcGV0a7mWJDvGhm5t+mRO6g7fg7DzZ2K1g00hyPvcDHM6YmrPpbR14Tcw8VILMpX9M9im7ei7lgFuqpuu+zPQiQ3BgAZSKIHfvy/y5N7J+fY5q2KfmpeYvQzIXPPViTJ8Kk5MDIMWz7/tOJnM6YtY7j8/V+u6mwGkVIYAGRgCvDca4E+gf5qt0AKkSRp8br5u5ewMKPcrao6YfF0febebfDx95W1VlRGEiJTE9B55Raaz1xRbD3DUFMHLK1dSN62bkXrGYiUxAAgg7j12Wh896LHfZoW9HrEFWSq3QYpYLSjD7XHziq2cn6JGivnBb2AlO3rEVeYpegdDaJDRNv56+i90fjIOxqI1MAAIAPfoACsyUjGYGP7ip/rHx6CwMgwp69dRmelYGLQ4tRGLdE5KfDx4LMX9GiL986fx0Bdi6J13eHeeZ8APxQ8vRdJRQWK7mlgnZnFrV+eRueVmgfuaUCkBgYAmeQeKcGUZQwzo+PLerxOp0Py1kJkHdiB1spqpwNAWMJarH/2cTScPI/Oqppl343gFxqE7AM7napJ7o+7530geK0Z23/j04rvajgxYMGF//wFYvIzkHNwJ0dzk+oYAGTiHxaMHV/+DK58/1eY6B9+6GMDI8NQ+Mw+hCfGuKS2wceI/CcfQ0xeBm69fgozYxMPfbxvcCC2f+lTnIPujSSg91YjGt65gPnJaeXqesD++TF56YjOSlF8rkH/7WYMNbYjdedGpBVvgt7IX8OkDv7kycgU4I/tv/Ep1L1dieHmzo/9AvYLCULK9nVI2lIoy6ejiORYlHz1RXRV16K7uhZTQ6Mf+r7Rz4SEjblI2b4evsGBLq9P6hrvHUTtsQrc6RlUtG5YfDTyjpQg1AMm6AkGPdJ3FyF+Q46ikw0dNjua37uC7mt1yHl8J2K59oZUwAAgM4PJB4Wf2AtgcYfA0c4+CIKAgMgwhMZGyb5piN5oQMq2dUjZtg7jvYOYvTMFnaCDYNAjMiWenz680PzUDBrfuYCemw2KbkjlGxSA7IM7EVeYBXjYWjff4EBs+MxBJG8pQO2xCoz3DSlSd35yGtd/duL99QEhMVGK1CUCGAAUFRARqup9waFx0R7xqYycI9odaLtwHa0VVxXdjEow6JG6cyPSizdB72NUrK4cwhLWYlfpZ9FzswGN71xQbOzwWFc/zv3rjxG/PgfZB3bAxNtxSQEMAEReYLC+DXUnKjH7iPUerrY2Nx05j+/0rvUjOiB+fTbW5qahteIq2i5cV2bhpAT0XK/HQF0r0ncXIWX7Ogh691g4Sd6JAYDIg00OjaDu2DmMtPcoWjc4OhJ5R0oQkRynaF0lGXyMyNq/HQkbc1F3ohKD9W2K1LVbF9Bw8jy6q2uRc2gXorNSFKlL2sMAQOSBFmbn0XT6Erqu3lZ0wymfAD9k7duGhE15mtnUxj88BJtfeAIj7T2oO3YOk0PKbJ40MzqOq6++CXNaAnIPFyMoKkKRuqQdDABEHkQSRXReqUHTmcuwzSk5pldA0pZCZOzZAqOvSbG67iQyJR7FL72ArurbaHr3EhZm5xWpa2ntRsV3foSkonxk7t0Ko5+82yeTdjAAkOrs1gVYp2fhHx6imU+VzpgaHsW1n7yNqeHRRz/YhaIykpB7uBiBkWGK1nVHOkGHpKICxOZnounMZXReqYEkKjF2WETH5VvovdWEwmf2qrqjInkPBgBSxdTwGBpPXcBoR9/7A1qMfiZEpiQgOjsFsQUZnKt+j5H2HlS9+qZim9UAixtU5R4uRlRGkmI1PYXRz4S8IyVIKspH7fFzsLR0KVLXNjeP6h8dQ/aBHUgr3qRITfJeDACkKEmSUHesAp1VNR+7dm2bs2KgrgUDdS1oOnMZGbuLELcuS/NBYH5qBtd++rZib/5GXxMy9mxZ3KBKr+3X/lECzeHY+uufwFBTB+qOn1v21t+r1XDqAoLWRGBNZrIi9cg7MQCQoppOX0bH5VuPfNzs2ARuvnYKLRVXkbG7CLGFWdAJ2rw80HzmsiLjenU6HRI25SJr33YOhVqhNZnJMKcloOPSLTS/dwV264K8BSWg9lgF1mQke9ymS+Q+GABIMYON7WipqFrRc2ZGx3Hjf95Bc8VVZD5WhJiCTE2tE7BbF9B7q0n2OhHJscg7slvRMb3eRtDrkbpzA+LWZ6Hx1CX0XJN37PDs2AQs7d0wpybIVoO8GwMAKabl7FWnt6adGbmD6z8/ieazVch4bCti8tM1EQQmB0dkPfXvHxaMnMd3Ym1uumw1tMYU4I/CT+xF0t1thcc65Rs7PN4zyABATmMAIEXY5qyYcMH+6tOWO7j+s7fRcvbKYhDIS/fqU6By7uyXvLUQOY/vcpsxvd4mZK0ZO37z0+i50YBbr5+SZb+GR036JHoYrvAhRYx29Lr0dOjU8Biu/fQ4Kr7zQwzUtSo69EZJDptdtmP3XK9H+8Ubymxzq1ED9a1oPnNZts2a5Pz5IO/HMwCkDJlO108OjaD6x8cQHB2JzL1bEZ2dKksdb2RfsKHhnQvoqq5F7uO7EJ3D185V1NqimWglGABIEf7h8g6LmRwcwdUfvoWQtWZk7t2KNdw/fdlmxyZw9UdvITIlDrmHS7gQcBXU2qKZyBkMAKSIgLAQCAa97KebJwYsqHr1TYTGRWPdJ/dx//QVGGnvxbnv/ggJm/KQtW8bfPx5K+BySaKIzqrbaDp9SdEtmolWg2sASBF6HyOSt61TrN547yDOfffH6Ller1hNbyCJErqqbuPM330f7ZduKrLNradb3Kv/h6h96yzf/Mmj8AwAKSa9ZDN6rtcrsqkNAIh2B2798jT8w0MQkRSrSE1vYZu3ou5YBbqqbiPvcDHM6Ylqt+R2ZkbHUfd2JYYa29VuhcgpPANAijH6mrD5hSdgCvBXrKYkirjx85P8JOukacsYLn//l6j6wRuYGbmjdjtuwW5dQP2JSpz9p1f55k8ejQGAFBWeGIPil55HaOwaxWrOTUxhkL+oV2WoqQNn//lV1J+ofH94k9ZIkoTua3U483ffR9v56xAdvH2SPBsvAZDifIMDsfO3n0XvzUY0v3cFs3cmZa85WN/GEaqrJDpEtJ2/jt4bjcjavw3xG3M1sRsjAIx19qH2+DlM9A+r3QqRyzAAkCp0goD4DTmIW5eFnuv1aD5bhbnxKdnqWadmZTu21lhnZnHrl6fReaUGeUdKEO7F6yvmxqdQf/I8+m83q90KkcsxAJCqdIKAhE15WJubhgv/8QtMDY/KUkerp63lNDFgwYX//AVi8tORc3AX/EKD1G7JZRw2O1rPVaPt/DXutkdeiwGA1CUBPTcb0PjOBcxPzchWRu/DH3W59N9uwVBjB1J3bkRa8SbojZ79WvfdakL9yfOYn5xWuxUiWXn231TyaHd6BlF7rALjvYOy1zKYTLLXcDdGP5Ni96U7bHY0v3cF3dfqkHNwJ2ILMxWp60rjfUOoO1aBse4BResq+d+J6F4MAKS4+clpNLxzAb23GhUb4mMw+ShTyI3E5GUgtjATtccqMDlgUaTm/OQ0rv/8BDqv3ELukRJF7/ZwlnV6Fg3vXEDPjXpFh0qZAv2RtX879AYDrv/8hHKFie5iACDFiHYH2s5fQ8u5alln3N+PUYMBAAAikmJR/JXn0XOtDo2nLsE6o8xiyLHuAVSW/wTx63OQfWAHTIHK7f2wXKLdgfaLN9BScRV264JidQW9Hsnb1yFjdxEMJh/01XCBIamDAYAUMVDXgvoT5xW55e9+DL7aDAAAoNPpFhda5qWj5WwVOi7dhOhQYGMkaXHk8EBdK9JLNiNlx3oIer38dZdhsKEN9W9XYmZsQtG60VkpyDm0CwERoYrWJbofBgCS1eTgCGqPncVoR5+qfWjxEsBHGX1NyHl8FxI35S1uYdvUoUhdu3UBDe9cQHd1LXIOFSM6W71JjVNDo6g9XoGRNmXH9AZFhSP3cAnMaQmK1iV6GAYAksXCzBwa372I7uo6SJL6Y1EZAD4QEBmGol97CsMtXag7XoFpizJb/M6MTeDqD9+EOTUBuUeKFZ3UqNaYXqOfCZl7tyGpKB86gRuvknthACCXEh0iOq/cQvOZK251771W1wA8TFR6IsxffREdV2rQfPqyYv+9LG2L0/MSNxcga99WGP18Zaul1phenaBT5M9HtBoMAOQyw82dqDt+DtNuODTG4Ku92wCXQycISNm2DnGFmWh89xK6q2sV+YQsiRI6r9xCX00TMvduleUTsqW1G3XHKzA1PObS4z5KZGo88g6XIGiNcmc4iJzBAECrNj1yB3XHz2G4uVPtVh6IlwAezsffDwVP7UFSUQHqjldgpL1Xkbq2uXnUvnUWXVW3kXukGObU1V8jV2tMb0B4CHIO7UJ0dqqidYmcxQBATrPNW9F85go6r9xSZlX5Khg1fBfASgRHR2Lblz6FgfpW1L9dqdhdG1PDo7j8vdcRnZ2CnEPFCAgPWfEx7NYFNL93BR2Xbik6qc9g8lm8y2H7eggG97jLgWg5GABoxSRJQnd1LRrfvYSFmTm121kWngFYmbU5aViTkYy2C9fRWnEVdoX2bRhsaMdwcxdStq9D+t375B9FkiT0XK9H4zsXFdvnAACgg1vvc0D0KAwAtCKjHX2oPXYWk4MjitYNT4rFeM+g05/sGABWTjDokV6yGfEbchZ3brzZoMhOeaLDgdbKa+i50YDsAzsQvz4HeMDU4bGuftQeq1B8TG94wlqP2emQ6EEYAGhZZu9Mov7EeQzUtSha1y80CDkHd2FtXhqO/ek/O30cBgDn+QYFYP2nDiB5SwFq36rAHQVmNwCLW/TefO0UOq/UIPdICcIT1r7/PbXG9PoGB3rsrAOij2IAoIdyLNjQcncsqmhX7rqq3mhAWvEmpO7cCL3RALt1wen9BHSC4PET6txBaFw0dv72c+i91YiGk+dlnd54r/G+IVz4958htiATGXu2oO9Wk+JjevVGg9dMOyRawp9kuj8Ji7/o37mg+FjU2IJM5Dy+E77Bge9/bTX3qPPTvwvpgLh1WVibk6p4MOyraUJfTZMite4Vk5+OnIO74BcapHhtIjkxANDHjPcujum906PMqd4lobFrPnaqd8lqhrXwDgDX0/sYkbVvGxI25qL+RCUG6lrVbsnlQtaakXekBOFJsWq3QiQLBgB63/zUjKKLvZaYAv0fudjLNu98AOAZAPn4hwVj0/NHMNrRuzh2WOHFoXIwBfgja/82xG/MhU73gB9IIi/AAECLY3oVvt0LWByLutzbvXxWsZ2qkbsAyi4iOQ7FL72weHvoqUtYmPWM20PvJegFJG9bh4zHtjA0kiYwAGic0hu+LFnphi/+4SHQCTqntqkNjeOtWkrQ6XRI3JyPmPwMj9kgasmazGTkHi7mmF7SFAYAjZocGkHdMeW2fF0SFBXh1Javgl6Af3goZpyYMxCZEr/i55DzjL4m5B4uRmJRvttvER1oDkfe4WKY0xPVboVIcQwAGrMwO4+mdy+hq1rpsai+yNq3FYmbC6ATnLuumrpjPWp+dWZFz/Hx9+UiLpUERoZhy+efdsshUUY/EzL2bEXylgKO6SXNYgDQCEkUF8e+nrms8FhUAUlF+cjcu/qxqAmb8tB1tXZFu74VPrMfBh/jqurS6kRlJCEyNcEtxkTrBB0SN+Ujc982+PhzTC9pGwOABlhaulB7/BymLcqORTWnJiD3SDGColwzFlWn02H9pw+i6tU3MDs28cjHp2xfj+jsFJfUptUR9AJStq9HXGEWGt+9iO7qOqc3dnJWZEo8co8UI3hNpKJ1idwVA4AXmxkdR93xcxhq6lC0bkBE6OJY1CzXv/kGRYWj+CvP4+Yv3sHgA8a9mgL9kf/kbqzNTXd5fVodnwA/FDy9F0lbClF77CxGO/pkr+kfFozcQ8WIzuGYXqJ7MQB4oQ/Got5UdBW2weSD9N1FSNm+DoJevrGoRl8TNr/4JCaHRjDS3ovR9h44bHYER0ciZK0ZUZnJvPXPzQVHR2L7b3waA3UtqD9xXpa7UAw+RqSVbEbqjg0c00t0HwwAXma4pQvtF25oYixq8JpIBK+JRMq2dYrVJNdam5uONZkpaDt/DS3nquFwxT4UOiBuXTayD+yAb1DA6o9H5KUYALzMaIeyt/WFJ8Yg70gJQmKiFK1L3kMw6JG+u+iDscO3Gp3eiTIsPhp5R0oQGhft2iaJvBADADnFLyQI2Qd3ILaAY1HJNXyDA7H+0wcx2tmHufEpp46x4dlD8A8LdnFnRN6JAYBWhGNRiYi8A3+D07LF5Gcg5+BOjkUlIvICDAD0SCExUcg7XMwd9YiIvAgDAD0Qx6ISEXkvBgD6GEGvR/K2Qo5FJSLyYgwA9CEci0pEpA0MAATg7ljUIyUwp61sTC8REXkmBgCNM/qZkLlnK5I4FpWISFMYADSKY1GJiLSNAUCDOBaViIgYADQm74ndSN5aqHYbRESkMl70dUMGH/luvWs4eR7N71XBYbPLVoOIiNwfA4AbCokxy3Zsh82OptOX8N4//l/0326RrQ4REbk3BgA3FJ4YA1Ogv6w15sancO2nx3HhP3+BiQGLrLWIiMj9MAC4IUGvR+aerYrUGuvsQ+V3f4xbvzwN68ysIjWJiEh9DABuKnFzPtbmpClSS5IkdFfX4szffR9t569DdDgUqUtEROphAHBXOmDDc4eQuDlPsZJ26wLqT1Ti7D+9iqHGdsXqEhGR8hgA3JigF1Dw9F5s++InEbQmQrG6M6PjqHr1TVz+79cxNTymWF0iIlIOA4AHiEyNR8lLn0P+k7th9FNu1z5LazcqvvND1L51FrY5q2J1iYhIftwIyEPoBB2SthQitiALTacvobPqZrcSyQAAIABJREFUNiRRlL2uJIrouHwLfTVNyNy7FYmbC6ATdLLXJSIiefEMgIcx+pmQ98RulLz8OUUn9y3MzuP2m2dR8S8/hKWtW7G6REQkDwYADxUUFY6tX3gGm198EgERoYrVnRoaxeXvvY6rP3wTM2MTitUlIiLX4iUADxedlYKo9ER0XLyJ5rNVsFsXFKk72NCO4eYupGxfh/TdRTCY5Nu+mIiIXI9nALyAoNcjdddG7PnaryNhYy50OmWu0YsOB1orr+HM338fPdfrAUmRskRE5AI8A+BFTIH+KHxmH5K2FKD2WAXGuvoVqWudnsXN106h4/It5B0pQXhijCJ1JVHCeP8QRtt7AZ0OgZGhCDSHIzAyTJH6RESejAHAC4XERGHHb30GfTXNaDh5HnMTU4rUnegfxoX/+DliCzKQfXAn/EKC5CkkAS3nrqL1XPV9L3msyUpB3uFi+IeHyFPfQ4x29mG8bwihsWvUboUeYH5qBv23m9RugzSKAcCLxRZkIDo7Ba2V1WirvKbYCOC+mmYMNrQjbdcmpO7aCL3RdT9mtjkrbvziJIaaOh74mKHGdlhau7DukwcQW5DhstqeZtoyhsrynyB+fQ6yD+yQfcAULZ9od6DtwnW0VlyFfcGmdjukUQwAXk5vNCBzz1YkbMxFw8nz6KtpVqSuw2ZH05nL6L5Wh+yDO132Rnzr9Xcf+ua/RLQ7cOuX7yI4OhJBUeEuqe2RJKDnej0G6lqRvrsIKdvXQdDr1e5K0wbr21B3ohKzvIuGVMZFgBrhFxKEDc8ewo7f+gxCYqIUqzs3MYXrP3sbF/7j55joH17VsSyt3Riob1324x0LNlz7yXFIElcn2q0LaDh5Hmf/8QcYbOCcBzVMDo3g0n+9hqs/eotv/uQWGAA0JjwxBrt+57MofGafoqeEx7r6UfmvP8Gt19+Fddq5scONpy6u+DlTw6OYHLA4Vc8duHrXxZmxCVz94Zu4/L3XMTU86tJj0/0tzM7j9hvv4dy//Agj7T0uPTZ35aTV4CUADdLpdEjYmIuYvHQ0n61Cx8WbiowAliQJ3dfq0F/bsuLT0ZIkYXJoxKm6I209ip71cCW/0GBZjmtpW5zzkFRUgMy9WxWdMaEVkiii40oNms9clm2Whm9woCzHJW1gANAwg8kHOQd3InFTHurerlRsBPDS6ejuq7eRc6gY0dkpj3zO/MQ0RLtzIWWsqx+puzY69Vy1BUWFAzrIsseCJErouHwLvbcW5zwkFeVDJ/CkoCtYWrpQe/wcpi3yTtPkLa+0GgwAhICIUBS9+CQsrd2oO16h2AjgpdPR5tQE5B4pRlDUg0cez01OO13HOjvn9HPV5hscCHNqAiyt8s1fsM3No/ats+iquo3cI8Uwpyo3Y8LbzIyOo+74uWUtVF0tg48RMXnpstch78UAQO8zpyWg5OXPobPqNppOX1JsBPDS6ejEzQXI2nf/09EGH6PTx7fPK7M9slzSS4ow0tYj+2LGqeHFOQ/RWSnIObRL0RkTns5uXUDze1fQcekmRIf8UzoBIHn7erfYglsQRSR2dMM8ZEHQ5BTsRiOmggLRnp6M8TD+DLkzBgD6EJ0gIHlrIWILMtF0+hK6rt6GJMq/il4SJXRe+WDs8EdPR6/mF51tXpkgI5eI5FiklWxGy9kqReoNNrZjuIVzHpZDkiT0XKtD46lLsM44t7jVGeFJscjcs0Wxeg+S3NaJLReqEDA987Hvra++ib74GFzdugmj5gef3SP1MADQffn4+yL/yceQVFSA2uMVGGlz7erlB/ngdHQNcg+XvD/y2OhrcvqYSg1IklPWvm0w+prQ8M4FSKL8nzCX5jz03GhA1v7tSNiQu7gWgd431tmH2mMVmFD4LpPYwiwUPr1H9fUaWy5UIe9W3UMfE9vTj5jeN9GSlY7qLRsw5++nUHe0HAwA9FBBayKw7YufxGBDG+rfrlRsBPDU8Bgu//frWJOVgtxDu+Af5vy2vvaFBUiSpNiQJLmk7tyAyNT4xTkPnX2K1LROz+LW6++i80qNonMe3Nnc+BTqT1ai/3aLonX9w4KR8/gurM1NU7Tu/WTVNT3yzX+JTpKQ0dCM5LYO3Ni0DnUFORC52NQtMADQskRnpyIqPQntF2+gpeKqYp+qhxrbYWnpQvK2QggGvXN3AkiLmwJ5w6nskLVm7PjNT6P/dgvqT1ZiblzpOQ+ZyD64Q745D27MYbOj9Vw12s4rt602AOh9jEgv3oTUnRshGNTfxdE0b8XWC1dW/Dzjgg1FF68iq64JV3YUoTspXobuaCUYAGjZBIMeacWbEL8hBw3vXEDPDWVGAIsOB9rOX1/VMWzzVq8IAEti8tOxJisZbeevofVctYJzHpow2NAmy5wHd9Z3qwn1J89jfhV3o6yYDogrzEL2wZ3wDQpQru4jZNU3Qe/kLbkAEDwxif3H30VffCwu7yziQkEVaeNvL7mUKdAf6z65//2xw3e6B9Ru6ZG8YR3AR+mNBmQ8tgUJG3NRf/I8+m4pM1Xu/TkP1+uQc3AnYvK9d+DSeN8Q6o5VYEzhn/HQuGjkHSlBWHy0onWXI6bXNWPGY3v68MxPf4XG3ExcL9oAqxcFdE/BAEBOC41dg51ffladT0crZPPwWwEfxjc4EBs+8ziSthSi7lgFxvuGFKk7Nz6Faz99Gx2XbyHvSInH7rZ4P9bpWUXPci3xDQpA9oEdiFuX7baLLoNc+PdcEEXk3G5Aaks7rhVtQGNuJiQPX6vjSRgAaNViCzMRnZOK1nNX0Xb+uqLXR5fLG88AfFR4wlrsKv0sem7Uo+GdC07PXFippTkP8RtykLV/u0ePHRbtDsXXuQCLl9dSd2xAWsnmVe15oQSTDLfVmuat2H7uErJrG3F55xb0x611eQ36OAYAcgm90YDMvduQsDFPlRXSj2L38L0Alk0HxG/IwdrcNLRUXEX7xRtOb6G8EvfOech4bMviok0PGzs82NCO+rfPKXany5K1OWnIObQL/mHyzH3wJGFjd3DojRPoSk5A1fYiTGpwsamSGADIpfxCg7DxucNI2tKHOhXukX4QLZwBuJfB5IPsAzuQsCkP9W9XYrChTZG6dusC6k9UouvqbeQe2oU1WY+e86C2qaFRRfe6WBIcHYncwyWITIlTtK4nSOzoRlx3H+oKcnBzUyFsRvc+K+KpGABIFhFJsdj1ledV2SXtfrx5DcDDBISHYPPnnsBIWw9qj1dgakiZEcAzo+OoevVNmNMSkHu4ZHGokZuxzc2j8d3L6Lpao8hul0t8/P2QtW8bEjblcZzvQ+gdDhTcuI30plZUb92I5izOPXA1BgCSjU6nQ8KmPKzNS0fL2SpF90n/KLtVI5cAHiAyNR4lL30OXVdr0PjuZdjm5hWpa2ldGjucj8y922D0c35HR1eRRPHuvAvlXgfg7jbbWwqQsXfrqna21Bq/2TnsOnP+/fUBQ9Hes9hUbQwAJDujrwk5j+/6YOywApPSPkqrZwDupRN0SNpSiNiCLDSdvoTOqtuKbCssiSI6Li/NediGxM35qn3yVXri5ZKo9ETkHi5BoJnje50VOTyCJ147hrb0FFzdtgkzge6zN4KnYgAgxQREhqHo157CcEsX6o5XYNpyR7HaWlsD8DBGPxPyntiNxKIC1B2vkHXU8L0WZudx+8330FlVg7zDJYhMVW4nuJnR8cW1EI3titUEFn/mcw/twprMZEXrerPUlnYkdnSjZkM+atblw+EGuyN6KgYAUlxUeiLMX30RHVdq0Hz6siLT+jx9IqAcgqLCsfULz2CwsX1xzsPouCJ1p4ZGcel7ryE6O3VxzkO483MeHsVuXUDz2Sp0XLwJ0SH/3RBLjL4mZDxWhKSt6yDoue+9qxnsdmyouoGM+mZc3b4Z7WkMWM5gACBV6AQBKdvWIa4wE43vXkJ3da2sC7F4BuDBorNSEJWeiI6LN9F8tkqx12qwoQ3DLZ1I2b5+ceywC+9/lyQJPdfr0XjqomL7IQCL617iN+Yie/92+ARw8p3cAqdn8Ng7Z5F9uwGXd27h2OEVYgAgVfn4+6HgqT1IKirA9Z+9Ldu1WTvXADyUoNcjdddGxK3PRuOpi+i5Xg9Jkn9lvGh3oPVcNXrvjh2OX5+z6mOOdfUvjuntH3ZBh8sXkRSLvCMlCF5rVrQuAdEDQ3j6F3fHDm/diDk/X7Vb8ggMAKS6ycERNJ25jCmLfAuz9D78UV8OU6A/Cp/Z9/6ch7Eu1+z7/ijzUzO4+dopdF6pWVVYq/nVacXWNCzxCw1CzuO7EJPH29TUxLHDK8ffiqSaqeFRNJ+5gv66Ftn3WzcFeO72tGoIiYnCjt/6DPpqmtFw8jzmJpQZO7zaOQZKvvnrjQakFW9G2i73GNNLizh2ePkYAEhxosOBumPn0HX1tiKnmQEgMoW/BJwRW5CB6OwUtFVeQ2ulcmOH3ZoOiC3IQs7BHfANDlS7G3qAj44d7lK7ITfEAECKmp+aQfWP3sKdnkHFahp8jIgtzFSsnrfRGw3I2LMF8Rtz0HDyPPpqmtVuSTWhsWsWx/QmcFiNp1gaOxwbn4DjcUmYM3Bb4SUMAKQYSRRx+XuvKb4JS86hYhg4a3zV/EKCsOHZQ0jaUqjKIjs1+QYFfLBIUeO79+qUnI/sIoIoYmtXJwr6+3AyKRWX18ZB5NhhBgBSTtfVWsXf/JO2FCBxc56iNb1deGIMdv3OZ1W5zU5pgkEvy22KpA5/mw3PtDRiW38v3kjNREuY+82oUBIDAClCdDjQdPqyYvWMvibkP7kbsYVZitXUEp1Oh4SNuYjJS1dlox0lKLFREakjemYaX665htrIKLyVkoFRP23u2cAAQIqYuzOJhdk52esYfIxI3rYOqTs3wMh7gWVnMPkg5+BOJC6NHVZ4q105BK2JUHyrYlJH3sgwssZGUBmbgNOJybDqtfWWqK0/Lalm5s6krMfX+xiRvLUQqTs3wsefb/xKC4gIxeYXn1Rt2I4r+Pj7qj6siJRnEEU81tOJTUP9OJ6cjmvRMR64ysE5DACkCLnGruqNBiRtKUDark3cetUNmNMSUPLy51QZt+ssnSAgaUsBMvdsdYtxxaSOoIUFPNdUhx39PfhVWiY6g0PVbkl2DACkiPCEGJceT280IHFzPtKKN8EUyE1+3IlOEJC8tfDunIfL6LpaI+uch9UwpyUg93AJgqK0vRiMPhA3NYmXblzFjahoHEtJx4TJe88oMgCQIvxCgxAYGYbpkdWNABYMeiRtzkdayWa+8bs5o58v8p/cjaSifNQdPwdLm7Jb9D5MQETo4pjerBS1WyE3tX54EHkjFryXkISz8UmweeG2wgwApJilQTPOEAx6JG7KQ1rJZvgGBbi4M5JT0JoIbP3iMxhsaEf92+cwMzahWi8Gkw8yHtuC5G2FEPTcvpcezig6cKCzDUUDfXgrNQO3zGvUbsmlGABIMWm7NmGooR13epe/C6Cg1yNhYy7Sd2/mtqseLjo7BVEZiWi/cAMtFVcVHdGs0+kQvyEHWQe2cy4ErViodR4v1tdgR0gYfpWWib7AILVbcgkGAFKMTtBh84tPovonxzHW2ffQxwp6AfEbcpBeUgS/UO/4y0aLgS6teBPiN+Sg4Z0L6LlRL/sgqPDEGOQdKUFITJS8hcjrJU/cwe9du4KqtTE4kZyGaaNn7zCq++tbw+65Ooe8liSKaL9wA+2XbmJ+cvpD3wuICIU5LRGpOzfAPyxYpQ5JKeN9Q6g7VoGx7gGXH9svNAg5B3ciJj/D5cfWss//56swLtjUbkN183oD3k1Mwfm4eDh0AgRBkP7ruUKPWijAAECqkUQR4/3DmB2dgE4QEJ4Uw+v7GtV3qwn1J89/LBA6Y3FM7yak7twIvZEnOV2NAeDDRvz88UZqBprMaxgAiIic4bDZ0XquGm3nrzk9dji2IBPZB3fAL4SXjeTCAHB/zeERyBgbzTWXH61Xu5flYgAgIrcyNz6F+pOV6L/dsuznhMREIe9ICcITXbvfBH3c5//jVRhtDAAPYAfwXQD/y1x+dHX3PCuAAYCI3NJYZ9/i2OEBywMfYwr0R/aBHRzTqyAGgGUZBfCnAP7NXH7UbadkMQAQkduSJAmWli50Xb2NiX4L5ienYfTzRaA5DPHrsxFbmMXr/ApjAFiRWgC/by4/elrtRu6HAYCIPIcEftJXGQOAU34J4Ovm8qNuNS7To1YsEpHG8c2fPNMnANRbSsv+2lJa5jYrVBkAiIiI5GcC8EcAmi2lZV+wlJapHmcZAIiIiJQTDeB7AKospWXb1WyEAYCIiEh5mwBcsJSW/dBSWhanRgMMAEREROp5AUCTpbTsTy2lZX5KFmYAICIiUpc/gD8H0GgpLXtWqaIMAERERO4hAcBPLaVl5yylZevlLsYAQERE5F52Aai2lJb9h6W0TLY51gwARERE7kcA8JsAWiylZd+wlJb5yFGAiIiI3FMwgL8BUGspLXvClQdmACAiInJ/6QDetJSWnbSUlmW74oAMAERERJ7jAIAaS2nZP1pKy8JWcyAGACIiIs9iAPC7WFwf8BVLaZnemYMwABAREXmmCAD/AuCGpbRsz0qfzABARETk2fIBnLaUlr1uKS1LWe6TGACIiIi8w71jhwMf9WAGACIiIu+xNHa4xVJa9uLDHsgAQERE5H2iAfzAUlr2jQc9gAGAiIjIe/2NpbTs+ft9gwGAiIjIuz13vy8yABAREXm3nff7IgMAERGRd+u63xcZAIiIiLzbe/f7IgMAEREtmw6S2i3QytwA8M37fYMBgIiIyDtVAthnLj86dr9vMgAQERF5lz4ALwIoedCbP7A4UYiIiIg83zyAvwXwLXP50ZlHPZgBgIiIyPP9HMAfmMuP3nfF//0wABAREXmumwB+z1x+9NxKn8g1AERERJ5nGMCXAWx05s0f4BkAIiIiT2ID8E8A/sJcfnRiNQdiACAiIvIMbwH4urn8aLMrDsYAQERE5N4aAHzNXH70pCsPyjUARERE7ukOgN8DUODqN3+AZwCIiIjcjQPAvwP4E3P50VG5ijAAEBERuY8zAH7fXH70ttyFGACIiIjU1w7gG+byo68rVZABgIiIlo/DAF1tGsBfAfh7c/lRq5KFGQCIiIjU8SoWt+8dVKM4AwAREZGyJAB/aC4/+jdqNsHbAImIiJT1mtpv/gADABERkdL+Vu0GAAYAIiIipbWr3QDAAEBERKQ0P7UbABgAiIiIlPZptRsAGACIiIiU9lVLaZnqZwEYAIiIiJSVCOAbajfBAEBERKS8P7KUlsWp2QADABERkfL8Afx/ajbAAEBERKSOFyylZdvUKs4AQEREpJ5/tJSW6dQozABARETLpuM4QFfbDODX1SjMAEBERKSuv7aUlgUqXZQBgIiISF3RAP5Y6aIMAEREROr7mqW0LEXJggwARERE6jMB+LaSBRkAiIiI3MMnLKVle5UqxgBARETkPv7BUlqmV6IQAwAREZH7yAPw20oUYgAgIiJyL//bUloWJncRBgAiIiL3EgHgf8ldhAGAiIjI/XzFUlqWI2cBBgAiIiL3YwDw97IWKAhmBiAiouVRZWqNdh2wlJY9aS4/+qYcB9dV9Y1ysgMRES1L4jf/Gzq7Xe02tKQFQJ65/OiCqw/Mj/9ERLQC/MyosHQAvyvHgRkAiIiI3NufWErLolx9UAYAIiIi9xYM4JuuPigDABEReYS5lFiMfKIEA196CsOfPYDZ7GS1W1LSFy2lZRtceUCDKw9GRETkagtrwjF2cBvmk9Z+6OuzGQnwb+xC1M/fBSSvX5sgAPgHAMWuPCAREZHbcfj7YvTITvR/+ZmPvfkvmc1KxJ29mxXuTDW7LKVlz7nqYAwARETkViRBwOTWPPR99VlMbcwCdA/ffWByax5skaEKdae6MktpmZ8rDsQAQEREbmMuPR79v/MpjB3YCtHks6znSIKAsYNbZe7MbSQA+ANXHIgBgIiIVGeLDMXQCwcx9PxB2CJCVvz8udQ4zGYkyNCZW/pDS2lZ3GoPwkWARESkGtHXB+MlGzC1OQeSsLrPpHcObIFfWy90DtFF3bktfwBlAF5YzUF4BoCIiJSn02FqYxb6Xn4Wk1vyVv3mDwC28BBMFuW6oDmP8LyltGz7ag7AAEBERIqaT1qL/i8/g9EjO+Hw93XpsSeKN8AR4JI1cp7gHy2lZU7PZ2IAICIiRdhDgzD8mX0Y/PwRLKwJl6WGaDLizp5NshzbDW0C8AVnn8wAQEREspKMBtzZswl9L30as9lJstebXpeBhbWRstdxE9+0lJYFOfNEBgAiIlq2ld5vP12Qjt6Xn8XEznWQ9HqZuvoInU5LtwVGA/hjZ57IAEBERMs2l7q8u8+scVEY+I2nMfKJEjiC/GXu6uPmE6Ixk5uqeF2VfM1SWrbiPywDABERLdv0+oyHLrJzBAVg5JndGPjSU7DGmhXs7OPu7C+CZNDE3e4+AL690icxABAR0bLZwkMw+PkjsAcHfOjroo8R47vWo/flz2A6P02l7j7MHhyAiR0FarehlKctpWX7VvIEXVXfqNePUCIiIheTJJgGRmDqHcZCdASscVEuuZff1XR2O2K/83MYJmfUbkUJtQDWmcuPOpbzYPf7r0VERO5Pp4M1xozJolzMJ0S75Zs/AEgGA+7sL1K7DaXkAShd7oPd878YERGRi8zkpmLcLM++A27of1tKy5b1h2UAICIir9e0MR/SI8YKe4lwAH++nAcyABARkdebCg9Bd0Ks2m0opdRSWpbzqAcxABARkSY05GbAro3bAg0A/uFRD2IAICIiTbCafNCUpZnNgfZbSsueetgDGACIiEgz2lMTMROo/M6EKvm2pbTM50HfZAAgIiLNEAUBtflZarehlDQAv/egbzIAEBGRpgxGR2E4SjPTAl+xlJatud83GACIiEhzaguytHJbYDCAb97vGwwARESkOVNBgehISVC7DaV8wVJatvGjX2QAICIiTWrMTsOCj1HtNpQg4D63BTIAEBGRJtmMRjTmpKvdhlJ2WkrLPnvvFxgAiIhIszqT4jEZHKR2G0ops5SW+S39CwMAERFplqTT4XaBZm4LjAdwdOlfGACIiEjTRswRGIi5751y3ugPLaVl8QADABEREeryMiEKmnhL9ANQBgC6i72jokEHTdwMSURE2tTYNADrguOhj8mpa0Z6c7tCHaluu2ATsaB2F0RERHKy2cVHPqY5MxXzviYFunELvyPYJGlG7S6IiIjk4hBFiKL0yMfZDXrU52Yo0JFbOCTYJUyo3QUREZFcbI849X+vnoRY3AkLkbEbt7Eg2ERo5oIHERFpz7zVvqLH3y7IlqkTt1ItWEWUq90FERGRXKam5lb0+DvhoeiJj5GpG7fgAPAXwqdSI34xL8KmdjdERESuJknA5JR1xc+rz8uEQ6+XoSPVzQB42lx+tFoAgCm7VKNyQ0RERC43M2uF3b78NQBL5n1NaM5MkaEjVf0PgDxz+dFjAGAAgDkH/hnAf6vYFBERkctNTMw6/dzWtGQkdvbCf3ZllxDcUA2A3zOXHz177xcFAPhUasT3x23SoBpdERERyWFhwY6xMecDgKgXUJfv0XMCRgCUAtjw0Td/4O4ZAACYsOM3Qow4xi0BiYjIGwwOT0GUHn3//8P0x6zBSGQ4IkfGXNSVIuwAvgPgz83lR8cf9CCddM+Lc6JztC7CR5ejQHNERESymZtbQHPrsEuOFTwxhd3vXYRulWFCIScAfM1cfrTxUQ803PsvU3Z8KtCAWpMAr1z6SERE3k+SJPT2P/CD74pNhgShKykOSR09LjumDJoB/D9LC/yW40Ojjz6TFtE4ZJW+sIwdE4mIiNxSb98dzM66dsxNQ046bEajS4/pIhMAvoF7Vvcv14cuASz5ZfvoP8X66r7qouaIiIgUYRmZRv+A6z793yu1tRN5tx95Zl0pIoD/AvDH5vKjTl3ruG8AAIC3OkZPrTHp9q2iOSIiIsVMTs6jo3t0cfcfGegFYM+p8wv+k9M+shRYvkos3tZ3YzUHER70jSeSI/b3z0v/yssBRETk7iyWKXR2j8j35q8XYAsKfM9/cvppWQosTzeA58zlR4tX++YPPCQAAMDTKRFf6Z2XvrQgYuXbKBEREclMkoDu3jvoH5yQ670feoMeVn+/v/ny1pQ95vKjJwCs6Fq7C8wC+DMAWebyoz9z1UEfeAngXj9vG10XbMBr4UZdsqsKExERrcbMjBV9AxOYm3Ptgr8lgqCDIcBvfkJvePyrW5Iqlr5uKS3LAFALQIlVgT8GcNRcfrTX1QdeVgBY8j9to8+HGvHPwQZdhKsbISIiWg7rvA39g5OYXOGUv+XS6XQwBfg6pvTGV35na9K37vcYS2nZ3wL4uiwNLLqGxev8F+QqsKIAsOS1ttGv++vx5SCDLs1HePhlBCIiotUSRQlTU/MYn5zD+MScLNf6dYIAvcm4MG/0+UHptuTffNhjLaVlIVi89z7KxW0MAfh/Afy3ufyorKvwnAoAS37WOmow6PBFkx5f9NEhxSjogow6+BoFCNxSmIiInOFwiFiwOWC3OWBdcGBqag7T09ZVb+t7Lx10EAw6CAa9KOr10zbofuU7If32549kLPu0gqW07LcA/LuLWloA8A8A/tJcfnTKRcd8qFUFgAf5Weuovw5Iwkd2GiTyNH/+a3901mZdCFG7D3dg8vMb+pPv/9XjavdB3u3O+HS0wyoGy3V8SZAWBKvjxlBFet+f/RnE1RzLUlomAKgGsH6Vbb0B4Ovm8qOtqzzOisgSAIi8wbril/1nJydm+HdkkU4QpOYb/5eX/IjuYSkt2wXgnJNPrwfw++byo6dc2NKy8S8z0QNIkvgZvvl/QBJFXeGul/ar3QeROzGXH60EsNJb8+4A+F0AhWq9+QM8RU/0QKJDPKJ2D+5GEh2fBKDaLywiN/UYn5SsAAAOBklEQVQHAJ4E4PeIxzkA/BuAPzWXHx2VvatH4BkAogcQHfbNavfgbkSHY4faPRC5G3P50W48+pbA0wDWmcuPvuQOb/4AAwDRAzns9li1e3A3Drs9Re0eiNyRufzovwL4YwAzH/lWC4BnzOVH95nLj9Yq39mDcREg0X2sK34pfWZiolntPtyOToeA4JCwm+e+I8+4NSIPZyktiwCwD0AYgOvm8qNVKrf0QFwDQHQfoii+oHYPbkmSIEnic1i8jklEH3H39P5P1e5jOXgJgOg+RIe4R+0e3JXocBxSuwciWj0GAKL7EB32XLV7cFeiw7FB7R6IaPUYAIg+Yl3xy4LdZgtXuw93ZbfZ1qrdAxGtHgMA0UdIkvS4JIocZ/EAosNhKCx+qUDtPohodRgAiD5CFB3PqN2Du5NE8bNq90BEq8MAQPQRosOxTe0e3J3ocOxWuwciWh0GAKKPELnZzSM57I4stXsgotVhACC6x7rilyPtNtuj9vPWPIfdFrqu+GXuI0LkwRgAiO4hieJzavfgCSRR1EmS+JTafRCR8xgAiO4hio7H1e7BU4ii+LTaPRCR8xgAiO7hcDjWq92DpxAdji1q90BEzmMAILqHw2aLVrsHT+Gw2xPV7oGInMcAQHTXuuKXNogOh17tPjyFw2bzXVf8MncFJPJQXMVLdJdOEA4YfX3VbsOj6AThMID/o3YfRLRyDABEd/kHh4T7B4eo3YanWaN2A0TkHF4CIPoAF7WtHF8zIg/FAEAEYMdTr+gBbFK7Dw/EAEDkoRgAiBblA/BXuwkPtGbHU68kqd0EEa0cAwDRIn6SdR5fOyIPxABAtGir2g14ML52RB6IAYBoET/FOo+vHZEH0kmSpHYPRKra8dQrIQDuANCp3YuHsgIIvvDGXy6o3QgRLR/PABABReCb/2qYABSq3QQRrQwDABFPYbsCX0MiD8MAQMRFbK7A15DIwzAAEPHTqyvwNSTyMAwApGk7nnolFUCk2n14gbQdT70SoXYTRLR8DACkdfzk6jp8LYk8CAMAaR2vXbsOX0siD8IAQFrHT62uw9eSyINwIyDSrB1PvWICMAnAR+1evMQ4gPALb/wlf6kQeQCeASAtWw+++btSKIBMtZsgouVhACAt4ylr1+NrSuQhGABIy7hozfX4mhJ5CAYA0jJ+WnU9vqZEHoKLAEmTdjz1ShSAIbX78EJ2ACEX3vjLWbUbIaKH4xkA0ip+UpWHAcBGtZsgokdjACCt4rVq+fC1JfIABrUbIFKJImcA/AN8ERwcAB+TET4+Rvj4GOBjMsJkMiIg0B9+AX7w9fOFj8kHBr0eOr0AQRAgCDrodAJ0Oh10usVjSQAgiRBFCaIoQnSIcDhEOOx22O0O2G122Gx22Gw2WK122KwLsFoXYLXaMDczj1HLOMbHp5T4Y/PsCpEHYAAgzdnx1CsCgM2rPY4g6BAcEojwiGCEhQcjLDzow/8cHgwfk3HZx7PbRdhsDizY7LDZHHf/+e7/L9hhtzkA6ADooBME6AVAv/zDv9+zoAMcDhELVitmpmcxMT6NMcs4BgdGMDw4BlEUV3bQj2MAIPIAXARImrPjqVdyAdQu57GhYUGIXhvxsTf3sIhghIYGQhCUu4pmt4uYm1vA7NwCZv//9u4vRq6qgOP4b+bemTt/d9oi4U8o3aVEKwbClpZCQnjRiBp3acF/QRQT4cXog8RESBBQ0EQfUFQSTeRBfNOoiG+SmBiVRC8R4gP+iaXbbrm03Z27s/N35+/1YZZCym63u92dM7Pn+0nmZR9mfk97fvece86pt1RvtNXpdDf1N2KxmJx4TFHUU7vVVr3WUKVc00JxUTNHA50+NX+hX3XVX1948o1NDQdgUzEDABut+ISaH8to957LdfWey/qf8cuVy2cGnW1VrhtXPp9SPp86+7d2u3u2EPTLQVvd7saf4KMoUqfbfyiIuwnlCgnlCmO6YvcVuu7GfXKcuHrdjsqlit44cUr/eW1GYXFxpa86JOk3Gw4CYMtRAGCjWzLZlHZf3R/kdy8P+Dt25k3nWrdEwlEhkVZhLH32b81mR7V6U+XykirVJfV6mzfL1y8XceV3FLRvR0H7bnifXCeuTrutUriokydO6d+vzaiyWL1FFABgqLEEgG3PD8Kc+lvTDkg6uBBWjuzclbfiDoAoilSpNlUuN1SuLKnd3twlg9W4bjxKpRLHE67zquPGX3Ti8V9OTY5f8PoBgK1HAcC25AfhtZI+vvy5XdI6X5fbnuqNlsrlJZXLDTWW2gP73VgspnQ6Me957h8TrvP09P6Jlwb24wBWRAHAtuAHoSvpNr096HMr3Rpa7a7K5YYWFxuq1poD/W3Pc5dSXuLVRNL5uROP/2xqcrwz0AAAKAAYXX4Q7pL0UfUH/I+ofx0tNmCp2VaxWNNCqX5RLxFuhOPEo3Q6MeMl3d+5rvPU1OT47EADAJaiAGCk+EH4Ab39lH+rJMdsou2l14u0UKqrWKwOdIngLbGYlE4lFzzP/XMi4TwzvX/iDwMPAViCAoCh5wfhhKQvSrpH0oThONao1VsqFqsqLTZk6v9EMum2MunEX5JJ96Hp/RO+kRDANkUBwFDygzAp6U5JD0j6kPpH4MGATqencKGmYlhTq2VmqT4WkzLp5JlUKvGs6zrfmpocXzISBNhGKAAYKn4Q7pN0v6TPS7rUcBy8QxRJC6WaTp8uqzWg7YQrcV2nl80k/+Z57sPT+yf+ZCwIMOIoADDOD8K0pE+q/7R/m+E4WEMURSqGNZ0+U1anM9gXBs+VSSfDdDrxC9d1Hp2aHC8bDQOMGAoAjPGD8Eb1n/Y/K97gHzm9XqS5+Yrm5qsD3zlwLseJR9ms94qXdB+/86aJ3xsNA4wICgAGanm//uckfUn9k/kw4rrdns7MVTRfrG7qscMblU4lyplM8jnXdb7K+QLA6igAGAg/CB1J90r6hqS9huNgC7Q7XZ05U1ExrBnbNfBOXtJt5nLeT1zXeXBqctzsFAUwhCgA2FJ+EMYlfUbSY5LeazgOBqDZ7Gj2ZKhavWU6iqT+qYO5rPcj13UeoggAb6MAYEv4QRhT/8W+xyRdZzgODJibr+rU6cWhWBaQJM9zG7ms99SRg3sfMZ0FGAYUAGyq5YH/sKRvSrrecBwY1mx1NHtyQbUB3zVwPqlUopbLet89fOCaJ0xnAUyiAGDT+EE4pf7AP2k6C4bLfLGqN08Nz2yAJKVTiUo26z15+MA13zOdBTCBAoCL5gfhHZKekHTQdBYMr9bybMCgbx5cSzqdWMxmvEcPH7jmh6azAINEAcCG+UF4maQfS/qE6SwYHcViVcGQzQZIUj6XOprJJO6Ympw4ajoLMAgUAGyIH4T3Sfq+pJ2ms2D0NJsdHTs+r2ZzuLbpu268VxhLP33k4N4HTWcBthoFAOviB+G4pJ9K+rDhKBhx3W5Px2dDVSrDd69PNuu9mc0kPza9f+JV01mArUIBwAVZ3s//ZUnfkZQ1HAfbRBRJb54qaW6+ajrKuzhOPCqMpZ+76+a9XzCdBdgKFACsyQ/C90t6VtKtprNgewoXajr5RmkoThA8VyadXMjlvCPcPIjthgKAVflBmJD0dUmPSPIMx8E2V6s1NXOiaPyGwZXE4zEVxtIvJJPu3dwvgO2CAoAV+UF4QP2n/htMZ4E9Wu2uZmbm1Vhqm46yolQqUcvnUvfeedPE86azABeLAoB38YPwK5KekuSazgL79HqRjs+GKpcbpqOsKBaLaeeOzLN33bz3ftNZgItBAcBZy1P+z0h6wHQW2C2KIh0/EWpxSEuAJBXG0i+nUolbWRLAqKIAQJLkB+F7JP1a0u2mswBSvwTMHC+qPITbBN+SySTn8rnUTVOT47OmswDrFTcdAOb5QXi9JF8M/hgisVhM43suUT6XMh1lVfV669KFUv1/L/zj2AdNZwHWiwJgOT8IpyW9JGnccBTgXd4qAbns8G5CabU6yWJYe/H5l1//mukswHqwBGAxPwgflvRtSTHTWYDz6fUivT4zP1TXCp8rFpN2FDK/uvvQtZ8ynQW4EBQAC/lBmFJ/i989prMAF6rXi3T02Jzq9ZbpKOeVz6f+lUknD0xNjtdNZwHOhwJgGT8Ir5T0vLi6FyOo2+3p6LF5NRrDXQLS6WRpLO8dmpqc+K/pLMBqeAfAIn4QxtR/05/BHyPJceLas3uX6RhrajRaOyrV5kumcwDnQwGwyz2SbjEdArgYnueqMJY2HWNN9Xrrkt++/PrjpnMAq6EA2IU1f2wL+fzwbg18p2azfZ/pDMBqKAB2mTMdANgMnU7XdIQLEo/HSqYzAKuhANjln6YDAJuh2RqN03ddx3nFdAZgNRQAuzwtiTvNMdIajbZKpeHfYZfNJE8nEg4XBmFoUQAscvDKXV1Jn5b0A0nHDMcB1iWKIi2WGzoxG2qYdy8nk267MJb+ey6XOjQ1Od4znQdYDecAWMwPwqvElb8YEaXFRr7RaBVM51hDbXr/BNP+GAkUAAAALMQSAAAAFqIAAABgIQoAAAAWogAAAGAhCgAAABaiAAAAYCEKAAAAFqIAAABgIQoAAAAWogAAAGAhCgAAABaiAAAAYCEKAAAAFqIAAABgIQoAAAAWogAAAGAhCgAAABaiAAAAYCEKAAAAFqIAAABgIQoAAAAWogAAAGAhCgAAABaiAAAAYCEKAAAAFqIAAABgIQoAAAAWogAAAGAhCgAAABaiAAAAYCEKAAAAFqIAAABgIQoAAAAWogAAAGAhCgAAABaiAAAAYCEKAAAAFqIAAABgof8DlxJfPDVNIeUAAAAASUVORK5CYII=;rounded=1;fillColor=#5D7F99;strokeColor=#D0CEE2;fontColor=#1A1A1A;" vertex="1" parent="1">
          <mxGeometry x="27.5" y="318.5" width="130" height="130" as="geometry" />
        </mxCell>
        <mxCell id="gFBRsMoK_zdnoC3hOrfU-8" value="Cloud Storage" style="text;html=1;align=center;verticalAlign=middle;resizable=0;points=[];autosize=1;strokeColor=none;fillColor=none;labelBackgroundColor=none;rounded=1;fontColor=#1A1A1A;fontSize=20;" vertex="1" parent="1">
          <mxGeometry x="534.0000000000001" y="710" width="150" height="40" as="geometry" />
        </mxCell>
        <mxCell id="gFBRsMoK_zdnoC3hOrfU-12" value="" style="shadow=0;dashed=0;html=1;strokeColor=#006EAF;labelPosition=center;verticalLabelPosition=bottom;verticalAlign=top;align=center;outlineConnect=0;shape=mxgraph.veeam.vm_checked;labelBackgroundColor=none;rounded=1;fillColor=#1ba1e2;fontColor=#ffffff;" vertex="1" parent="1">
          <mxGeometry x="390" y="357.5" width="54" height="52" as="geometry" />
        </mxCell>
        <mxCell id="gFBRsMoK_zdnoC3hOrfU-15" value="" style="edgeStyle=orthogonalEdgeStyle;html=1;endArrow=open;elbow=vertical;startArrow=open;startFill=0;endFill=0;rounded=1;fontColor=default;exitX=1;exitY=0.5;exitDx=0;exitDy=0;labelBackgroundColor=none;strokeColor=#736CA8;sketch=1;curveFitting=1;jiggle=2;" edge="1" parent="1" source="gFBRsMoK_zdnoC3hOrfU-4" target="gFBRsMoK_zdnoC3hOrfU-12">
          <mxGeometry width="100" relative="1" as="geometry">
            <mxPoint x="140" y="430" as="sourcePoint" />
            <mxPoint x="240" y="430" as="targetPoint" />
          </mxGeometry>
        </mxCell>
        <mxCell id="gFBRsMoK_zdnoC3hOrfU-28" value="" style="rounded=1;whiteSpace=wrap;html=1;sketch=1;curveFitting=1;jiggle=2;" vertex="1" parent="1">
          <mxGeometry x="624" y="517" width="150" height="110" as="geometry" />
        </mxCell>
        <mxCell id="gFBRsMoK_zdnoC3hOrfU-22" value="Hardware" style="text;html=1;align=center;verticalAlign=middle;resizable=0;points=[];autosize=1;strokeColor=none;fillColor=none;fontColor=#1A1A1A;rounded=1;" vertex="1" parent="1">
          <mxGeometry x="534" y="557" width="80" height="30" as="geometry" />
        </mxCell>
        <mxCell id="gFBRsMoK_zdnoC3hOrfU-27" value="IaaS" style="text;html=1;align=center;verticalAlign=middle;resizable=0;points=[];autosize=1;strokeColor=none;fillColor=none;fontColor=#1A1A1A;rounded=1;" vertex="1" parent="1">
          <mxGeometry x="544" y="432" width="50" height="30" as="geometry" />
        </mxCell>
        <mxCell id="gFBRsMoK_zdnoC3hOrfU-30" value="" style="rounded=1;whiteSpace=wrap;html=1;sketch=1;curveFitting=1;jiggle=2;" vertex="1" parent="1">
          <mxGeometry x="624" y="392" width="150" height="110" as="geometry" />
        </mxCell>
        <mxCell id="gFBRsMoK_zdnoC3hOrfU-32" value="" style="shape=image;verticalLabelPosition=bottom;labelBackgroundColor=default;verticalAlign=top;aspect=fixed;imageAspect=0;image=data:image/jpeg,/9j/4AAQSkZJRgABAQAAAQABAAD/4gKgSUNDX1BST0ZJTEUAAQEAAAKQbGNtcwQwAABtbnRyUkdCIFhZWiAH4AAMABMAFgA2ABBhY3NwQVBQTAAAAAAAAAAAAAAAAAAAAAAAAAAAAAAAAAAA9tYAAQAAAADTLWxjbXMAAAAAAAAAAAAAAAAAAAAAAAAAAAAAAAAAAAAAAAAAAAAAAAAAAAAAAAAAAAAAAAtkZXNjAAABCAAAADhjcHJ0AAABQAAAAE53dHB0AAABkAAAABRjaGFkAAABpAAAACxyWFlaAAAB0AAAABRiWFlaAAAB5AAAABRnWFlaAAAB+AAAABRyVFJDAAACDAAAACBnVFJDAAACLAAAACBiVFJDAAACTAAAACBjaHJtAAACbAAAACRtbHVjAAAAAAAAAAEAAAAMZW5VUwAAABwAAAAcAHMAUgBHAEIAIABiAHUAaQBsAHQALQBpAG4AAG1sdWMAAAAAAAAAAQAAAAxlblVTAAAAMgAAABwATgBvACAAYwBvAHAAeQByAGkAZwBoAHQALAAgAHUAcwBlACAAZgByAGUAZQBsAHkAAAAAWFlaIAAAAAAAAPbWAAEAAAAA0y1zZjMyAAAAAAABDEoAAAXj///zKgAAB5sAAP2H///7ov///aMAAAPYAADAlFhZWiAAAAAAAABvlAAAOO4AAAOQWFlaIAAAAAAAACSdAAAPgwAAtr5YWVogAAAAAAAAYqUAALeQAAAY3nBhcmEAAAAAAAMAAAACZmYAAPKnAAANWQAAE9AAAApbcGFyYQAAAAAAAwAAAAJmZgAA8qcAAA1ZAAAT0AAACltwYXJhAAAAAAADAAAAAmZmAADypwAADVkAABPQAAAKW2Nocm0AAAAAAAMAAAAAo9cAAFR7AABMzQAAmZoAACZmAAAPXP/bAEMABQMEBAQDBQQEBAUFBQYHDAgHBwcHDwsLCQwRDxISEQ8RERMWHBcTFBoVEREYIRgaHR0fHx8TFyIkIh4kHB4fHv/bAEMBBQUFBwYHDggIDh4UERQeHh4eHh4eHh4eHh4eHh4eHh4eHh4eHh4eHh4eHh4eHh4eHh4eHh4eHh4eHh4eHh4eHv/CABEIAZABkAMBIgACEQEDEQH/xAAbAAEBAQEBAQEBAAAAAAAAAAAABwYFBAIDCP/EABoBAQACAwEAAAAAAAAAAAAAAAAEBgECAwX/2gAMAwEAAhADEAAAAbKAAAAAAAAAAAAAAAAAAAAAAAAAAAAAAAAAAAAAAAAAAAAAAAAAAAAAAAAAAAAAAAAAAAAAAAAAAAAAAAAAAAAAAAAAAAAAAAAAAAAAAAAAAAAAAAAAAAAAAAAAAAAAAAAAA/OTc51K8sWcfftKLMZtKLC0osLSiwtKLC0osLSiwtKLC0osLSiwtKLC0+2Es4/oZL6h3robxAAAAAAAAAMHNdhj4V7Dn6QAAAAAAAAAAACtyTfdfJpAmUgAAAAAAAACUZDX5CDfw0nAAAAAAAAAAAAN7gt7082kibRAAAAAAAAAJRkNfkIN/DScANHnjnFT+unmypVTEqVUSpVRKlVEqVUSpVfzZlzt8Tn6gY6AN7gt7082kibRAAAAAAAAAJRkNvlYV88T2tJvie0eW+xO5SK0EitgAAAAAcuG36HRbR4ntcbD4ntHi3uP2+/nUITaOAAAAAAAAAcvya9++4Bt33AHfcLu55BnmAAAAAAfPCx177gMdO+4A77ge5r0RtwAAAAAAAAAlGQ1+Qg38NJwH73+AX+RVgk1sAAAAADzQK+wKLaQ4WQBvcFvenm0kTaIAAAAAAAABKMhr8hBv4aTgP3v8Av8irBJrYAAAAAHmgV9gUW0hwsgDe4Le9PNpIm0QAAAAAAAACUZDX5CDfw0nAfvf4Bf5FWCTWwAAAAAPNAr7AotpDhZAG9wW96ebSRNogAAAAAAAAGf52xaS8c2JvjmxGR1xmOG3EAAAAAD4yOxa98c2LHfHNiMd1u2aBvEAAAAAAAAAnub9+Qh3fQM+0maBnxprB/Pt/7137EivAAAAAAfhIKtCY1l0DPuPvaBnxoNdMd7vApImUsAAAAAAAACUZDX5CDfw0nANjjmY9h+o46+VY0cFjRwWNHBY0cFjRwWP4j5nTZk5esGOwDe4Le9PNpIm0QAAAAAAAACUZDX5CDfw0nAAAAAAAAAAAAN7gt7082kibRAAAAAAAAAJRkKJO4N8DT0QAAAAAAAAAAAG9wVV6eVsRNo4AAAAAAAAHnjds+efo/z2sXj4WGUqsxtKVWEpVYSlVhKVWEpVYSlVhKVWEpVYSlVhKVWEpVboZ1n9e+neth0ggAAAAAAAAAAAAAAAAAAAAAAAAAAAAAAAAAAAAAAAAAAAAAAAAAAAAAAAAAAAAAAAAAAAAAAAAAAAAAAAAAAAAAAAAAAAAAAAAAAAAAAAAAAAAAAAAAAAAAAAAAAAAAAAAf/xAApEAAABAUEAwACAwEAAAAAAAAABAUVAgMGFkABIDM1FDA0EhMhYJAR/9oACAEBAAEFAv8AACeoEpOrwmh4TQ8JoeE0PCaHhNDwmh4TQ8JoeE0PCaHhNDwmh4TQ8JoeE0PCaHhNDwmh4TQ8JoeE0PCaHhNBc6UMa40yOGXArLE43FlIq1MlR4tXGdYZWZTBnWen4lW9nmUdrr+3EqztMyjubEqztMyjubEqztMyjubEqztNySkzj2mlOE/+W6SFukhbpIW6SFukhbpIW6SFukhbpIW6SFukhbpIR04U1hVE2eQj3UdzYlWdptg0/KOTLhkyvcrSYZ6duo7mxKokT5il4hoeIaHiGh4hoeIaEgoa/f7zX8lvENDxDQ8Q0PENDxDQ8Q0KTkzZU7+jGlAmVmPKaHlNDymh5TQ8pohWE7XX3xa6QwvKaHlNDymh5TQ8poeU0FDpU3riVZ2m0v8AR7zfy7qO5sSrO02l/o95v5d1Hc2JVnabS/0e838u6jubEqztNpf6Peb+XdR3NiVZ2m0v9HvN/Luo7mxKs7TaX+j3m/l3UdzYigklzs+3SQt0kLdJC3SQt0kIKfJwx++ZDpHBbpIW6SFukhbpIW6SFukgmpsghF/RqhUThU+8qQeVIPKkHlSDypCSsKMU73mNdYZD0pB5Ug8qQeVIPKkHlSFNHjRubiVZ2m2Xr+MyCLSOD3KUzSUQ3UdzYlWdpuRlrUpBouJuuj2mh7TQ9poe00PaaHtND2mh7TQ9poe00PaaHtNES6naaLKtGe30dzYlWdpmUdzYlWdpmUdzYlWdpmUdzYlWdpmUdzYlXl9c2lC+ssjiGJME+SqJ04jMykZKmnY4IdIIcWKHSKGeiJ80W6RFukRbpEW6RFukRbpEW6RFukRbpEW6RFukRbpEW6RFukRbpEW6RFukRbpEW6RFukRbpEW6RFukRbpEF0dPk66fx/gB/8QAMREAAAQBCAoCAwEBAAAAAAAAAAECBAMFERUwUmGB8AYQEhYhNEFRcZEUMhMxM3Ai/9oACAEDAQE/Af8AAmTCI7VMn9dwWj0Gbioxu/AtHnAbvwLR5wG78C0ecBu/AtHnAbvwLR5wG78C0ecBu/AtHnAbvwLR5wG78C0ecBu/AtHnAbvwLR5wCtHoM3/KjDxlEaL2V1ckwyQ0TN1rpahEtqZ9quTeVR4rpW5NeetXJvKo8a40ZEFO3EOYhTjS8U41vFONbxTjW8U41vFONbxTjTufoQoqIqdtBzlrlbk1561cnREE1Rx6D8qO4/KjuNIIm1sER96jR+KRQ1kZj8qO4/KjuJViINouY8z1aWsdRTkg/Q+G4sH6MfDcWD9GIkGJD+5TVEODEifRJmPhuLB+jHw3Fg/RhTaMgp1IMi8Vcncqjxr0i+0PGo0d+q8NcrcmvPWrk3lUeNekX2h41Gjv1Xhrlbk1561cm8qjxr0i+0PGo0d+q8NcrcmvPWrQ/coTspXwFJOrZiknVsxGcRY/9DnqILqNA/mqYUk6tmKSdWzER84iJ2VL4VbBrAU2QZoL9dh8JvYL0PhN7BehL0BEI0bCZv3USE3hxELNaZx8JvYL0PhN7BehKjWChqtSUER+L6uTeVR41uG0NwjYiEKAbdzzgKAbdzzgKAbdzzgKAbdzzgKAbdzzgKAbdzzgKAbdzzgIEBEBGwguGuVuTXnrVybyqPFdK3Jrz1q5KWS2iJq6WYhJaKI+tWwlFbM+HEgmXmxlxnFOtbxTrW8U61vFOtbxTrW8U61vFOtbxTrW8U61vFOtbxTrW8Ll5sRcJzD5+t4udX6/wP8A/8QAIxEAAQMDBQEBAQEAAAAAAAAAAgABEwMwMhAREjFRIkFwIf/aAAgBAgEBPwH+BGbCp3U5KclOSnJTkpyU5KclOSnJTkp3QGxW6j/V6k/1bqZPepZW6mT6s2/ShJQkoSUJKElCShJO22tLK2bfTrZ1s6oN3Yrt/q2dbOqbfVvky5D6uQ+pnZ+rDuzLkPq5D6uTW6mT60P2xX71pZW6mT60P2xX71pZW6mT60P2xX71pZW+Auox8UY+JhZurDiz9qMfFGPiYBa2ZPyXMvVzL1UXd997FZ3Z1zL1cy9VMn5W6mT6sTj0piUxKYlMSmJTEpiTvv3rSyt1MnvUsrdTK9SytnT5KElCShJQkoSUJKElCShJQkoSUJKEkAMP8D//xAA2EAABAwAGCAUEAQQDAAAAAAABAAIDETI0QJGSBCAzcnOiseESEyExcSJBQlFSMGBhkCRigf/aAAgBAQAGPwL/AEAUSaTGD+qVam4FWpuBVqbgVam4FWpuBVqbgVam4FWpuBVqbgVam4FWpuBVqbgVam4FWpuBVqbgVam4FWpuBVqbgVam4FWpuBVqbgVam4FWpuBVqbgVRDpEbz+qbuXvNDWiklFkRMcH6Hu75vYh0txfEfZ5923aPRWmv9Tvi++W6tEfD/59rq3hDqb7pA+1DbqOEOpvukbouo4Q6m+6Rui6jhDqb7pG6LqOEOp1/Mp8uL+X7XrLOT8hbSfMFtJ8wW0nzBbSfMFtJ8wW0nzBbSfMFtJ8wW0nzBbSfMFtJ8wW0nzBfRNM0/5oK+v6oz7PGvpG6LqOEOp1g39mhNiYKGtFA/rzMcPxJHzr6Rui6h0cMjx5Y9Q35VmmyFWabIVZpshVmmyFWabIVH/x5aw/A3CQD+BVmmyFWabIVZpshVmmyFWabIVZpshU/mRPZS0VhR/Y/lzzhjqKaKCrU3Aq1NwKtTcCrU3Aq1NwKAGlNpP+DcC4+wVqbgVam4FWpuBVqbgVam4FWpuBTho8oeW+/pdRwh1OtHvi4S7h6a+kbouo4Q6nWj3xcJdw9NfSN0XUcIdTrR74uEu4emvpG6LqOEOp1o98XCXcPTX0jdF1HCHU60e+LhLuHpr6Rui6jhDqdaPfFwl3D019I3RdfOldIHeGj0KrzZlXmzKvNmVebMq82ZBwfN6Gn3uDmH2IoVebMq82ZV5syrzZlXmzKvNmT3Ql58fv4j/Y4jgl8LfLBoo+VaOUK0coVo5QrRyhWjlCYDpHoXD8RcJHD3DSrRyhWjlCtHKFaOUK0coVo5QphpEnjDQKPS6jhDqdZrv0aUHtNIIpH9ed5+zDr6Rui6jhDqdcQaQC+IexHu1bYj5YVt+Urb8pW35StvylbflK2/KVt+Urb8pW35StvylbflK2/KVtXO+GFeWwFkI+33OvpG6LqOEOpvukbouo4Q6m+6Rui6jhDqb7pG6Lq3hDqb7pG6LrFpI9h9Dr66Zw2rvT4uroZRSxwoK+oeKL8X3sPkBbAPc/y+EGtFAHsLt4XAEH7FbIxn/oaFXnzdlXnzdlXnzdlXnzdlXnzdlXnzdlXnzdlXnzdlXnzdlXnzdlXnzdlXnzdlXnzdlXnzdlXnzdlXnzdlXnzdlXnzdlXnzdlXnzdlXnzdlXnzdlXnzdlXnzdkCIfGR93mn/AEA//8QAKhAAAQIEBQQCAgMAAAAAAAAAAQDwEVFhwSExQNHxIEFxkVCBobEwYJD/2gAIAQEAAT8h/wAAPt/4fwmZZMyyZlkzLJmWTMsmZZMyyZlkzLJmWTMsmZZMyyZlkzLJmWTMsmZZMyyZlkzLJmWTMsqIAY/WnFfjA7BZV/AkKmzVDAxGYyKwV4fkEwgQREGIOlLwHuhkPf61seMcUnm2fWlIkXYQNaYh5r8n5Ko2zPyVRtmfkqjbM6ypFzHwiET4BCgO8DAsnhZPCyeFk8LJ4WTwsnhZPCyeFk8LJ4WTwsjgdikgeoIQwGwEwNDI9bbM6upBLteyh2jF4/nAMP1ACI622Z0sFQeKIjHqYYYYYCEIwIxqaACCEkhAHhCH1BhhhhgSRUDFixP9HinUIxMPoUTasm1ZNqybVk2rInQSAHe9aA6MARJom3ZNqybVk2rJtWTashlUBhIQj5GrqMs9AwzIZdTbM6uoyz0DDMhl1Nszq6jLPQMMyGXU2zOrqMs9AwzIZdTbM6uoyz0DDMhl1Nszq6jLPQMMyGXU2zOlBwgGWEBHdcK2XCtlwrZcK2XCtlE2BBh7fWgikRRQquFbLhWy4VsuFbLhWy4Vsi0YAMRl/R4xXwKcYzeE7tJ3aTu0ndpO7SijABkR8aA7MCQNYIQHvwndpO7Sd2k7tJ3aUQaPAEIky1dSjP6FDlBiDuD/ADkjgPahAIZdTbM6ypaIxioUceFsFWuoq11FWuoq11FWuoq11FWuoq11FWuoq11FWuoq11FGwoEDINaMWbM7dbbM/JVG2Z+SqNsz8lUbZn5KIBi9rp0psPGJQ7i+thcDG8GAvpcLzQj8EIcEYHzI6sp1sXA0bkCsPAHYaY2zLAiCi0QQ7/pZLhacLThacLThacLThacLThacLThacLThacLThacLThacLThacLThacLThacLTPSofockAAACAH+AH//aAAwDAQACAAMAAAAQ88888888888888888888888888888888888888888888888888888888888888888888888888888888888888888888888888888888888888888888888888888888886FPPPPPPPPPPPcz8888888888hAAAAAAAAAAAAAU8888888888BAAAAAAAAAAAAAB8888888888BAAFABBBBBEAAAB8888888888MMMU8888888DMML888888888838808888888488+8888888888Rww/8888888Cwwh8888888888BAA/wDPPPPPPAgAAfPPPPPPPPPAQAP/ADzzzzzwIAAHzzzzzzzzzz/zx/zzzzzzw/zz7zzzzzzzzzxHHFbzzzzzzzLHHLzzzzzzzzzwEABO000000iMAAHzzzzzzzzzwEAAAAAAAAAAAAAHzzzzzzzzzwMAAAAAAAAAAAABLzzzzzzzzzzyEIIIIIIIIIIIQbzzzzzzzzzzzzzzzzzzzzzzzzzzzzzzzzzzzzzzzzzzzzzzzzzzzzzzzzzzzzzzzzzzzzzzzzzzzzzzzzzzzzzzzzzzzzzzzzzzzzzzzzzzzzzzzzzzzzzzzzzzzzzzzzzz/8QAKBEAAQEGBQUBAQEAAAAAAAAAAQARMGGRofEhMbHB4RBBUdHwcXCB/9oACAEDAQE/EP4EbYIZlkPZghcWMGDY6q+hL6EvoS+hL6EvoS+hL6EvoS+hL6EMwIxYaMGq7EDkRkfu4dsdZGn9PDA+JfMwRMDQu6M+pRod0bqXsB9/qPmkUeRR5FHkUeRR5ECFiAG0HcdaUaHYRIgsdwoeYUPMIZN4YsD+OAJgGghp8jHQKHmFDzCEwCWDuPB2BHAciCI0X3my+82TBBWsmgjVwHJYGbATovvNl95sj0QdyQGjundaDY4q93WlGh3RutBscVe7rSjQ7o3Wg2OKvd1pRodjRADIK/K/I4CVjJrgQQRrNivyvyJjiWYLs6YSDSQborO9KzvSLIgOJgA8eHAk2IANAPYtz/xWd6VnekCgGYgAckHdG6mTQKg+QjzYS9hL2EvYS9hL2EAjjNCAjMH2PWlGh3Rn1KNDsodgYf0Ps5BgCYOgLs1Ya5jceDqmkAD+eiosnKiycqLJyosnKiycqLJyosnKiycqLJyosnKiycpqhJ4YzdCmEGQ8ezH+B//EACERAAICAgICAwEAAAAAAAAAAAABMGERMRBxIcFAQXBR/9oACAECAQE/EPwJL52P+KKEUIoRQihFCKEUIoRQihC+1IQ5Ubm+ZnJb+StMya+BSUlJSUlJSMbD50xu0FBQYMmoGNGkUFA5L4jaXhtFQqG0Zg2jKhUE14TUy9UGrnTMvVBq50zL1QaudMbcy1ylqWINe5SYZSjXZJssFg84QLCTLBYHVTcycZHWdZ1nWdZ1nWPfPLT8laY1afMytrGpbHJf/wD/AKc/It8b/A//xAApEAEAAQEHBAICAwEAAAAAAAABEQAhMUBBUWHwcYGRwSBQMHBgkLGh/9oACAEBAAE/EP6AIHlagl1JOJECBAgQIECBAgQIECBAgQIECBAgQItpzEI80OHV7xWACVaMuFQA1C2HRZrNFl1k4lIMiSDCdGkOgMy+Ur+radLKJmBIjImFkHJgbzCbNrsxsjdtzKpadCegYVRspjSZf8MbnsRd4Z8frJzvc73O9ypGaE8l5ZTGaodaiIiwIvS7+USJEiRIkSJEiRInIABR1gnyVKqXOE0NDLPL6Le5ebSJG4PdEYEDIEfnvdzZKkhoyUMg6mL3kSDIeTkhfaea4d6rh3quHeq4d6rh3qkbwoQAbbsAOlgJVXAFQWnysrh3quHeq4d6rh3quHeqO8ixETxJbhoqKioqKjAxUVFRUVGGKgaIJqDaF68fLfv3794dg35TAd+AG++4uBK+D57d+/fv3jT0IokGw0cW55DTgTFx0+h3ueQ04ExcdPod7nkNOBMXHT6He55DTgTFx0+h3ueQ04ExcdPod7nkNOBMXHTF7ziwQ5BFiNtr5ECBAgQWQIGKUJPZgEZC0oYCMeaCI+UCBAgQIQiW4AJSIDV/g7L3K85LIW4eK39Lf0t/S39Lf0mjhu/RE7MBY1+6YDR8lQVu6lv6W/pb+lv6W/pOxDNvAbhoYtyaV3gh9UnAwrASPh/ObOMrmmHdSggG8Pot7mwj9bS2PYJk3uok36Cn5QYMGDBgwYMGDBg069k4/wDQDu1FjfcRXQ2EZDy2frLe53ud7neURGGJ1xrZO2Gd8KgxqQGZldph3xt6kzvTk7svDhQ8IXBjJHJGEdSsi3qrI/yN+WLArxJAPNOdw60N2pMAEAYYJQQQDRG+nr8lWPKR2MTChQoUKFChQoUKFChQoUKFChQoUKEbd0mQ6y9KEsCACANP6AP/2Q==;" vertex="1" parent="1">
          <mxGeometry x="626" y="412" width="70" height="70" as="geometry" />
        </mxCell>
        <mxCell id="gFBRsMoK_zdnoC3hOrfU-33" value="OpenStack&amp;nbsp;&amp;nbsp;&lt;br&gt;Cloud IaaS&amp;nbsp;" style="text;html=1;align=center;verticalAlign=middle;resizable=0;points=[];autosize=1;strokeColor=none;fillColor=none;fontColor=#1A1A1A;" vertex="1" parent="1">
          <mxGeometry x="686" y="432" width="90" height="40" as="geometry" />
        </mxCell>
        <mxCell id="gFBRsMoK_zdnoC3hOrfU-34" value="Platform" style="text;html=1;align=center;verticalAlign=middle;resizable=0;points=[];autosize=1;strokeColor=none;fillColor=none;fontColor=#1A1A1A;" vertex="1" parent="1">
          <mxGeometry x="539" y="312" width="70" height="30" as="geometry" />
        </mxCell>
        <mxCell id="gFBRsMoK_zdnoC3hOrfU-35" value="" style="rounded=1;whiteSpace=wrap;html=1;sketch=1;curveFitting=1;jiggle=2;" vertex="1" parent="1">
          <mxGeometry x="624" y="272" width="150" height="110" as="geometry" />
        </mxCell>
        <mxCell id="gFBRsMoK_zdnoC3hOrfU-37" value="" style="shape=image;verticalLabelPosition=bottom;labelBackgroundColor=default;verticalAlign=top;aspect=fixed;imageAspect=0;image=data:image/png,iVBORw0KGgoAAAANSUhEUgAAAOEAAADhCAMAAAAJbSJIAAABXFBMVEX////5+fn+sQE2NjZCQkL8/Pw0NDQ4ODhAQEBEREQxMTHs7Oz39/c7OzsrKysjIyPLy8ugoKAhISFNTU1iYmIdHR17e3vR0dHw8PDCwsJtbW3/sAFXV1fi4uIAAACTk5MYGBiurq7a2tq3t7ekpKSUlJSIiIh1dXWtra3///lnZ2deXl5SUlKLi4v9tQA2NTmMbSOqgBDClCjutiPhqicYFwAPDw8aGiElJi1cSB2ngy3MmR3Rox7EniIxNDAeHxovKjYjKSNmTSjzswuRcgpYSyA4LheujCxUOQ7OlhTOmytvVBbrsjJ3XRRkW1ItIx4tIyiSdigIDh2sgyGHXhBKPRv4wSGfhzx9ZAPftjdaRBFPQCy7kBnYpjNmSgCTbQ06Myg3KQAgDABIPiBpUx6yjiYjGxc+OCQrHQg5IACWm5F8YypEMgAUFgAqEQCFbyU6MAMgAABHSlZUQQBHUxO8AAAV1ElEQVR4nO1diXvbxpUfCBwMMQAGvAnQgkiRFKkTVERWlmWHTko3aaWoqaPY2zp2bcfWxk3d7e7m//++fW/AA9TBa2OQzMefZVuieMwP7827Zt6AkBVWWGGFFVZYIFBA8D/8nfdgfn3QgBRV+j//9uC4tbSdLWVFfHfLNeY9ml8RNFDOck5LCU1VmapqXKTsTMUEgf4mJElRM8u7KQ70emBM5Slr+zdCEQSoFI85Q+n1GWrwh2f3jN8CQZCht26r18DkX8HKZMltDkXTWRb8OsEeTy7KVFHGv88CA1S0nOLsDoYgxpS33DJEFVXvkqAET9PlZqiQ9ZEEGbMPyHJzTGZHEUSO2TxeiKWFEfaCtzPkmaUVIg67KMYRVNVSeWmNDSXOGH4SIjfvgc4KEIybUsdpKYSpqjnvoc4ImF11rt7pCweKmkrMe6gzAmQIycR4hqooznuoM8M7nmQeqnx33gOdGW52EhGqmuXMe6SzgZJtcStDFnyx/u8gOF1K0MAbhph0CTJt2MKy7JKaGkpqkuF1OfKUsFRbhEjalXmPdVYgQ55KpQY+A/4X6YoBRuhADAI6uzrvkc6KHFdFxi27mUGOz1I5ExNjSvJC6/JmdnLeI50VOcELsk5aEz0h2jmiKJDXwz9uqSfE5XWIdW57JpAxlXhvDqZNyQ4fxIiny/Bg3iOdFQVRkEVuhW7aoJJgVAVWEIlhYB2RJnrucokZZpOEGgdJR3G6ZsY2KDUKwt51QIwOW3otLWQ3icNtW3dIgaMItTRRTAssrFgHhrRb4WBia94jnRX1UoVUbabaRZIUWAfmdUiKbfSQ2QRoayZwI0wsqS2F5KlUReEBSEXyAio0Jhcv+AHMzr2AobasDMFb2DUCLMAJGon7DQC4dkcEilkjOA/Zknv8mtDBJyJDp3L/BHC/SkwuZQikqNsLBJaVISUHouRBBqU2tNqD04etR5+fPthN7LdBmOpjj0rxLjnDohA5sv5F48vfH/3tke93Xraet578QbQbsg7sltiSMySkKjQIatJffd159MczYPj1H/8E/54dfvU4R4g5SDmW1dJQNKBi/efzb/y1Tsf314Bdx1+D/5pHF3+u5CCHCqAtr8d3U2327ZPm2g34ndZnL/oZIhrWpQQlbrb9l6vOTYJrIMm15tff9vSUF+Y91tmADMWp79/CEFV17fnTbsmfcX3eY50NwPD+H25RUUQHp+RVj6EqlnWt2/3usnOrCP3Oo+87/tf9ZZuSt5QUKdm8Dwzv3SbCy++bvv+0zzC1nKUoSpL2T6fNGxR9v3WBsv3mWdeYMsZ3l3INkZJcuyF+f/nc90PmBrzh6XkL5uHDB/31b6aJpdwFRsl+g7Xf/8f5q07gHwJ+ly8uO5215l/rTmFAEXLgJZQhMYTa5vXDv51fvGp2UJCd5sPDF0/x+9YDl5Ctvi1VNc1ZRoaVFO6XyX3WObt48f3ry9ffn784v2oi04c/lKlCKyl1IMTiMs7EgmDMNpU/v3ze+ebV0eXlEYoSVPX5k4y5YyrUGzBUteMlXJ3xBJgQnewof/5M6iiaG/xq/b1IFSBIHWtAkInMvMc7JUDjkoJpPEcU09z9a1PmFEDQb77+IUGorAoPUuCeT1wmPaWEcq4ye5sAlZ3tN68fNTudTvPR929+pihBBDkIM9TUpTI2NLAzaiov1yh2nO3CDw9+efFDwd2RD8jSPhZqQitvy7XrBOziPgrIduQShWJSYjqGYZKdnZ0eQxNMzdDSYgkXSpdHjliBUvl6X2Ld9ZghkPjQWrAWM5eIYFCxx6roCASLxENOcXk2fksRon0cydAN71xkTLPzy8EQuw/isu4rvBuaGQY1r23s0+LzHvtkAIKbMlzh+yMJghDr1/bXLk1d0bHkGr04GKmk19VUUlyK4I2SLZshxWx5jAwVU7+2dxGDt8WfitTrpUVjRGgquK4Y9olMzVaWgCEmFWqwiWQcQ8VIqUMEwTotQfCW6G5JFM4YHcVQZ7ARpecUFz14A1eR1uTSpyiOm4UA6l23NczOkwVvpKnacrse4wY1x1Mku8MOg8kmk4XO9z2boQiZvTVmFgZ6SjavtX3JjQ2LG9rAwOQGC6apwpxASQFlW1XD9hRUPOstqgxxWJXuvMIoegJQxdHlVpsw+N68mdwJSg0uoxnNKpUnmYUKRm43uhMXuMpPSV1IO8q4PhE9mR2nOWo1G0iSqZazmMVFGsSZ6CxSyclmISpqOQXJL0SyrLfhVNNkRDtvOreAOrZUUcZEnUymo1JPqzbj9f2Q67fU4wXtvMTtQaqoxzVtcn6IfU21twqhEJUtYg8GzJtEluG2g3WecicypH0huvBCURmUT3GfZn7ehG6AUtPSNNDPmuCZqQhShYAQNVHWQ21SfH3ehG6BrCtx19bsxFQMQYjgRRnfK9sDNdVK7rz5XActlzC9c3VVW6cTG9IeYmCeUpVq1hrMRH3RHAZdF5bGdyu2OuUslEJMoviYs9/vbGcMhLhYDDfBqzHbhTHyqQkqioe+QmyG6zZ8wQoaJrpsvp9IYb1seoZyLzFYl3AIbpfnTSoEhRRxDcLeBGuT8qYnqGBDrQpJxXYoSF2obJ86OECW9SxQruntDISnsjhsV4fqNmJx+hJxsywmhfvlrGpvTxGw9UEDNd0Nlqy6xmaRetqCkwXsbYgwhadMmDcNgeC+BY2TAxEK3RYoT6zKCmm2XBdjK/l3CdHDHqESCU1EjWWdRbGmVJe6Jaiuja3k3wmM2UpOaF2Yqba7KF4/n8XUDoy9LZthZoCpkBzXWMnIh9aFcfPwIhCEq5yTk4fXaUlNzTAHJTCsYcdG2Q41CWt7C8EQBhFEzKJolrB3a0aGLkivZOaHyvyxBTlQIl8K3FfSPIZpOKMQKWQWmiCV0P4MrCrPmxuCYhUCazN21SylKrOZUjSmAjdGFcOZPriexVDTHA8cdJVks+VZtVQxOEYLu6FzsxhblNA0KD9gG6FmO7O4ewnH0mzDCa/sM7YYtQyq6Lxn2zNTlqCGGYoCSWTlmYMsqLouigwhceoldNXYzX1BE4I66nEeG9y5XJzDGrGch4sAp1/INb0ZYzYpw9oWpbn67npMpAQPzgYBW7oIlsZhXR8NZuZgtogGgW3tjmMYXrnsbqXlIqSqL8Q+MGoAwzbTGmhqJloVvZWikj9Yj3MB4Cxd2DrQUYR7CxGXUqfRaLfhS1PjZFYlNc1MSZ4gKdWBcy50lVmLchRBXrx5f/jvr3hDLc0Wdiu4m9YOFp+COY0HnKoWsxegZgpK5NnYIeI3n4oGatWES79DAlSIY8mmhJ4fZGqjDWqfcuZ/4qBCSfoiaFB7/vW37fvbijL1RHSIl7PbjXDErbK22jg5+WI9V6Fz3regkO2333QbYjqn7fZf8tNHbTR///D0zTBDrd149vnLl6/fb2TmnOdTw770gxY83+9ciIY9fWBK04fPW98OL+U3GuJIttkc/VifI0NQn53dZ4O2Lb/5VUPj5WkJln9s+c1rMlQb74P2Wv9sY37nZOH8qB6f+WsDip//hXENpDjNXCTb5521zrthho03D/2gYbhzUZ8bQ+CY3HgyaExDPT08Gbv3+QbD4mtQx/fDW6NOTrvdp/f8IxE1K5CcNG5Ofot9GGqD9f17zQcNTUslp2KYuwSGT9uhvLDB33d6yu+3foy49C2Nt1eprZ8cvz1shVS0O20eNzQ1tTuFVyS7l/Aej04GatrWnrUGs7v5NuIkEcSX2Cs9fnF41MKTEoYIYnfT0xNLg8mYmDiAI3tXON2eDdT0iwc9gthh2/kl4uI+JQcb77GNcO26/Lr29H0Do5PS1qQLNGT/Ct/pJYRtjQYehPLlP5uDC3dvrfM64jWoncTG6W3nJHQvue+33sgAM5sxJiu7kfQREuocpvCQHn7y4Gj47f2HwlEiDWt2z+84RiAwfb5/dQIhGOTnfDJNJbpkuNa5evHuHSj/jcvX+ViN1Ok77as7ToLoXfPOuayXMa1UnYghO5Pq7vvPm83m9amNjx/9Z6RFRe9fr247RCA8pNZPMKHaQDI1dpkGEmai/Wn02635hzLXj4qk97vWaIIwpqPeqY/ZCXaZEtFaG3PNmucNL7p9wxMwBKvxReDd2PHozieJx62RWo+XrHl+ko9OhqVXYxmuNZ81gpt02BNk/eMZwtw+3MB8PxKSxsnReIb+WTdXsMc2BpHK71q3Hg9y7R1PN5IQ0UfB0Gkcjb3koKdPT2Qia42bh8S13yDDcRz9zuVGREdLKPpn4xn6fvMBFl2Ox6UZJGFrb+T5J+Mpnm5EFL7tTcJwzX9lN9rZ6t0+3wxUNKupP91+TM/NNz187O1ExHD8tMGJ82VmZNHGBGdYTGlMm5hh80M0x4BOIkOppy8qxLw7MjWD2ySBLr/DOG2Si9b5ZzTp/t4klkaG4MdVCjHL7XpKqVNMceyP0t5PJEMsS51HcnTdTvrMn+yS+1cbu2XcHX2No4mbvIyqFrQDMX44IUH/8+NIlhONb8fHNMGY7nVO74taWd7YygwJDx7I57T+nSHE0ehIPsC9e/6rf/xMorA0iX+MSJ6CwfQve+epEKXYVsIZlOapU94siGz3NnoyKGjdlknfQOfqXwcREAQBFC8ms3zBsN5ztS2ydiyTqxWLxVouo9vZVKis1maNd3fl0wOAhjYPjyM5AxQ0zDqacBrKZzXfNWSEKhcGcW3weqMaa/9zAvfa+fxjoxyFhmKV7UNzYhnidTj6sqFpWrDzQLaWSlohiuJyfNzdPNwADY3E21NS+fuE/jkY25pM+K81M4d/1MTD0e8H4dHRx1gepmAkQSkl2+dTEMQBHn0x+o5IP40yXPfkDNwoRrecT4n7sTmR6eszbH3bHkWw/WC0oem8fJsGp2pGtVBKifOvq4nC0j6+edeQJwl0dbW7G4h17zaj8YtRDP3WxXdJuhPt8lrxv46CQ4EnZfisoeHtY207my0BsrYtOPYoMg21d1RE44MA9ej37im1jYuzpn+t6He3WL95J2xtv7616Sby5XI5n3ArB4U0R5ooTfH0Thn6zafHW2SHRr3jxNxJZDY+Hh41OxOJ0W99qCVuLh45+WqBZzlrNA5vY3hPvvKc4/EKc9lS41XTGx9+eX0WHPgoD5u7S4j+y8Zd7+K49ZLNz68xlOR8/55/9nZvrh0lZqK4fv+7Z/9+iStQI2Zl85dRwZZTtf5401vgNXt+urE1z50moDgQYRiJnzNi4+PFk5et5u0cff/r9h2xCA0WW8u3lF/x8MGLxy6Z+/EY8uPN8mbtf7/78eOTh8+7q21+aKD+qx8rd0Zb8ibyCr+6cW0gef4Y8+ZPMIxyMn388bTV6R5v2Rtp59U/imOM/c7W26Yfmor3MOk6+5BbiC17XdDgq1zkP14cDWmr//nb+hhJ7CgOuxiO5f3OFTiJhRJgMKN2iOlmNv77sOsrMaA8/Z8axCMjhwqvKx+fhyn6nScbm7IIGRmBaWBs76WOXxx+9vLhy88ufteY7FQrL/bhsrtu6HeaZy9EYhG2zd4KKS3DLe7qX9w/+d+ca44RYBc75tb9DxdXDx89evTyyS8bNWOxVDSM3k4bYjqmGejuRAwpMSuFk42N4+P76aS3M9l1mSd25BceVTrZwm3Xm5iGIWOYnehWe1dYYYUVVpgHaGDof8PmHkPJfGJBTyL7VQAJrS5EdmlvoyZBzdDK9fU6LTXT8ZiuiwVo5pkReMqzqg8Qu34HHFfEYjHdmufu+v8ngKHN1FgAxvFAriGGFQ6Px+PLdq+KECjJJ7dqcUnQqlerwwkgTEMpQ7YgTXWzY4shQ/XmaQB4LLAVV2OfsHuX9v/5lKiqtzPEvG47s177VAch9H3tJ2eYVPU7GOJnK3hL6k/6+Z/e2yalDLVbtJQGF7lvYAdjmWxUdLQWesVkxSuXo5Ah2pObDOmNZaLBj93KhHLjkf5waei6hN4lXAnJb7pufdf49CHTnQxxZIbruqFAwKtsd/dMGvlE/poJMhNuxRgM13E3t/EZ1AkhTJ1su/lcrjw/hoBEjnEt3tvK61QygdMkzuYefMdZJrRvK1GL8+DmMhL5msXVlPxRZ3GrB3yi1Y0wcp5nlMvOp4/sb2UIV9pL6sICj59WAnoFwcF1gv8v54QG4Ry8KG4npN4p+a04PjfGg7YtfCmLx+KaZAjMY9Lpwje4d+CYxeF3zI7sfqW3M8Sb41poZLsMqykrrsNA4+s5ziDQQYbwAJN655TUOD63y1DhPK7rfYZeosjlb/UELtA4iSrTdVZzI5iBIxluZlUrNmC4jRFsHOWmcS22vq8x/F7XNtH+OPG0HmaIT8XrofXuiLTF5Vt12yxcLS5wOkfVc3HHPDQNp6wOGAIMDcNzvZjApxp16WSsXM98FkJaCsihgmu9aalkLBC6tSdNqaPH1QN0tJ+cWhd3WxqDX2MIUovtdwdG13FuxXfpJAyJp+GH8KQ8S0yN7+FhvJFhKoZ6fL+3oykvf5vpiWIkQ4j/BCo1nsEDORnzIi0cTCdDPd1zHqYeMOxiNENKQE/h5fuKw2Mi4iXvqRjGYIzdH6WajmCoh7UUXs3Q3KpbdYtHnY5FxDDIp2PMsvai7SGNjCEldXwGGOPI73dxG8NgDL8qQ4U4TIYJ+5GfpXSTYc8B/LoyBHuqQihksVrUe4dm1VJlWi2Ft0NjE3158gZDc7uyKfPSX5UhPN+y9hkGDaoR7VLBDYZeVk1t4zfTa6k2xDDGuwxlpaCm6pZTsMClxgvKpy6NDOEGw7zQ+SZ+M7UMda2vgEMMZfFZxLlLDMhQ4jrfJnON2io8zDA2jQxZv+FuWIZYe9VZTr45zEWdR+cx4IOSmh6qRMG1raoxLSzDXpgGuQUkiD3CtCfDoNpEc5g9xNJOtxSDUZs+kCHkE3FLPrOO5dn4fnTb9YGhdFMhGRbiUob0JkPMawdauhdmSLaAoa5bBbnHxPR2Lci01D7DOuvSpY7MulgknXldBAzV/g5eU8R6MhzODx2OMuxlT8NaquDsxWdbeq6Y201zrAgMTGtS6ykwJa68blokx9SAlBL5ih7UUA62JIrJXQs+f5OYjiNrxTpzZSnGcJIwtfS4temhsffy2yi0mLVpGMEl2GVY2oAnMIvxTEaHZ1s5z3OI4iUhdVIrhiljJQ+X7OB9o7nTbOVYlpek3vS6Qix4ALR0syRY8BvO7ARxS0ILftRSeHx83dbkpdG53b05hxHHqYd5P9+v4DxEpRXZJBFBCYuXcK3VKajBB8a5/cn7gOGCVkBKvdXDPuAHBgyFhVXAOPyxBDAUshoYB1gFYJTTgvIg/rbrIoy64NjWVnAVmHjZoMGtlCRBlUqPsW3sYRG8B/vTZ1Ej1OTOaje5Vukf/FbB+vFmJa/INlPHDOCYQxVv0j2riNKF3XO6wgorrLDCCiussMIKK6ywwgorrLDCCiv8NvB/xu46XbMymPQAAAAASUVORK5CYII=;" vertex="1" parent="1">
          <mxGeometry x="696" y="292" width="70" height="70" as="geometry" />
        </mxCell>
        <mxCell id="gFBRsMoK_zdnoC3hOrfU-39" value="" style="shape=image;verticalLabelPosition=bottom;labelBackgroundColor=default;verticalAlign=top;aspect=fixed;imageAspect=0;image=data:image/png,iVBORw0KGgoAAAANSUhEUgAAATgAAAEuCAYAAAAa8A7sAAAKq2lDQ1BJQ0MgUHJvZmlsZQAASImVlwdQU+kWgP97bzoJLSHSCb1JbwGkhNACKEgHGyEJEEqIgdBsiIgruBZURLCiqyIKrgWQVVREsS0Cil0XZBFQ1sWCDZV3gSHs7pv33rwzc+Z899zzn3P+f+4/cy4AFEWuWJwKKwKQJsqUhPp5MaJjYhn4AYAAMlAEFKDP5WWIWSEhQQCVaft3+XAPQBP2jsVErn9//19FiS/I4AEAhaAcz8/gpaF8GtWXPLEkEwBkH+rXz84UT3AryjQJ2iDKDyY4cYqHJzh+kjFgMiY8lI0yDQACmcuVJAJAZqB+RhYvEc1D9kTZWsQXilAWo+yelpbOR/kEyiZoDOojT+Rnxv8lT+LfcsbLcnK5iTKe2sukELyFGeJUbu7/eRz/W9JSpdM1jFAlJ0n8Q1GrjJ7Zg5T0QBmL4ucFT7OQPxk/yUlS/4hp5mWwY6eZz/UOlK1NnRc0zQlCX44sTyYnfJoFGT5h0yxJD5XVSpCwWdPMlczUlaZEyPxJAo4sf15SeNQ0Zwkj501zRkpY4EwMW+aXSENl/QtEfl4zdX1le0/L+Mt+hRzZ2sykcH/Z3rkz/QtErJmcGdGy3vgCb5+ZmAhZvDjTS1ZLnBoiixek+sn8GVlhsrWZ6Ac5szZEdobJ3ICQaQZskA5SUZUABghCn7wByBTkZE5shJ0uzpUIE5MyGSz0hgkYHBHPcjbD1trWDoCJ+zr1ObyjT95DiH5jxlfwFAC3mPHx8XMzviD0PE4PAkAanvEZ1wBAaQbg2lqeVJI15Zu8S1hAAgqABtSANtAHJsAC2AJH4Ao8gQ8IAMEgHMSAxYAHkkAa2nk2WA5WgyJQAjaD7aAC7AUHwBFwHJwEDeAcuASugpugA3SDx6AH9INXYAR8AGMQBOEhCkSF1CAdyBAyh2whJuQO+UBBUCgUA8VBiZAIkkLLoTVQCVQKVUD7oWroZ+gsdAm6DnVCD6FeaAh6C32BEZgM02At2Ai2gpkwCw6Ew+FFcCK8FM6DC+GNcDlcBR+D6+FL8E24G+6BX8GjCEDkEDqii1ggTISNBCOxSAIiQVYixUgZUoXUIk1IG3IH6UGGkc8YHIaKYWAsMK4Yf0wEhodZilmJ2YCpwBzB1GNaMXcwvZgRzHcsBauJNce6YDnYaGwiNhtbhC3DHsKewV7BdmP7sR9wOBwdZ4xzwvnjYnDJuGW4DbjduDrcRVwnrg83isfj1fDmeDd8MJ6Lz8QX4Xfij+Ev4Lvw/fhPBDmCDsGW4EuIJYgIBYQywlFCM6GLMEAYIyoSDYkuxGAin5hL3EQ8SGwi3ib2E8dISiRjkhspnJRMWk0qJ9WSrpCekN7JycnpyTnLzZcTyuXLlcudkLsm1yv3maxMNiOzyQvJUvJG8mHyRfJD8jsKhWJE8aTEUjIpGynVlMuUZ5RP8lR5S3mOPF9+lXylfL18l/xrBaKCoQJLYbFCnkKZwimF2wrDikRFI0W2IldxpWKl4lnF+4qjSlQlG6VgpTSlDUpHla4rDSrjlY2UfZT5yoXKB5QvK/dREao+lU3lUddQD1KvUPtpOJoxjUNLppXQjtPaaSMqyir2KpEqOSqVKudVeugI3YjOoafSN9FP0u/Rv8zSmsWaJZi1flbtrK5ZH1U1VD1VBarFqnWq3apf1BhqPmopalvUGtSeqmPUzdTnq2er71G/oj6sQdNw1eBpFGuc1HikCWuaaYZqLtM8oHlLc1RLW8tPS6y1U+uy1rA2XdtTO1l7m3az9pAOVcddR6izTeeCzkuGCoPFSGWUM1oZI7qauv66Ut39uu26Y3rGehF6BXp1ek/1SfpM/QT9bfot+iMGOgZzDZYb1Bg8MiQaMg2TDHcYthl+NDI2ijJaZ9RgNGisaswxzjOuMX5iQjHxMFlqUmVy1xRnyjRNMd1t2mEGmzmYJZlVmt02h80dzYXmu807Z2NnO88Wza6afd+CbMGyyLKosei1pFsGWRZYNli+tjKwirXaYtVm9d3awTrV+qD1YxtlmwCbApsmm7e2ZrY820rbu3YUO1+7VXaNdm/sze0F9nvsHzhQHeY6rHNocfjm6OQocax1HHIycIpz2uV0n0ljhjA3MK85Y529nFc5n3P+7OLokuly0uVPVwvXFNejroNzjOcI5hyc0+em58Z12+/W485wj3Pf597joevB9ajyeO6p78n3POQ5wDJlJbOOsV57WXtJvM54fWS7sFewL3oj3n7exd7tPso+ET4VPs989XwTfWt8R/wc/Jb5XfTH+gf6b/G/z9Hi8DjVnJEAp4AVAa2B5MCwwIrA50FmQZKgprnw3IC5W+c+mWc4TzSvIRgEc4K3Bj8NMQ5ZGvLLfNz8kPmV81+E2oQuD20Lo4YtCTsa9iHcK3xT+OMIkwhpREukQuTCyOrIj1HeUaVRPdFW0Suib8aoxwhjGmPxsZGxh2JHF/gs2L6gf6HDwqKF9xYZL8pZdH2x+uLUxeeXKCzhLjkVh42Lijsa95UbzK3ijsZz4nfFj/DYvB28V3xP/jb+kMBNUCoYSHBLKE0YTHRL3Jo4lOSRVJY0LGQLK4Rvkv2T9yZ/TAlOOZwynhqVWpdGSItLOytSFqWIWtO103PSO8Xm4iJxz1KXpduXjkgCJYcyoIxFGY2ZNHQwuiU1ka6V9ma5Z1VmfcqOzD6Vo5QjyrmVa5a7Pncgzzfvp2WYZbxlLct1l69e3ruCtWL/Smhl/MqWVfqrClf15/vlH1lNWp2y+tcC64LSgvdrotY0FWoV5hf2rfVbW1MkXyQpur/Odd3eHzA/CH9oX2+3fuf678X84hsl1iVlJV838Dbc+NHmx/IfxzcmbGzf5Lhpz2bcZtHme1s8thwpVSrNK+3bOndr/TbGtuJt77cv2X69zL5s7w7SDumOnvKg8sadBjs37/xakVTRXelVWbdLc9f6XR9383d37fHcU7tXa2/J3i/7hPse7PfbX19lVFV2AHcg68CLg5EH235i/lR9SP1QyaFvh0WHe46EHmmtdqquPqp5dFMNXCOtGTq28FjHce/jjbUWtfvr6HUlJ8AJ6YmXP8f9fO9k4MmWU8xTtacNT+86Qz1TXA/V59aPNCQ19DTGNHaeDTjb0uTadOYXy18On9M9V3le5fymZlJzYfP4hbwLoxfFF4cvJV7qa1nS8vhy9OW7rfNb268EXrl21ffq5TZW24VrbtfOXXe5fvYG80bDTceb9bccbp351eHXM+2O7fW3nW43djh3NHXO6Wzu8ui6dMf7ztW7nLs3u+d1d96LuPfg/sL7PQ/4DwYfpj588yjr0djj/CfYJ8VPFZ+WPdN8VvWb6W91PY4953u9e289D3v+uI/X9+r3jN+/9he+oLwoG9AZqB60HTw35DvU8XLBy/5X4ldjw0V/KP2x67XJ69N/ev55ayR6pP+N5M342w3v1N4dfm//vmU0ZPTZh7QPYx+LP6l9OvKZ+bntS9SXgbHsr/iv5d9MvzV9D/z+ZDxtfFzMlXAnRwEEVTghAYC3h9E5IQYAagc6PyyYmqcnBZr6B5gk8J94auaeFEcAalEzMRaxLwJwAlWjfDQ3+jwxEoV7AtjOTqbTs+/knD4hOPSPZZ/nBHWr8vPBP2Rqhv9L3/+0YCKrPfin/Rfy3gcUeJE+ewAAAJZlWElmTU0AKgAAAAgABQESAAMAAAABAAEAAAEaAAUAAAABAAAASgEbAAUAAAABAAAAUgEoAAMAAAABAAIAAIdpAAQAAAABAAAAWgAAAAAAAACQAAAAAQAAAJAAAAABAAOShgAHAAAAEgAAAISgAgAEAAAAAQAAATigAwAEAAAAAQAAAS4AAAAAQVNDSUkAAABTY3JlZW5zaG90itHhXAAAAAlwSFlzAAAWJQAAFiUBSVIk8AAAAtdpVFh0WE1MOmNvbS5hZG9iZS54bXAAAAAAADx4OnhtcG1ldGEgeG1sbnM6eD0iYWRvYmU6bnM6bWV0YS8iIHg6eG1wdGs9IlhNUCBDb3JlIDYuMC4wIj4KICAgPHJkZjpSREYgeG1sbnM6cmRmPSJodHRwOi8vd3d3LnczLm9yZy8xOTk5LzAyLzIyLXJkZi1zeW50YXgtbnMjIj4KICAgICAgPHJkZjpEZXNjcmlwdGlvbiByZGY6YWJvdXQ9IiIKICAgICAgICAgICAgeG1sbnM6ZXhpZj0iaHR0cDovL25zLmFkb2JlLmNvbS9leGlmLzEuMC8iCiAgICAgICAgICAgIHhtbG5zOnRpZmY9Imh0dHA6Ly9ucy5hZG9iZS5jb20vdGlmZi8xLjAvIj4KICAgICAgICAgPGV4aWY6UGl4ZWxYRGltZW5zaW9uPjMxMjwvZXhpZjpQaXhlbFhEaW1lbnNpb24+CiAgICAgICAgIDxleGlmOlVzZXJDb21tZW50PlNjcmVlbnNob3Q8L2V4aWY6VXNlckNvbW1lbnQ+CiAgICAgICAgIDxleGlmOlBpeGVsWURpbWVuc2lvbj4zMDI8L2V4aWY6UGl4ZWxZRGltZW5zaW9uPgogICAgICAgICA8dGlmZjpSZXNvbHV0aW9uVW5pdD4yPC90aWZmOlJlc29sdXRpb25Vbml0PgogICAgICAgICA8dGlmZjpZUmVzb2x1dGlvbj4xNDQ8L3RpZmY6WVJlc29sdXRpb24+CiAgICAgICAgIDx0aWZmOlhSZXNvbHV0aW9uPjE0NDwvdGlmZjpYUmVzb2x1dGlvbj4KICAgICAgICAgPHRpZmY6T3JpZW50YXRpb24+MTwvdGlmZjpPcmllbnRhdGlvbj4KICAgICAgPC9yZGY6RGVzY3JpcHRpb24+CiAgIDwvcmRmOlJERj4KPC94OnhtcG1ldGE+CrPr9iUAABVvSURBVHgB7Z07dyRHFcc1khbv+oAxj4PtYwecYyc+BPgDEADnEPAtgNAExHwIAsdkjomcQgAkEMLBPsbLer22ZWu10u7qtVppJc0gd9Wt8dRMT3Vrurqrbv0cuPpRXXXv79be+auqH6PJ1X9r/AcBCEBAIYF1hT7hEgQgAIGKAAmOgQABCKglQIJTG1ocgwAESHCMAQhAQC0BEpza0OIYBCBAgmMMQAACagmQ4NSGFscgAAESHGMAAhBQS4AEpza0OAYBCJDgGAMQgIBaAiQ4taHFMQhAgATHGIAABNQSIMGpDS2OQQACJDjGAAQgoJYACU5taHEMAhAgwTEGIAABtQRIcGpDi2MQgAAJjjEAAQioJUCCUxtaHIMABEhwjAEIQEAtARKc2tDiGAQgQIJjDEAAAmoJkODUhhbHIAABEhxjAAIQUEuABKc2tDgGAQiQ4BgDEICAWgIkOLWhxTEIQIAExxiAAATUEiDBqQ0tjkEAAiQ4xgAEIKCWAAlObWhxDAIQIMExBiAAAbUESHBqQ4tjEIAACY4xAAEIqCWwqdYzHINAwQT2n15W3u8en1fl9uOzqvz80bOqfH/b7H+xf1Htv/vrH1altv+h4LRFFH8gAAFHAAXnULABgfQIHD0bV0ZtPTKKa/fQKDBRYnd2zf7WY1PuHJv6OwdGuV0+M0puMh4Z52whnr76g+dkU2WJglMZVpyCAAS+IoCCYxxAoAcCosTuH1ilZRXWp3unVe9fHpi5sNs7Zv/OrlFgJ1bBXZwZZbY2scaKIBuZA6N1c2DkSZb1TU+y9eBrSl14OFIyDVsgAAEIrEYABbcaP64ujICvxPzVSVFi//zkpCKze2TmwE6fGYV2aYTZHLWRVWJyYrRhFZkVYBs35IxfXk+hTUQJ+s0p20fBKQso7kAAAlMCKLgpC7YKIuArsY8fmLmvh0dGYvmrk3f3zRzY4aFZzZxcGgnkr06KEhMFJkhHkZSYtN+2FHvaXpdbfRRcbhHDXghAoDEBFFxjVFRMkYB/x77c/xVanTx+ahXYpZkbq1VidnVyzSowUT6j2tXJ682JpchWg00oOA1RxAcIQGAhARTcQiwc7JuAr8RkdfIze1/Y9omZA5P7xD7aMXNlZxfmuLtjfzKroNycmHefWOlKjFXUvkc4/UEAAhDomAAKrmOgpTfnr06KEgs9O3nfvu1ifGHnxgJKzJ8Tq79jf1bRlR4f5z/3wTkUbEAAAhDIkgAKLsuw9W/0328fVJ36SmzH3qn/4ba5j0xWJ9esxBpfmFVKsdifE0OJCRnKGARYRY1BlTYhAIEkCKDgkghDPCNkTuzgxDwTefeBeUbyrn2j66eHZjXy4z1T/v6XL1XGvPnyrao8tXNiv3t3q9qXuS5RYmL59LgcMeX8M5TMic0SGmivkDCg4AYaX3QLAQjEJ4CCi8+4kx58JXbPvkfMv2P/k4dGiW3tm3Lbvgl2bHantthfcFFi8paLM6vYphXN1uZNM1RGI6MEZY7Nr8c+BFIigIJLKRrYAgEIdEoABdcpznBjcsf+sX1Dq6/E5C0Wsjr5kZ0be2TfdiE9rNv3hU1XIc2NTfJm1+lxc8XGN+RKvzRSbmJfGOufZV8nAXmSQ6d3U69QcFMWbEEAAsoIoOCuGVBRYvLdSf8tFr4SkzkxqeeenfS+diRzYr4Su3ErtOwVOn9NR7lMJQGeRVUZVpyCAARKIlC8ggspMXnHvrzFwv/u5MWpN3nlrU76SkwGl9w3JvvTEiU2ZcEWBFYjwBzcavy4GgIQSJiAGgUXUmIyJ+Z/AXz7oXnH/lgemfQElMyJSQxFkcn3J0Ork3IdJQSSIsDbRJIKB8ZAAAIQaE0geQUnq49/++9+5dz79hnKPfv1I5kT239i7rA/OTG37Dd+x779Ix0l1nrscEHOBLy/VHJ2ZZntzMEto8M5CEAgawLJK7i//PtxBfidP+9WpbydQubC5I59iQKrk0KiZRn8RQ9WaNkh1SEQnwAKLj5jeoAABAYikLyC21w3yz2izNaTt3igSK7abXBVLVhhVQuSul7u9Ff7zGYh4UTBJfXPCmMgAIEuCaCHuqSZc1vBKbZghZy9n7NdrXKb81T3ARSc7vjiHQSKJpCNgps+UVCWkuhtdAbnZIIVejOVjlYnIE/irN5S2i2g4NKOD9ZBAAIrEMhGwa3gI5c2IYAwbkJJTR1ZJVbjUI0jKLgaMByGAATyJ5CNgptMkBhRhxtTbFHx0vgwBFBww3CnVwhAoAcCJLgeINMFBCAwDAES3DDc6RUCEOiBAAmuB8h0AQEIDEOABDcMd3qFAAR6IJDNKmoPLOgCAuUQKGTVHAVXzpDGUwgURwAFV1zIaxzmNsMaMBzOmQAKLufoYTsEILCUAAluKR5OQgACORMgweUcPWyHAASWEmAObimegk4WsqpWUESXu1rInCsKbvkw4CwEIJAxARJcxsHDdAhAYDkBEtxyPpyFAAQyJsAcXMbB69f0QiZt+oVKb5EJoOAiA6Z5CEBgOAIouOHYp9VzUKCxzJpWwFazppTvvqLgVhsnXA0BCCRMAAWXcHD6MG20bn/jJuM+uqOPRAjwVa1EAoEZEIAABK5LIBsFx5ftrxvi5ddNxmkoN1EUpcwNLY9KD2cLmVJlDq6HsUQXEIDAMASyUXDD4KHXvgig3PoibfsJrpr3bE+k7lBwkcDSLAQgMDyBbBQcX7YferAU8pM/NGb675QACq5TnDQGAQikRCAbBZcStDJtKWTZrePgsjrcMdCWzaHgWgKjOgQgkA8BFFw+scLSDAmwOjxs0FBww/KndwhAICIBElxEuDQNAQgMS4AENyx/eocABCISIMFFhEvTEIDAsARIcMPyp3cIQCAiAVZRI8LNqmkeVMgqXBjbjAAKrhknakEAAhkSyEbB8T64yKOLBxUiA06s+ULijYJLbNxhDgQg0B2BbBQcbxPpLui0pI9A62deC5lzRcHpG+t4BAEIWALZKDgiFplA8Bc9WCGygTS/jADPvC6mg4JbzIWjEICAAgIoOAVB7MSF4KpasEInZtAIBLokgILrkiZtQQACSREgwSUVDoyBAAS6JECC65ImbUEAAkkRYA4uqXBgTCoEWt9XlorhTe0oZEoVBdd0QFAPAhDIjgAKLruQDWVwWffBqb+vrJBwouCGyhf0CwEIRCeQjYLjbSLRx0Kgg0ImbQIUOJ0XARRcXvHCWghAoAWBbBQcbxNpEVWqQiBAQP0co/UfBRcYCJyGAATyJZCNgssXMZZDID0Ck3F6NsWwCAUXgyptQgACSRBAwSURBoyAQM8EuA+uZ+B0BwEIQKBjAvyJ2jFQmoMABNIhQIJLJxZYAgEIdEyABNcxUJqDAATSIUCCSycWWAIBCHRMIPlV1IuxWe4ZX8izkHkt/8gztKEnMaSeH1//OqnnH/eva1pPrhtfCl85MluOzy/NgZb4m9oh9aRX3z85L8f9fbnOL5vW86+Tff/6un2pL/bJvpT+dXLcL/16dftynfTn15PzofLJRahG3udRcHnHD+shAIElBEaTq/+WnB/81P5ToxyOzwq59Xpg4t//phH1NzdnpdrW/vnAltF9DAIbVuK88sKNGM0P3iYKbvAQYAAEIBCLQPIKLpbjtAsBCOgngILTH2M8hECxBJJfRT21q6en58zB9TFKb94wv3n+HJzMhfZhA330T+DFWxv9d9pDjyi4HiDTBQQgMAyB5BXcn/7xoCLzzl8fVuX6Jjk5xlAZXxquf/zVa1Xzb732fFWKgv7FH+4Y/htJL7rHQKOyzcnY/EX08neeq/x77+3XVfpJtlAZVpyCAAS+IpC8gpMwjeVG+vVh5+LkrsHQO+1D9erO+8f9feERKuuu84/L/rjhHKf88of6l/PSfojXdevLdW1LsUuuC9kn9aWevy/tSBk637Re03akvVAp7YXqaTmPgtMSSfyAAATmCGSj4OYsH+iA/IKHug/VqzvvH/f3Q/3K+brr/OP+vlzfVdm2/bb1r2tn035E8fj1/X3fjtB5qR+qFzov7TQtpT3xq+l1udZDweUaOeyGAASCBFBwQURUKJmAKJ5UGYgSS93Oofih4IYiT78QgEB0Aii46IjpAALxCKDclrNFwS3nw1kIQCBjAii4jIPXqemzr3/rtGkag8BQBFBwQ5GnXwhAIDqBbBScvHN+bS0vqZHNKhePmEb/x5ZUB4XEGwWX1KjDGAhAoEsC2Si4Lp3usy1WufqkTV+NCeT1h1Bjt/yKKDifCPsQgIAaAtkoOPn+oxryOAIBCEQngIKLjpgOIACBoQiQ4IYiT78QgEB0AiS46IjpAAIQGIoACW4o8vQLAQhEJ0CCi46YDiAAgaEIZLOKOhQg+oWASgI8yaAyrDgFAQgURAAFV1CwcRUCjgBPMjgUbEAAAhDIkgAKLsuwRTC6kF/0CORoMmECrKImHBxMgwAEViOQjYLL9X1wq4Wnx6uDq2pIvB6jQVcdEUDBdQSSZiAAgfQIZKPgeJvI0IMnKPGGNpD+ITBHAAU3h4QDEICAFgLZKLi+gGfzDYW+gNCPTgKFCHIUnM7hi1cQgMAVgWwUXF+rqHxDgX8XRRAoZFEcBVfEaMZJCJRJIBsFxypqmQM0d6+Z0x02gii4YfnTOwQgEJFANgouIgOahkA0AsnO6bKKGi3mNAwBCECgFwIouF4w0wkEEiPAKmpiAcEcCEAAAi0JsMjQEhjVIQCBfAiQ4PKJFZZCAAItCTAH1xIY1SGgggCrqCrCiBMQgEDBBPgTteDg4zoEtBMgwWmPMP5BoGACzMEVHPwZ1wu5L2rG55J3Cok3Cq7kQY7vEFBOgASnPMC4B4GSCZDgSo4+vkNAOQHm4JQHuLF7hdwX1ZgHFVUQQMGpCCNOQAACiwiQ4BZR4RgEIKCCAAlORRhxAgIQWESABLeICscgAAEVBEhwKsKIExCAwCICJLhFVDgGgcwIfPX1LvmCV2amRzWXBBcVL41DAAJDEsjmPri+vmw/ZDBy6FtUQrJfi8oBYgQbicdiqCi4xVw4CgEIKCCQjYLjy/ZpjDaUQhpxwIpmBFBwzThRCwIQyJBANgouQ7Z5mVzI+8HyCkpza9vOjZaixFFwzccQNSEAgcwIoOAyCxjmQmARgbaKbDJe1Iq+Yyg4fTHFIwhAwBLIRsFxH1zkMcv74CIDTqz5QuZcUXCJjTvMgQAEuiOQjYLjPrjugk5LECiFAAqulEjjJwQKJECCKzDouAyBUgiQ4EqJNH5CoEACyc/BXYzNcs/4wizzrW/OLv+0vf+nwBjjMgSKJYCCKzb0OA4B/QSSV3BvvHqrisLPf/ztqvzf7llV7j+5rMrTZxdVKQrPX22V++dGGyi/ChT/g8AVgVL+8kHBMdwhAAG1BJJXcD9541sVfCklEqd2Tu7xiVFwO4fn1an7B8+q8uMHRult7Zvjt3fM/u7RrPK7NNWl2aufNrPplN+6HJDj06psQSBXAvL2kVztb2o3Cq4pKepBAALZEUhewdURvWlXU1954UZVRcq11543l/yo7kpzfNsqvpDy+2LfKMTPHxmp9+TU7F8aYTjXiVN+uc35zU5RzvnFAWUECnn2GAWnbNziDgQgMCWQrYKbunC9LVF8UoaUn8z5nZ6bF2nde2jm9ETZfWb37+4ZaServUdPzZzfsZ0rHJvdq49YGrtH62Zj5M31iVe9rXYV8osuXIsvC1HsKLjiRzoAIKCXQLEKrm1IZc7v5uZGdelbdq5Pyrr2RPk1Xe39YHv2Pr+TE6MIZc7Pf5Jj3Zgz7V4WfQv5hZ46zhYE5gmg4OaZcAQCEFBCAAUXOZCi/GSuT8rQnJ+YFVrtlTm/3ePZ1d7jp2Z/7K/2OoVn5/681V7plxICGgig4DREER8gAIGFBFBwC7Gkc1AUn5Qh5dd0zu9fn59UTu4cm1XhnQNf6s0yGJ+b5d+6Vd/eVntnzWIPAksJoOCW4uEkBCCQMwEUXM7RW2D7def8RPn5TUp7v/np96pT/rO9j+xbXY6OvdVeO7cnik/albe6oPiEyDBlKfxRcMOML3qFAAR6IICC6wFyDl2IUquz9bc/e2nhKVF+e3YVd88qOXmry3+2nlbX3T80c3j+aq97ttd7q4sov8Gf8FjoNQdzIYCCyyVS2AkBCLQmMJpc/df6Ki6AwIoERPmFnvCQJzuOz+wzwHv2rS5PzH1+dWa4Jzy8JzpKmXuq4yLH5V/9K999rjr03tuvyylVJQpOVThxBgIQ+DoB5uC+ToPt3gjInJ/c3ydlV/f5yWqv/z6/wyOr/OTvFv/JjqHf6tJbBMroCAVXRpzxEgJFEkDBFRn2fJ3uWvnJ+/zu7ZxWUO7ZNzjL+/7kPr/Qs73+nF/yc32iYPMdCo0sR8E1wkQlCEAgRwIouByjhs2tCdQpv7bv89u3b2b+1L7BWb7e5r/V5cMvzLO+c29zEcv9uT/vrS7RFaC3uixmaStRcNoiij8QgIAjgIJzKNiAwDyBOuX35su3TOWar7fJfX7yDY9t+73eO/Z7vfINj9rV3kPvPj9Pcbk5PzHZKUI5ECiZgwsA4jQEIACBxAmg4BIPEOblSUCUn3zD48VbRvE55VfjVkj5yWrvl/bZ39s75hsebrXX/3qb148ov8m4DAnHHJw3ANiFAAT0EEDB6YklniggsKryCz3bK3N+8oxv4JHe7Imi4LIPIQ5AAAJ1BHibSB0ZjkOgAAIy5yfKUZvLKDhtEcUfCEDAEUDBORRsQAAC2gig4LRFFH8gAAFHgATnULABAQhoI0CC0xZR/IEABBwBEpxDwQYEIKCNAAlOW0TxBwIQcARIcA4FGxCAgDYCJDhtEcUfCEDAESDBORRsQAAC2giQ4LRFFH8gAAFHgATnULABAQhoI0CC0xZR/IEABBwBEpxDwQYEIKCNAAlOW0TxBwIQcARIcA4FGxCAgDYCJDhtEcUfCEDAESDBORRsQAAC2giQ4LRFFH8gAAFHgATnULABAQhoI0CC0xZR/IEABBwBEpxDwQYEIKCNAAlOW0TxBwIQcARIcA4FGxCAgDYCJDhtEcUfCEDAESDBORRsQAAC2giQ4LRFFH8gAAFHgATnULABAQhoI0CC0xZR/IEABBwBEpxDwQYEIKCNAAlOW0TxBwIQcARIcA4FGxCAgDYCJDhtEcUfCEDAESDBORRsQAAC2giQ4LRFFH8gAAFHgATnULABAQhoI0CC0xZR/IEABBwBEpxDwQYEIKCNAAlOW0TxBwIQcARIcA4FGxCAgDYCJDhtEcUfCEDAESDBORRsQAAC2giQ4LRFFH8gAAFHgATnULABAQhoI/B/+b5wa5GaDmcAAAAASUVORK5CYII=;" vertex="1" parent="1">
          <mxGeometry x="626.03" y="292" width="72.31" height="70" as="geometry" />
        </mxCell>
        <mxCell id="gFBRsMoK_zdnoC3hOrfU-40" value="Appliction" style="text;html=1;align=center;verticalAlign=middle;resizable=0;points=[];autosize=1;strokeColor=none;fillColor=none;fontColor=#1A1A1A;" vertex="1" parent="1">
          <mxGeometry x="534" y="190" width="80" height="30" as="geometry" />
        </mxCell>
        <mxCell id="gFBRsMoK_zdnoC3hOrfU-41" value="" style="rounded=1;whiteSpace=wrap;html=1;sketch=1;curveFitting=1;jiggle=2;" vertex="1" parent="1">
          <mxGeometry x="624" y="150" width="150" height="110" as="geometry" />
        </mxCell>
        <mxCell id="gFBRsMoK_zdnoC3hOrfU-42" value="" style="shape=image;verticalLabelPosition=bottom;labelBackgroundColor=default;verticalAlign=top;aspect=fixed;imageAspect=0;image=data:image/png,iVBORw0KGgoAAAANSUhEUgAAAEAAAABACAYAAACqaXHeAAAABmJLR0QA/wD/AP+gvaeTAAAACXBIWXMAAA3XAAAN1wFCKJt4AAAAB3RJTUUH4gIcFCwOMvHmawAABNVJREFUeNrtWl1oW2UYfpK16X50MpmgTNae/DSnncJk04HDnx1rk84luVLwThmyAwMFl6nMG68UNRX8gxTZ9cBdSP5qU9dj/RtTFJXRNmlOkzr8RS2Ksi3Z2s+LJng6iM33vmlv/J6r8yXn6dfzfO/zfu/7nQAKCgoKCgoKCgoK/0u4KKR3d+3C9ouLPgCPAVhskSYAzBqVwikA8CdDNwB4BsAVial/t838m42BJ5Z4CUBV5n+vpeIvOMcdFAEemZqCpemPA3heknp8+eEHASAC4IQk/6Tj4e8E8Jwk/1MAKwRwM6LnIQInCwC2OQ4Ahyh8fzLUuKbwc9d+wBFgt+T9V41KoeAYRygC2GaeswCZaz+QtoCl9QEQYY76/mSoB8BmSX7RNvNXHeM9knxRS8Wn2BFgVGbI4WtpQU74ZgCgKzoMTyzxYDvCn2MBSvhmjEqRw8/5kkOopo+RF2BT5HWwLfCh1nedgNgpSVswKoVfHONB2XltMz/pGJIi6FLmKV4EWJoOAUFZvbTD/3cQ+OcaF52xxCYAXkn+n7VU/Ee2BYxKgZp9c5ZX56xetr73w0W0X7MvKDkgSig4M0a5wBagloqT+Z5Ygi+Apem3Arhe1r5GZcZZrt5F8P+3HP+74MrUxaMnwdEbe8jFCwAERoYgxNIBAn/MUf7eAmCbJH++mjp2kW2Bgwvz9P3fG0TpyPtk/uFHQ9gYeZG8/f7Xl7I54KB84VSYMMqs/T9z8lQelzMn6P6PDjf9skPC/7cTJv+yceEbCXkgEJDk/22b+QucBqyWio+3KwLI2duXDMEl6OVv3f/9hIj9erUb1kWAueUOjsT3JcPs+dslwN0E/3/F7R/mzLE1FWDVHHDGq8MtcC9h8g/+LX/DNwFiuyT/e9vM/+UY30Pw/xdsAQbKBViaTlbf+04YWBT07evh1+CpLe0n8K1WbnKvtf/LT4yR+YFkGDj9NLX/yLZy06oRMKEFNwDok5z8klEplDkC2qOBUaTf4uQPvgCWprPV9ydDvQA6JfnnGw/viSVcAG6TtX8tFS+xLVBvf0nhO9nTx8r+ANAVTZCqz1ZXv9UcQDoAuX9+hly9Acj53xhCNU1vf7sOvQq+Bbz6NgjcLDn5T0al8IdjLN0B2mb+LLd+qGaP8yLA0voBQTn8WOH/fQT+x42LzlhiK4Adkvxfa6n4b2wLGJVpcgJcfnfA2z4Zx19pmZvd7fa/S4hc/d0BS4C1OP6StIDuA7BRcvLpA/NF59ti2ddni7aZn+EtAHLNjr9kkyB59QLJEAQQ5uQPTyzRDWCLJH+2mo5faZcFSAKc2dmL0nL7S9r+gm8PsuuHdgkwQGh/Pxm4MMt4AFemeHSctQCd0VekCB1N/L+XMPlnjvZ3CyC6JfkLtjn2s2McIrS/k+2KAFL41vd+AIIVvp5YYjeB/zmB01QAcgK0GcdfzF9/ZNspwF6C/88zy1fnrz/WTYAVOWCiux8u99IANfzrFtgBYKskf84285cd430E/3/DFuCB76ZhaTqp/P0oGMDhJ3UANfLhRUfkZbjdG1ivz1gC1LEHwA8Sf2MzgOx9xRJwtNRogGT4HgDv9Y6EMXvkWXhiif2SfDeA02gHLE13cfiOJEZCV2wYCgoKCgoKCgoKCgrrgn8Ay+yPVxBllooAAAAASUVORK5CYII=;" vertex="1" parent="1">
          <mxGeometry x="632" y="150" width="64" height="64" as="geometry" />
        </mxCell>
        <mxCell id="gFBRsMoK_zdnoC3hOrfU-43" value="" style="shape=image;verticalLabelPosition=bottom;labelBackgroundColor=default;verticalAlign=top;aspect=fixed;imageAspect=0;image=data:image/png,iVBORw0KGgoAAAANSUhEUgAAAL0AAAELCAMAAAC77XfeAAAAk1BMVEX///8AWqgAUaQASKEAT6MAVaUATKKqvNhvkMEZYKrZ4e0AU6UAWKd1lcO6yN8AVqYASaGvv9qQqM3o7fRehbve5O84bLCHosoARZ/R2en5+fyPpsy1xN3I0+Xv8vdDdLNTfrifs9PAzOF/m8YAPZwjZKzK1OZni74+cbKYrtBOe7YANZpyk8IAPJwraK5YgroAMZkpGWmwAAAPTElEQVR4nO2dC3eqOhOGBQJWQUm9tNR6abWtl93a7///uo9kwk0TSAhBexbvOutsrYqPISSTyczQ63Xq1KlTp06dOnXq1KlTp06dOnXq1KlTXv0P7DgOdsj/Hfg/vvoL/Mv+gOFx4eXkXU7+NXognL2Mr9+Csw/C0493FfhhZN2V7L4C/MK+Ne6FlOjP4a1xL6RCv/dvTXspBfp3j34i8O5CivQvcMWGh/nwDjQfKNGvEZwsfyF9soxKjf4zoPDR0CiTvJTof+GKxY9mmeSlQn9kV8nOMJO8FOhXcMW6G9NM8pKnn2IYKwPjTPKSpx/AFevMjTPJS5r+5AL82DyTvGTpn2GkR896X9f/nfE0UtPDWo1+7MAVe9KD772ikCdXTdFUiX7OrtiBJnxv0oiN56nRB3DF4mnF++6SfgNXbLTShb8F/Q5WU95RG74heqxAv4RO7//qw7ff9nMwEILPBuBbp1+w70Nr8Xvul/4Ai/DopQn4tvv9A7tilTw+90LfB5Pe3zcD327PYW6z8Kkh+Fbpk0W43dgivE36c+OL8BbpZ2wRruInvBt65jazR83Bt0f/lbjNGoRvbcRcQ8tbbqNuMxNtjzj0A5hjcbOL8JZ6zi9bhC8bhefS29nm0IWw4Om/CvpJM4twGXqlrY8L8em3DS3Cr9QGfeI2s/RQOWqD3mJuM9VF+KJyfGqBPnGbbSWPMR8fR29nN8KxovD8OzpuRSOVefrEbfYq8/mvyQZ7yHfDIKEJQtdHHj69ft2Cfsmu2LfKzy6Wvw7ygyse+BG+h2ePl13JNP0c4MNKt9lqFtkVW7eh7cyKPiAT9Lm5dgF9PpvOBHq3PKld59Cz8otKw22fLMLL3WYTrLDdj3JuLLP0Ixm32bunaK3Y6aLeKP0jTFP2rOQTK6tGmAUarIzTs0V4cBa/fzHD6uxEeGaYfsEW4Z7YbbZFbj34eAi2t0bpnyrdZiOnLjuRszNIz2JXxG6z9VkzsMje7K5PXTP0zG1mP4jeOrQF06q8Ak6/a4Z+T48sdputtHqNWM3QP0C7iIzcR1OxdA3SuyLnjTH4NuiX5qIYzdOvDIZgGqefy8AHAdnGDpXHJdP0iyqjLPAR9s5v++/v/dsZY+GK5Sb0h1JLPkTO6bjKGRfrr+PJQdIxp4bp2TpX8N3OjBvzMv51JCdms/QvJZ3eRhOhRbeeICl+s/Rio9Kt2vs/YgmL1Cj9SHjJOvtK59NiX70aCE87FRXMsCp6YbC960tFjKyqL99ALbJIhf5JMPjZJ8ldicWm7KJXl6dAv/QEx1CIKB0JjlFPWIFecAhHaeP/WHMprEv/yD/rqoHI7w3iK/QcwQGUg6QmzXUe+bYfc5se1Yiifmgs1UaefsMbcOpt4B6018Sq9HPuShbV2sBdN9V3pOmfedMsrhmIPG4IX5qeBx/Wjgw8NZOnJUv/wmstp3Zw3bQZj4rsiMnrOL7G9jPHj1ZDsm0/4HzW0Yi5WDSytJekn3ImSFcrYWbURONL9pwlZ4LRS9uYN2EwSLY9p6UCzUijcwNTliQ956t0FnFE7w3YC5L0nAFON3uAdymZoZ9zRnvtxA3eMGbZWEHOPyn67bV9qTfiEPFGHSM+BU4ftbXDvHirHSP0nJnW046JHXK6oxH6/fVJxtrBjWvOZWuE/u3aJPRKjiOpttr+2pHTROYJZ9Bpi76BxFqOc6sl+rAB+hOHXmMka7ntOfRINnjv9vQc48nTyCZSoLfMXLWehtUtHjE5raRPzxnvdWaR289WSON4N7cUtK6mdq20/vVBhZERWvRtWcha67V2VyfXh9TrjjdfGTo6B8wieWVW5ZqZnu/XI0GglV4hbnuO4y7QzJbkNIivlayu5o3Sy18acjqO3iis6AnUytr75qzJfZ0DlvT7xr2wa844oDkIq3rANb6N5w7RMTDL6fm7D7UHTf7uQ/yCRrGAsp0f7o5h7RGOtwHpkyFYo4ZWSb/n77p5NXfduBEPUdzuc40xs3THk+s0LYlvLxF3x9MlpQImGlOg+m5zvSmL67qn04dlin7L3WMVR4mLxa3sSK+h4YexyC4efNx3Jqrf8sptBkzm2W/PGL0owkXxZPMDdOjG9cIxGFXHb3wLK7X+K3/LhNaumvgG6UXRBZ6CwfPAPwZM257RiEZRZIp9kLR41gfBVptNXo1XzybpheHfoZwHbyyKaIRYE89wNOlOGE2KZ5Xz1vpXtEvo0lgTMpubjeQVwcdvxpPy7vPsCKNaaFkYariZpS8rPe17z0Kbc/qMxXH7EU18piE7hiPYJ2XBrL5zukpg7pG055NTknMAdRrAcDOdPbApje0IUHSYbHOnYLp9PTilmWVQp4GlNRrPOwkqoiNCH3nOYPP28PC2GUReVeYGK5bISgcYp5eLLwhCyaQZKL3GyvO0kLFUlv+gLGqcZYNBC9li2+bwIQE2q0PfRqZeY8luLHs3q0PfBn1v3Aw+BvhTNpy2Qt/7aiCeMkDgStznLLd26HtzVzea1f0Ey+g7P/+1RN9bHPRSSDwWBbwvHKYt+tjg1Oj8QcTWk7/FNmiPvvfl140I9S3m675crbRIH78N1wmqDCLmvp1eJca3St97Gaj3fvTJGn55/du16QV+TJH6tlpUqO2mgD+cV1tte6KjL19bAaGc96etuLQK9QeezPUbekHBc3Un9HH/3+OKkiiB7fxeOB7uhj7WeO95Pn8CDlzkbPpXTod7oo/1cnxDGNn5imOk4Fh03m15/oYP/0qqTtEm6Ymmq/fdbDPwHMeJ0OC0nzwKN2F3z1faaVR2b4L+dvoP0CvOVvej/0Dbd/Q3UUd/O/1t+qBIH/xux39GWwhXyuitAP0hgYnrPab0f0+Qpf9X6SFL/5q+atPhLsS8uhf0yLEOhwHWqQ2Yv2dls4VcMiEWc1Cg9wdLekIW4/p1Gc/Dl0wrM/jpDf7y9CgXgvNcsxBCMQpp0WQdl0zpLTlz9DTiKtWuXusX6XlZD/rKCpHm6C8CVAe1+n4LbY+ygLyMnoV6b/d7WO7zS7lUCeinz69UzwbG43yx74wewnUnketi6P8a9MMIPAcmJpP8DTVSeshjWVNXvTPkTwUSYvSNFo0qqHALnBQRQuL7tMGh8sayTuObpi9W303pEXWwQMwznAdeDkqlDNO7xWIyKT2UX2eRpJDLVWfDxyz95T0pUnrIY2HR93AFcysJVB3fKH00F9DDDWrZ+Awn4hRYdmxP+1bgOVHm+g4RjnBSkN0Gg9uO/4QCLn0Qv8ZejM98/PZ4GvTx54A8RKRoYuTQovoBPWzpSHFVcjqhZ7MM21v22KBj97fj7dF7iie36S75ZTMy1c2f6VObLHbiaXkcn6zV2eXQx7bTOp62trT0nrsjizgbvy56p1H8cInwLm6o+QxZ7idxmw8FgZDw06+KxKf0EPqTENK5eOfSyO8X1tmgbHVa840S0goZj0kS6yG4os/Cl0nxN0Sz/v5HOA/99GGsEUoMr3fhSMe5EUtCD0bOlH0rDECvPu1B22SEJQFluWl6hRP6ZP6Y40v6fNrBs28h+tPpRuKB9IJ1WhTJTd/GDUEn4hTCKaM/An26mfDiJQFOENE1C4vVSXq9T0b/8g+T2wtdFJwKGD1AEvps2sze9ygwD3lx1yk9dYok4VCQ1/lus7tY7FmSjgsr+cVnFKzh1wD91osgSHYfFqw016X9Zn6w4Hh+Qj/sP34CzCh4Yhbjt3V+YW3EE/f2hCk95UsmKKDvM/pXj8V/f7uYUE8Qu3Fa0vZRstrZuQV636MhjIEbfExp2zD6E0Y23PEjPnQAx4gfhX6e4aLTc3M1i/RDLr2b1C/q2/TCIbWGaT8duThpLbjqX/0iffoy2CEB0NPYNNi4+gySAY50d9o2fHp+1lFK/yCkp0sMWtp0henpI8/pfNa34aqlwwR5dCzS20/sN1shHez21AkDlZaBnozQENpMu/ZQRI/5Kcr8q7ZATzsifTSPJsmvoV/0hTJ6N08/P5F7Yu/9b/KEhB3DLTFencfk1+fo4cu8MnpfkDYiQU/znemB1zRbZPjjed7Hlr49ow/z9ENMb4rtT9KvoJHr/eiCns4v0J3K6IW1TIqzVZGejZgUjs5fix/CvKDugjU9CyJ6dj8G2r4z0lHoG8dA76jSC/OTi5ZCMtdCV5wAPU1qR3T0+LncBJehp3U46Bu39dpeXCAyW0D10mZJZqvYUsjoKfe/i/TGCno0boK+5LaWFxZywUrbh5f0P+QMrB+XieyKtl9y6dV6Ttk9cFJ6OtYmJn2yVMnowW6jPWf4YSey1Pp9rbYvS8rP1lbDtJ2SE4HgV4yzq/ZjmaKRSthhBT3MUbS6Bz3isgZ96X3msnUtmH/sKXkcj+uUnjojac2V9QcxGOjAFDyNvkf7sJweJnB6TDrRv1+O99X0dmlickoP3wTTJgz+L6zt6eHo3DqPqEVL+q37TF8ppw/eKLOfDMgjrEpf1unz9DAjgD8HsmmPPuv/5G90Kt16FIcU2aEZvltUTg9zFJntwMdy8FTpKxJjsxETrg7iO/Zhaoshgf7NZSlq8fRF/0EsLnoCZhi1yLn0UOOH2Pn0snGQ4phTdXPFjB6m9d7Rcr+prU6yhIF+6niQuPAWwtATIm8Dv6+i7eGyHUcRtVOWtiJ9eacv0F8WKSJDBVudLNgtFjEzRRd9OpDHa5kKeuapWMD5P4RIqedU178W+u9X1JKkV23yJ1JcJ7+4nLk5+oBLb+fSx8eepUZfXf+6sHeSO1Hw/WBjMi8KTRLPrXHIIqOK3sJpzyU9UannVNyf8JLeQhvmPliw5FhK//VDh6AhbEeEFhx0MUo9IsuU/t2HRViu7zqv2W9lHhGgT08Dyux7cmJTz4DEHUWLbu7Asx4mx90myVgDes8773aHdBvEC/bPuw27LYgTRRE4AeIHERnZyb/5Qc/Hb7vdrwdvsuMXmS2VPSSPwGfqZZ+VqpF35aR3fd9NPSpAj4hZkPeyhMWnVQrcGvkTtkwmb/kWQ0Lfvkpu8Xf/9Eguhf0+6V3Jcmr3Se9Lpq/fJb1cp6+mp+7Ktunl701STo+WX19fnIphRiVx72g5egvRnZ925VZTS9LfQIXt5L9GL76Z6x+gd5XuTXJn9JydtTLNIicTprtNDvufkzzCyX/O5WuYvZ68A+PcZ+CIOHuO8wfIPopx+mf8o1XUr1OnTp06derUqVOnTp06derUqVOnTv9B/R9kZEpEca6FowAAAABJRU5ErkJggg==;" vertex="1" parent="1">
          <mxGeometry x="704" y="154" width="39.64" height="56" as="geometry" />
        </mxCell>
        <mxCell id="gFBRsMoK_zdnoC3hOrfU-44" value="" style="shape=image;verticalLabelPosition=bottom;labelBackgroundColor=default;verticalAlign=top;aspect=fixed;imageAspect=0;image=data:image/png,iVBORw0KGgoAAAANSUhEUgAAAMgAAADICAYAAACtWK6eAAAhWUlEQVR4nOy9DXybVd3//zmC4N26BqVRdEsTRRxNMh5cu2ECDWxzLEWxsGqjsHU8tZ03rbqtuHG3wH/dX+q6cUvrTR/GHtr5kEon3ZRmbLiRYuKgnQyWpEx5SBpQNJ2asERE5fxevdqOrmmzNrmu61xXdr1fL1+y0+Scz5Z+cs51zvd8v+dTSqGgoDA5H2ItQEFByigGUVBIgGIQBYUEKAZRUEiAYhAFhQQoBlFQSIBiEAWFBCgGUVBIgGIQBYUEKAZRUEiAYhAFhQQoBlFQSIBiEAWFBJzPWoBCivg9mYiFP8z9t9Z4Cpmqf7OWlE4oBpESPtc8AB+Hz301ABUCnksQDV/O/SzgyaaxyOVJfGb/JhlZr0BrHOL+lKka/u+3AZyC1nAMmapT0Br7kan6jwB/I9lDlPsgjHjzhBY+lxk+91K8eSKXvnViwTTedZLMnuvGnLnvznCsC+hbJ8wAshO9iiy8+beYM/dZzJl7HNfc/NyMxkhTFIOIQTT8Yfhc1yLgNXOmCHiuprHIJ8e/hGRkvQGtMQC15ijUOZGR/9ecAvA29OYTvOrxuT4P4FOcroB3IWLhj8DvWYBQ8CI6FDxtVKI1PA+t8Ri0xhehM/4WevPLvOqQAYpBhCAaPg8+12IMuBfB57qOBrymcT99l+SajnC/cFrjy1Br3oDe/DxDtfH4PTqEBj+LgPcaBDxG+D3z6FDQOPw3I7mmXujNv4He9GvJ6RYAxSB84ffo0e+wwuey0AH3jQAuwMjM8BfozYeQa3JCZ3RBbz7OWmpSRMMXIuC5Bj738Cx4LR1wD880F5I8qwO5pv3It/ZAnfM2a5l8oxgkFfyey+BoLYPPfSsdCn52rJlka04g3/pTFNiegM44wFakgPg9RvTavwKfq5gGvF8gWsMLsJb/Hy69+hnMmftH1vL4QDHITAkNXgKn/etwdt5Nh4LzxpqJ1vAM8gqfQp71KeiMf2ArkgGhwU+gz2HFgPsm2u+4icye+ztc85U9sNg6oc75E2t5yaIYZLo47cVw2m+nA+6vjjWRbM1xWMseQ751r5x/CQThyL4b8OLBIvQ7buUe9C22H3NmkRmKQRIRGtTA0VYBp72UxiKzR1v/QQpK7LDYHoXe/BJjhfKgr2cxejtXwOe6jjOKtWwH1DkB1rKmg2KQyfC55sPR9m3a71gx1kQysv4Ia1kTLLYWqHP+zlagTImGVdzy1NFWCbXGh+LqRujNbtayEqEYZDw+lwVdDQ/QAfeisSaSrfk9rGUPw2LrQKbqfbYC0wif6xp0NdwLYDYsto2w2A6zljQZikHALQGuh6PtQTrgvn6siWRrXkNx9f/Icd0sK0KDWnQ11CLg0WHlpjrozU7WksZzbhvE51qIrob6M4wxvJRaXl2DwvKdbMWdY4QGZw/P3ggFL0Vx9YPQm12sJeGcNcjwWril6gHa71gzvpkUlDyGlZu+xwXwKbDB77kUHTWPIlM1iIrGDchUhVnKOfcM0tNaij0NW2kscvFYE8k1PYvi6m+fi7FGkmV42bunYSMKbO0oLN/OSsa5YxC/5zK0VD5OA96CsSaSkfU3LK/+FgrL7WzFKUxJ1+Z16HcUoKJpLYsD2PQ3SDR8HroaHqL726oBXDjWTHJNv8DqxruULVsZEBqcg+aqx6A3uVB83w/EHDq9DeL3zMPW0t10KHjlWBPJyPo7lldXoLBc2Z2SGz2t30Kv/W5UNN0mVoxb+t5J79p8L92w6IUzzKE19KG2+wrFHDIl4MmnAe/VdMOi5+G03yLGkOl35TYaVmFr6TY64P7a+GZSUPJDrNy0BpmqNJ4y05jmyh20t3MVRlYBp6A1viDGsOllEL/HiK2lPxu93MPBLalWbvoGLLb9bMUpJE1z5Wba23kHxjZWaru/BJ3xLTGGTh+DHNl3C7ateZzGIh8fayIZWSextn0J9OZjbMUpJI3TXkp7O6sx9mVX230DdEavWMPL3yDRMEFHzenpdwyiNRxDRdMy6Ix/ZidOISWGzdFStQsfmON66IyiRlDL2yDDzxt1RXYa8C4b30y0hn7Udi9hfQqrkAJO+9doS9VYuM87qGhcJLY5IOtdrBFzPDuJOfagttuimEPGOO0FtKXqx8MfJ4B/kYrG5cgvfJGFFHka5ANzXDW+mWgNu1Hb/TVkqmLsxCmkhNO+hLZU7Tud9KKicRUstoOs5MjPIFOZY+HNdajtLlW2cWWM076AtlTt5bJKfmCOn7KUJK9nkKnMMfIP2c5OmELK+D1XoqPmaQAZkNBnKq8ZpK7oqThzFJTUSOEfUiEF/B4j98UXi1w0/EeyrOy7UvlM5WOQ5sqdNOA1j28i8627sbrp/2cnSiFl/J5LUFf0y9PmKCjZjNJNP2Qtawx5BCs2V36f9nZuGN9EtIYXUdt9rfJALmOGl8xV85+jsQiXX4wUlGzD6qYy1rLGI/0ZxGm/Lc4cGVkh7oRcMYd8GXue/MAcu6RmDkjeIH7PFbSlqnlC63+wtn0Z1Dl/ZaRKIVUmbLaMmuMO1rImQ7oGGYnKtQOYNb6ZLF+3Bnrz79gJU0iJEXMcOm0OreEnUjUHJL3N21zVRIeCueObSK7plyi+r5GdKIb4PRrEwiMJskPBCxEKzhn98hh+uP079z+t4c1xJdj4ryuSKhNnDq3hAGq7JWsOSNYgR/ZeT49+kNVwlH/jzvq7GSkSlyP7boTPdRUiJ+fT5/ctBJCTQm8xkms6gDlz/8DV89CbnkJW9swqVPHF1tKO0+aYdfHbuP8JGzJV/2KiZZpIcxercv7x8Xc6hiEr6r6DwvJH2YkSkL6eGzDgtsLnMk8otiMIJFszAJ3RjVzTC8i3PgF1zt+EHhPtNWvp/rYtYBiZmwzSM0jX5vV0z5aHxzcRrcGF+sPXshMlEE77cvQ7volo+OOIhc+nAe/lZ6kjKAjcVWS9eS8KbL8Q5K73xLD1isYlyC88yvs4AiAtg/g9n6EbFnkB/Ne41v+Qhw8ZoDNKaz0tND7XXACXIBo+HwHvAsTC/wW/Jx+x8EU04L1GqGG5XMT51p0osHVCZ3wj5Q6d9ttGI3OHCZPaJ6+X0wU2aRlkY9FBOuBeMr6JLCvbiNJND7ITJVH8ns+N1hH8InyuBQh45k8sDJoqXFEga3kbLLYnkurAaV9KW6p6AJwH4D1S0bgIFpskUopOF+kYpKf1brq7dtv4JpKR9SYaj+YqqUCnid9zGX7/wgK89uK16Hcso7GIjo9uSbbGD0tJHazlu6ad4f7Aji/Rnev3jO60UVLR+DVYbHv40CMm0jDISMjBqzQWOWP9TSoab4fF9hN2wmTO8CzTa78ZfY5V48vFJQvJyBrE8uoHUVi+K+ELj+xbTB+9+5nT75NIZG4ySMMg7TUP0f1tZyyjSLamH01H89mJSjNGCo6uRr+jdHxii2QYLQ1RCYvNEffDrs130D1bdpx+rYzNAUkYJDR4Ma3Kex1A1vhmUtG4GBbbIXbC0pRo+AI47d+Eo612fGXeZCC5pv1Y3Xg31DkjKXjG7VZhJOrhThTfJ+syEuwN0l5TR/e31YxvItma59F0VLCdGoVRnPZCdNQ8RmMRbbJdjOYdWw3gH7Slqvt0+/LqlSiu3s2bVkawNcjIs4d/7C7AaVEVjbfCYnuSnbBziGj4PDha18DRdv/Ez2GG/HM0OTgly6trUVydFvd02AYrOlrviTNHtuYPijlEJFP1HxTf14D6Q58jedZUchZzmfPJirpvp4s5wN4gbVVxbWn0jysr1DknsbbdRtbs+jKX3jNZeu13wucy8KqNIewM4rR/g8YimvFNJCPrL8izKtu6LMkvfIqbTXJNv0zm7TTgvYrW3eLBkX2L+RcnPuwM0tMaH5lbYNs2LlxbgRXqnL/ige6bybKyDcl2wZ2DNFc28CtMfNg8pPuPf4ZuWPz6hNZ/kMb+uVDnBMUXpDAlI7FU2ybEx00bUlCyE6ub7uRfmDiwuQ/i7LxrYhMpKOmUjTlCg7Pg9yxEwGtCwHMpouGR+xpvnrgAF2Z8CGrNB/ctMlWvQGt8G2rNS9AaX4HO+ApD5TPHYvsJAU6go+ZgMrtctLfzDgIQKd8aTASbGaRy/gk6FPz8GULW7PoS8gufEV/MNAkNZqPPcQt67SU04E1lfX2KFJTYoTcfRJ71V7JJPNHXs5g+sqpnLCXoTCEFJfdjddPD/AsTFvEN4j+upxsWn1HfgWRk/QnbX/20uEKmidNeDKe9hA64iwXo/Z8kz7oXedbtsNgOCNA/vzjtNtpS9bNk3y7HsBPxl1jOzm/EteVZpXXuEQ1/CI7WVXB21tKhIC8RsVNwIe13fB39jq+TrgYfiqvvh8W2V8DxUsNis5No+CN0d21S4SO0pWoXAaKw2Lr4FycM4u9i9Tviiy/mWZP+VuIdp/02VM1/ne7Zsl1gc5wBHQrquVCN9Tcc5qJwpUph+S5SUJL01WfaUrUDPtcX+BUlHOIusUKDc2hV3hkP4tzZx/ZXeb3okxQ+13x01Dw6Mb0pI94hK+qqzhpWzpKNRT+fWCh1uozeSZ8PnXHiTqbkEHcG6XMsi2vLNfWIqmEi0bAKzZWP0rpb+iVijmFmccuY5soW1kKmZG37PSQjK6lfcG43rKVyD6LhDP6F8Yu4Bhleb08kv5Bd9dm+nmtRNd9LezvjQ14kAO3tLEdz5U6uDqPUyFSFsbb9m8m+nUv/01z1v/yK4h9RDUIH3DfENepNbLZ222vup4+seo7GIrOZjD9NuOKkdUXS3PnRm58ny8rqk307Peoog9Me/0wqIcQziM+VN3HXjMvPpM45KZqGMZorH6f722QTFEkD3hVorpRmRsni6nruOTJZOmqauWWuRBHPIH7Pgrg2valXtPHBPW/Mwvob9tLe+JN8qUN7OyvR03o7ax1xDC+1llevTfbtXCaW5qof8SuKP8ScQebHtWmNvxVt/JG8sIdpwHuzaGPyDN1d+yP4PUnf/hOMwvIfk2yNO9m306OO29HXs4RfUfwgnkFCQX1cm84oTpb2EXM8TQPeeJPKCxU6araxFjEpqxvvT+n9HbVtiIY/wpsenhDNIHQwLhvg+9Cbjws+cDR8HuqKHDTgXSj4WCJAB9xfgs9lYa0jDr3ZSXJNzyb7djoU/AwcrffxKyp1xDGI//jnJzaRHIM4y6uOmjYa8H5RlLHEoqsh6XsagmKxpRSMSPdsWYvQIPtD43GIY5BY5FNxbWqN8KeoPa130d5O2d5FmAo64L4RocFUSiIIg8V2gMspkDxZaK+V1CUrcQzic+fFtenmvSbomH6Pju6ulUy1VN7pc0hzs8FatjWVt3N1YSR0p12sZ5CPTtI2KOiIHTX1U4ybHvz+BWnmDbvCEp9tcaYc2HEvL1p4QKxnkE/EtelNwi2xfC4zHXCXCNa/FHjtmDQjfudcPkhmz/1FKl3Q53/5TakcHor1DBK/xQsIl7FdwgdPfEGHgtLdlbuz/qEUe8iCo1USswi7rCZagcpvOe2ldCh4lSB9K0wPPrbvHW3f4kVLiohjkFAw/llAiPQ+0TBBR83/x3u/CjOG5JoOpvJ+Got8Gk57/O1TkRHFIHQoOFeMcdDvWJlKImYFHrnm5tRvifa0Mt+iF2uJNWvCn98WZJSuhmpB+pUgXAZ8KXPNzSlXk6KD3iWsz3uYPINwpdX45si+G+hQUDL754KjN73MWkJCsrIjJFuTeuFVZ+dyXvQkCZuHdK2R/x2sHd9r471PKaM3Jx33JBpqjT/lPpz2FbxoSRK22d35oq/nOvrOSWmeCwjDKeRZ97EWcVa0xpSXgXQoeDVCgxp+BM0cNgYJBfkNa+53pPeh4ARIQUmHLCr/ZqoivPTT5/gyL/0kAROD0KEgvxGbPvdSXvuTNqdQXL2JtYhpoTW8yEs//Y6beOknCcQySHTCn/mbMv3HNXQoeBlv/UkcsnxdPdQ5f2KtY1pkqv7DRzfcHRhGiGIQLjnDmfCX8lQ6uawEh2gNfSi+TzbJJnjkAvhcTD5ncWYQtUa49bLfc06ElXBl0SqavspaxwzhL3O9z83kFiW7XSyfi5/T9YBHukF7/PEe1rbfCJ1RHkurD3ift558rmt562sGiGOQjKzJisZcwkvfAY84YSzsiJGKxmLozX2shSQBf/dxAp55vPU1A8QxiG5efGiJ38NLRkM62XXeNIFkZIXIml0FsNiSKqiZTtBYZA5Cg6LfERFriRW/NIhFUt958rkuT7kPiUK0hiOoP3Q58guPstYiGULiX2MQxyB6U3xMjs9l5KFnSWXA4AuyrGwj6g9/kas2K2d8bn6XRXz3Nw3EqTCVkRVvkFDwUlHGlhFc3YyKxluQXyj9OKvpcTGvvUXDal77mwbiGGTkGeSfAC4ca6JDwatJNEyQqUq+gg/fISsMIcNfIrXdt0Jn9LHWwhuTpZtNhYAnPjuOwIi2zUtyDEfiGgOe1BK6hYLxySBkCMnIehm13V9MK3OA+3z4jnAQveCOeOcgOqM3rs3nzk+xV9lHI4+WIyuCzvg31lp4JTKUQYeCvG6i0AG36DuW4v2CTZakwX881ZSg0o9oTUwYa9uXQmd8g7UQ3jmyT4iLTqKfeYk5g8QvsSarODUT9KahlN7PGK5QpzwPAM/OkX1Jl2eTEuIZRG9+eeI3Po1FPgGf6wrRNEgIkmtyoLC8g7UOoaAD7viCrTJE1DU8yTUdjmvsSynWn//UQeJAsbpxNWsRguFzCXde4T8uajpZcR9yLbb4VDCp3AbUGmW5PCEFJbugzgmw1iEYO9b/QLC+Y5GLBOt7EsQ1iD4+mRgdCl4J/3FdUv1lqt6T5SxisW1hLUEwfK4r6VsnrAKOIM7Z3SjiGkSdM0RyDPHf+s7OpGeRSc9XJAx3eUxvTq/zjvE47d8WeIR3Be7/DMQ/R9CbfxXX1u9IPrWLWiOvLVK96desJQhGNKyivQLnsVJr/i5o/xMQ3yCWkicmNnEJ33yuK5PqTzfvGB+yRENv/g1rCYLhaP0Ol5ldSNQ5aT6D6OYNkFkXxz+gHtmXXB5WvUle4eBqjTBpV6XAgZ2SyMjOJ2xCNa5e8lRcm2vP15IqmiJmrXV+SE+DdG3+b/rOybSIjRsPG4NYbHFpQrmbgY7Wu2fcV6bqPZJjeIYvaYIjRF5i1oQGL4KjrU6EkUR/3mRjEL35JZKtiQ9edLR9l6trPlMsNumn4RwjFvk4awm80177vzQW+ZjQw5Bck+hnR+yiYa1lj05sorHIbDhaV824L71JTne2P8taAK/09dxIjzpm/pklxz9EGuc07Axisdm5UO+JONoeQjR8wYz60s3zk1xT3O6YJPF70qfAT2jw42ip+olo42mNom/IsDNIpuod5Fnjt3xjkTlwtN4x4/6Kq+VReo3BrTjBaK7aTmMRfq/VJiJTFRZtrFHYXjgqrp48jaajbdOMd7T0Zi/JMUj/jMGXHlGuaK6sowPuIlHH1JtEj71jaxB1ToDkmnZPbKaxSDa6Gr434/4Ky7fxJU0ouETbPpe806V2bb6L9nbWiD6uWjNZAkJBYX9ldYqlEd3fth5+T+6M+sqz/oxkZEn/EpXw8UrC4bSX0j1bHmcwchjqnD+LPSh7g+jNr5H51vZJfkLQUrl9Rn1lqv6FAtv/8aZNIGhv5yr4PclFMLNk2BwtVbtYDE1yTf0sxmVvkGFK6x6YLGydBrxfRNfmdTPqq7Csides4kLRUdPCWsKMaK/5NitzcGiNbhbDSsMg6pxBsqxs82Q/onu21MHvmX4WRnXOSVJQ8iM+5QkBHXDfiJ7We1jrOCvR8HlortxB97f9kKkOvcnFYlhCafJ523glGlZh/aJjdCgYt/Qg2ZqX0HR0+g+2ocGP0aq8PwKQemK5GFmz6yvILzzEWsikDH8mdUXP0ICX+dY0efwPH0WmamKlMsGRxgyC0T3u4urKyX7E3Tpsrpz+g6E6529TzUgSIwMtVXskuavV11OAqvk+SZgjW3OMhTkgKYOAO13/Fck1xUf6jjzY3oWe1rum3Vdx9SMkI0vyBWdoLHIRrbvFhZ4kQmyEIDR4EbaW/pg+sspJY5FPs5bDkWeNu6otFtIyyDCrG++cNARl+Jdpd20rfK7pfaMNz0grN8klc0gG3V27E1tLf5ZUyD9fdG2+F+sXvUH7Hbcx0zAZelP8LVSRkJ5B1Dl/wfLqqX6xz8PW0oPwT7OqlMW2l+SaunnVJyC032FD1fzXZzRT8oHTfhsq579O92xpoiJnDTkbJCPrr8gv7GU2vmQe0ieypfSn9KjjG5P9iGRkedF41Dyt2JzhJcP6RX/gTudlBMnWvI7i6o3Is/5sNHsLv0TDmXDabXC0/Q8dCn6G9/55gsxf1o51HcyWn9I1yMiu1pGpEiATreEYaruvn5ZJ+nos9JFVT48vvyAXuG/QPOtPYC3fBp3xeMod9vV8Gb2dxXQkH5nUd/lA1uy6GfmFzK4zSNcg4ELDr6QbFj0HYNZkP56RSXpaV3HrfBlDMrICyLPuh958GFpjP3TG1876Jp9rAfye+RhwX0/7Hdap/i2lCMnICmH7q0yv8UrbIDj7LzbRGtyo7V6ETNU/z9pXc2UT7e28l2+JDKFEa3geGap3kal6hcsZFQ0bAHwYAc+naSzyedYCU4EUlDyG1U3/zVSD5A0C7hf7cW6bdwqI1vAb3P/ELcjKThyoGA0T1BUdoAHvEiFkKvALqX0yH3ozkxisMaS3izUZq5vuJrmmn071YxrwXot113nhtF+XsJ9MFUVt961Ea5BXqqBzEJKt8bA2B2RjkGHWtt9OtIYpH9boOyc/QVuqDsNpL03YT6bqHdR2L+aWZgrSxVr2CGsJkM0Sa4xo+KOoK/o1DXgXJHoZKSh5BKub1p6lrwuwtXQ7HXDfzrdMhdQgGVkn0Xh0DjJVomZRnAz5zCDgvv1PobZ76dmWSLS3cw3W3/BMwlPpTNV7eKB7BSkoqRdCqkIKWMuapGAOyG4GGSManoW6oidpwLs40ctIRtbbWNu+HHpz4uVUX88itFT9XNQEBApTESGN/TqocyRR1FReM8gYI88RN5K8SW8inobGIpdwgYDtNRu5k+OpyC88hPpDn5sqUFJBPMjydd+Xijkg2xlkPM2VO7krrGeBO1SsaPoGdMbEF/+7NpfD0VYvtZikcwEuSLXx6GxkqiRzI/S8hx56iLWG1Mgv3Eui4Xfx6tHEZxvh0CX4dXs5ASXQGl244CPvT/o6vfkoTEW7SCiYjT++Kr17GmkMublyI65aHF/HkiHyn0GGWX/Dj2nAO+0QbZKteRUr6yqQX5i4mI3PlYuuho10wF3Mh0yFqSEZWYNoPDpXKg/nY8jfINNcYk0GyTUdQnH1+rPWKg8NatHVsI72dq4AwO6+RhpDKhpLYLH9nLWOicjbIF2bH6R7tqS8RiQLv7Ibd/5gLbKyQwlfGBmaha6GtfTgzu8KXknpHILMutiHtgEDax2TIV+DdG3eQPds+T6fXZLZc5/HnfXl0JtfOuuL3zxxKQ7sqKAHd96jzCqpQWqfXAi9+QXWOiZDngZx2m+kLVVPcTcMBYBoDS4U2HYg3/oLqHPOXjTS51oAn3sJfK7rEPBcIZm73DKA5Jr24YHur7LWMRXyM0hfz3z6yKrDYt1rIFrDfuQVHkCe9WnojNMr3xwa/CSXyyvgvQYBjw7R8OcQ8HyGxiLpU/qAB7ht3fpDl0GdI9l0sfIyiN9zBeqKnKzOKEhG1l+QZ/0FtMYXoDN6k1oWhAY/ilDwSkTDH0HA+1kAI7NNwHMZ/J4FXHLrcwSyfN1dKL5vB2sdiZCPQfyeS1FXdERqd8tJtuYVrnJtpsoHrfEvo82vQ28ajHtxNHw+At7LAWQjFj4ffk8+YuFMOjzTAOeLLp4hJNf0NB7olnwpCHkYxO8xoK7oOTHq4CkID3fPvv7Q56QUUjIV0o/F8ntmo67ooGKOtOE9VDQulYM5IHmDhAYvQl3Rfq5EtEJaQFbUfQv5hbK50Sldg0TDKmwtPUxjkelndleQNKSgZDsKy2dW84Ux0nwGGckq/iwNeJVgwTRhNPvMtVxeABkhPYOMXIY6JIWs4gr8wJWvqD9kYVGlNlWkt8TqqGlUzJE+cIeBa9tXytEckJxBUojMVZAenDlqu6+Hzvgyay3JIh2DKOZIN/6KlZu+BJ3x7IGfEkYap7eKOdKNv5LaJ6+C3hxkLSRV2M8gzZUtijnSB6I1HCMNz+WmgznAfAZprtxAezvLmWpQ4A2iNfwatd3L5fpAPhnsZpCuzXfR3k5eLzwpsIMUlOxCbfeN6WQOMJtBnPaVdM+W6VetVZA0pKDkYaxuup+1DiEQ/6DQabfSlqpfCnUbUEFU3icr6u5BYbmk73SkgrgziNN+PW2pekIxh/zhLo+tbb9JCiUKhETcZxBH6/A0PHUKUAVZQHJNe1F/aG66mwOiG6T+8FKyrOxBUcdU4JMIWVFXhge6i6aVzCINYBOs2NdjRkuVncYic8QfXCEZuEwvFU2roDO+ylqLmLCL5o2GVWip+iHtdyiHhNImQpavq0PxfVtYC2EB+3D3vp6laKnaRmORHLZCFCZCck09WN1YAXVOWpyKJwN7g2D0DkhHzSba21nFWorCaCLpisZ7kF94gLUW1kjDIGP4XJejq+ExOuC+gbWUcxEuPN1a9gis5Q1Sy7LOCmkZZAynfQm6GrbSoeAVrKWcI7xLCkoaUVz98LmyOzVdpGmQMZz2EnQ1PESHgpezlpKmnCIFJW0ort4Mdc6fWYuRItI2yBhO+y1wtH6HBrwFrKWkAyQj601Yy34Ei61NLvmpWCEPg4zhc82D076G9nZ+E8AFrOXIDS6ziLW8BRbbbtZa5IK8DDJGaPBjcNpvh7PzXjoU/DxrOVKGS/OZZ+2EtbzxrAVMFeKQp0HGc2TvInRt+T5968RC1lKkBJl18QksvbMNS+/4IbKyJy9YqnBW5G+QMd488Skc2VsEZ+dqOhScx1oOC7hni3nXPw3zrTuRX+hirScdSB+DjMfv0cLnugn9jpvogHsp86vFAkK0hj7ozU8hz9o9rdJxCjMiPQ0ynmj4PPhcizDgNsHvKaAD7gI5G4ZoDS9Aa3wOedZnoTM6oc55h7WmdCb9DTIZPtdC+Nx5CHi+gNCggQa8knx+4VJ26ownoDW+CL3pt9Aaf4tM1XusdZ1LnJsGmQy/Zy5XD33YLKHBTyIUNCDgUdNYRNDyxFzck9b4OjJVAWiNb0CteQlqzVtnrd2uIAqKQaYDVzrNcyWAj3J/9rkvBaCZYS9D0BpeQabq3wD+DbXmd1Dn/EMQvQq8oRhEQSEB7DMrKihIGMUgCgoJUAyioJAAxSAKCglQDKKgkADFIAoKCVAMoqCQAMUgCgoJUAyioJCA/xcAAP//Lb1p5HnNh+0AAAAASUVORK5CYII=;" vertex="1" parent="1">
          <mxGeometry x="639" y="210" width="50" height="50" as="geometry" />
        </mxCell>
        <mxCell id="gFBRsMoK_zdnoC3hOrfU-46" value="" style="edgeStyle=orthogonalEdgeStyle;html=1;endArrow=none;elbow=vertical;startArrow=openThin;startFill=0;rounded=1;fontColor=default;entryX=0;entryY=0.5;entryDx=0;entryDy=0;labelBackgroundColor=none;strokeColor=#736CA8;sketch=1;curveFitting=1;jiggle=2;" edge="1" parent="1" source="gFBRsMoK_zdnoC3hOrfU-12" target="gFBRsMoK_zdnoC3hOrfU-45">
          <mxGeometry width="100" relative="1" as="geometry">
            <mxPoint x="454" y="294" as="sourcePoint" />
            <mxPoint x="692" y="130" as="targetPoint" />
          </mxGeometry>
        </mxCell>
        <mxCell id="gFBRsMoK_zdnoC3hOrfU-48" value="WWW" style="text;html=1;align=center;verticalAlign=middle;resizable=0;points=[];autosize=1;strokeColor=none;fillColor=none;fontColor=#1A1A1A;" vertex="1" parent="1">
          <mxGeometry x="250" y="350" width="60" height="30" as="geometry" />
        </mxCell>
        <mxCell id="gFBRsMoK_zdnoC3hOrfU-49" value="" style="shape=image;verticalLabelPosition=bottom;labelBackgroundColor=default;verticalAlign=top;aspect=fixed;imageAspect=0;image=data:image/png,iVBORw0KGgoAAAANSUhEUgAAAYYAAACBCAMAAADzLO3bAAAAzFBMVEX///8APG77rTEANmtUa4wAOW3X4egAMmgAMGcANWoALmYAOGx2kKoAJmIAKmTf4uenscCSprpAZ4xkeJXGzNbx9Pf7qR/7qyr7qBoAJWJMb5NcfJv7szr+6Mj7qiX//fn7pQD+9Ob8wm37tEjp7vIUR3b+7dX93bH+5MD92KX90ZT8y4Y2WIC2xdOdrsD8x3r+79yEmbDQ2eIAIGD8vmL937b8z5D8wnH7tlP90p4mUXxqhaJuiqYoU377tEb93Kk/YIasvc0AD1tNZYh6+98GAAASr0lEQVR4nO1cZ3viuhIGHGOwE9iwtIQWegslLISSRm7+/3+67p6RR7acE865zz16v2TXyEjWtHdGY1IpCQkJCQkJCQmJ/0t0Wp1/egn/enR32/oWX5JC+ZsxOr7X66sJ2PdO67nf/ecW9O9DZzRvPjzssQx6GXRB4rLotFbN+sPhA8lg3z5MpQz+Pph2UK+356PgSme0qtVX4EJqPR6F7pP4Oaxn/Wq13od63z32HzKzLryw+pAR4nLojg+1aru+hRS1tc88ZKBUWtt96+9f2r8Ho1WzWmsj59PZbavV6hyo/q7flEK4HDq7Q7udMSPAGlzcHaq16gGIZW1mETJMXwzd2Xu1ZgqhBwNvyxRCpjoH2z6p1WoRobm7bsnA/X2s55lqJpOp9ifgYndlCiFTPYJLnYwpqgl7t/PRuvUxnXSlpXwbo32mbQqhVpvBTZw0rYvtORzZfTAFU5uPwG53OqYJTOfz54+15E5/AetV29rvDAoBqdSxXrOuNrF67w51k0jVM4ftysZ2e9j2VsdWtBV0Ry0pokh05zVbCDgEpFKzun21tmfGd9Yfz6v99nDo7ffz5+lkHeeGuq3pdCSFEI1ps2pvd6Y9RddbD87l2oG+ryMSAzrdyXw+kzKIw+jgCiFT2+FPmjX3g+qOvjUGnW5rtt+uxlIE8Zi1/c0e40+6rjFYAkpazet2J8/79/52upasSQDdrWcKDB2yEIjBDN1TMZ02KdNutjrU2v3VWIpAEC3f75h0KLTP03ogh1q1vZ2ZGQG9syZh7a4nZtzevtcfqu+9WQxr8u/rjmSml2pVAymEjcGUQ61dA5IwSWrzsJ/PjuOPScvC5GM8ns3m8+22n6k/PDyYHHY/HYlmb93Rx8dIGowphWCP6TDcfe5X2zUgCjO9a7fb1Wq1bsP86/wr8741Ewfx3K0zOs5nssnAwhpKIVP9IAeZ+2WqetvM10xxBLBkUTdzu2b/0JtPW8IWkHL4U287k3bgog+1PFPrcQeaHrw1ns17vd7Bwtb8x3x+NB3TKDZvC33TeH5obiWFDTCpZxDalz1AsI0gU+1LM8Do1TIMLkVazET6uG8+1N9XsqoUQpOVQq02jb8rGTqd0Xi2bT6YJHY1kSKg8B6yBjNJo48RvoPOendc9asmja3151IEXDy3Q2LI1Orvx7+8Y93Wx3Pv3eax7cz2KB1RJDq1sDnYOdr78/eUt9saT+fbdzudqJoSOMwnMkWOx6hNycGSRLXe7B13YsXp9Wgynj7vD017+9tmRlE1JfA8kYRIFN1+lRaEK4t6tXlYzY/T8dipXazX9p/WbjyeHo+r1eHQbD+4u1+zbzEFu51N1vFTS0DsmnxBuOwJlC48mBfcpNobZF0wBSBoQBIhtPa2Dn8PtbYtkf7qKH3QX0Wn9fxu+xXhzXd2v15vbufjiTSAn0NntHs+ZBx/Y7sbvO2ua3J8U7Pfm093Lbn9F0N3NNmNreODbRPgsN325vPpeDdJVEmVkJCQkJCQkJCQkJD4X0O2vHh6aZh4WpY3lUvNUskKI1gD88GPTzCImT8VPZC7IHbcIGZzip+NoarrOS1vIqfr+XRpGf209l2lRCha93wWVEHc+QsYDBVwXbuPXNRSdAJD9SdoaMTnhc/wl5fyxEDugn4VBAc6WJRUPa+mIVRFz78tY6S3uDPEoZ1s7brW0mJQFX+ejQYXl7uNXNSL6ATGm3+PqhKfE2LY6NRAnbOgwdDgzhhCZXnSFXqdevopUhDCT2wh37DveTPih8LxFpY6eupN1Joqj8knGNxRn+thMZTIjdLLnO3JsSMVeqCJxYmUsAM1l45SPeEnDp6qciM8/pc/TyMP1zSMVI2i8JqCbV7o0Z97yJLj1HSRXEk5rKQaZ9GDFz1m2XqJH4BEH9iGYn/PoiA6Hij9ECqKcY6SQoIJ8v4ET6RVh33NfZ4aZzzSKzmHTSdH72X5FLKb8GrTC94Tk8rBgfFoh4an+Am9JQfiRuaqvUaKQTz2DH0mRFt17on56gFtyZwF3RK7Q/vTz7yIBRt5jhyShYYX+557OgwRs5454i7wtMLBl6hTUgLaQoaGsBg4z6uTCyqmCV9PDr2NiAoQqkY/+ZvY7Q6c3auQnIQC2ASs4EYkkR4Mk09Qpv0YKwZeWKMX1KBkBuIdkILggtOqQRlTstCg2nFsQyseteKAfiCfob5FZpYb4dBQ8CdY0hvBioHjT9UTtaAFOThkYKZHosO+yfDD+qQ8ElOJB8O072PERZ/z+dAAmTfgsRSEJwCEq0FGXs+NeuAZA7mgyon0jeGxZSW82/mC8vb1dR4WQuvSw2JMveh5CNbpK+hT3YljL+ib83c3PNylg5UixYpJ3vCW5rnff/Mn4DeUFw/vGU/A+pJYxhM9OMTyQhmeOa3WWAxMra8Myi8KIwg1HSbrL78xhnhG/OGVExpOSLFfihHgPH9M8vaGJxjwv99/oCLHUTLWwKN4OWJBWULH7W0cMgNDEUQtNEAWkv1ixEl4NRYoOIYmtIEpH5GmUkDkKiZ5yyL1oTkMC9o7s2LgBBB6QTDBUKF66njcL/ZLjTSzJ69Y+oBlc7BBW0yTafzEd/HFQwvIZyhXkWM/UbxShCZARAzsGXZKHM9FZpPwMZUrmBzqSGYhWqcMQ6Z1j+0lVnUZ30EOx9QzRw0JASu4dh05+AWXPYQmgETMuD/7O4MkDuV7gvpNLKgCd1cvQzvCLvWacXTGMKw3UFSqod2dY54GR19a00swICnRZV8PiZK38zcmgKFBe2r4LtCAYgBBLf8EdZio68HdNU0K2gZyk0UmiVLzVNxzpagquUL6/PpJ16984OBIa/oAGQOvPswA565q5DJw6kpymBBQ8qZ/0mIA5DzfwCWokL5toI4rG0TskZNg/D5nvSb3NfK6drp/KseIwMIAe2VSEXG6WuDUhxkgcmVQCQxvgpzQBMiZ3g1oMQAru9ncQy8WruvBkl7uFTMxSLcHTLjJc4z3Wjm/fFJHgRRw9KU1/RaJ/4/Q9w5QPsKQSBYo0VXTQkuHmYaaBuHL+PLHLIKdNErI9YcTMhgKbJ4PTzMgc2ETEV6VpiLGZBzg6Etr+m+4pVFHUQBlLN5oP4PqerwCNAOok0oj9RqIIbA8cNxzU97AJw0taABPCm1thIpklIKRzAGYFq1hgkDRl9Z0pEZxnMcDtqDo5G2AMkixCYp/wC2mz6DEACphJj9FGUQoeYOhzLDLTQMwHJC3DZu5JVF67g6gb6Q1PYvSVbHcCnMf9RSZvG2w5QiFBrSpJg8LxB6IAfitwif2YmzyVobZk3OajUoHQf7GVApjamWCKOPkjcy5cSKqXd9yAZw6osExyRueQBWaADnTuwr4Dl8MQH0s/YI2HaIisEakOB4Iccgbf2bGJ4kpTRywbGlNx5lFWstxoAdlPcz+4koqDcEJCoBvweRNPUFRqt4obAxZuH3sglDY9QIkZFYFz/VkmZwhun4vit84eaN8h3DPBLRPTMBiOK7oORTgW6h8bV0HYnAdTjFgwZZrX1A77QK1eGjeY1wpxA3MWdPPBGgcfVWyEWQgehQAz6hwUwZR5wXICkoB0ht0aGJdD7bHE0MQtNOFX+i/oaYM1DOQ9xQfegHfTzBn5oJJVAyKKDTQ4eZT9JhIA+wDpTg/1ZRRCEgJImI3G0IMKC9N4XSSWdACGkPOJ2pIDJ6KlRjX8BM8iW3oIo5cxXsmYDEXW1BMU8ar6ASAb6EqukVjQmIAUc+yFkQJmWwSTRJYLoybPnnBxdUfCg14Bwoku78SDA1QxRYCZVsforEH8i1obXZuFXACRwyVYAWq1e2F0km8IERTQB0BXvcqFpjgx1FAQTDR944aw5ZQuIDsAxOwQmRtS7gpA0yQxeVV88om8CD2cQXwWvbOohWh9q8sTAQt0uUBugovo8oyKXS0nQsCl07pKsJGtG0SRqskTRmcPpfICZYh3WbEADt67KpxCRFcuCDUpXcD7ASyPVV1F4uTN4HDTQHg4Eif2ov36wEVw5H/d+QihCdQg9CA4tUf6zojBiAnx81Am0YL+oRrVUDtCOuHW+ZhxEBH06Rg6npk8oYzC0PnoQDOzHB1IqYpA7dbR0wAkjeYyqp21gi6r0wxQCL+x7oNVYLggiqoC+AORkfUO+WmVBcRwxXagQKZvOFzg/MvLoAQ8ZH5TXRTBm44LvEnCHwSTt5smg3EkNuklsEOOhwHrQhSEURSNMTYUVLn3nMJMQwEmjKKhW9Me5+gox5XLMW6PkLJGxKDKXZgLbYxMKcTwYI2MD4ziogyD9dVsLFB6KAwBrglkj6awZkFTWlDwJH/K3IsthzyWDcEFE6cyA1UqlAEYnK5DCK4YEGISzDeswIX5uoHIwa6FpoQzJkAqYi4rlcQ+t4sLttGnx8w76IIpUMoeXOCJ3CehQ04RnJ8OmoTAQtaIls37hFK8DNXRAxh5Ze5FwIH0C5w9NWpvLyCzg1iqhL+ErAFRfsZFHvEmjIqULdVh9GDEJMHLRauMeC6nr8gtlxmKBBox11fwaRv3A2pDG+eBBNs3JShGtSYIgriMZzHA0PAout66LHEeHg4eWOphI87RylxIPYVleyip+EdgzLFDM6LW1YzbE4VCxxF5JNoRcSZheAZR5KmDKbsIRQawslbilMS8ZzGCZmPt6Cy8OsCJlwCw5T2OP1XdulB1U8iJ5WfAqf2zLGQmJ0h9hHTlIEsJ4ZUeUDxymtwI8Xg1mRRtSBI3ugueg7uqA3hBQfXzAy9FK9XuK5Ha/oV7gcW2SSmOhHTlPGYPPZU0DmkxxooMXibhOp6vmcVf2nDgkN8mY4TjlcKFFzJNeJiNYq+6Ryl6YPvNGUsEyRvuHAoNgHi874vZQ8CLHg+DlFCj3QXhas0znNkiQXTx29Z2F2pqdGxGncs0k0Z+F0owaYM3FEf3fyFeXhMp6sLFK983SZekvT76WC9xHd8nJeFePDWxr7dG37BsILfQVELJXYE2gFc1yM5Cs4sNLGjJhz5o+t6eAJVaAKcvHm7QIjBD/jQ+3q9lYnePUsHVIB9ndkYMl4ny74JFE1sRJoyfuMjZZFNYtqaYigo2jzBfj2cvBFNSS78cimqNHoEl2GeFPBmunWcSujlhhNSns80I4VcNEfBdb08mbzhd6HEOqMwAdOeyhzY+4eeKYZUeYtCyZvPGsJntb4W4rqeo2/4LTeBt779uBWK7EY6YCGbe/Zt6Rj2NzgJ1PVwceh8HYlXx2yZo2WtQOM/9qpxkbskMgGqhAWSC4lBOXsfIUNxkrcN82SpCgHkf3wlDJmDlSA8bYqV4mZZyoffAo0uIuAzAaGmDEOLxB9nQrEzTScrZd5fi5vAVmSkjUHJNySGoD8f1fWcbBIH2juazaHaWMBhiNfp1FxueBpqxA+Z6DHkT6QpQ7RnwoFiP0zlT/zItMdwkrEVR5FR8hbQ4VuGfwaBBhFcx3x+Cegg+0NBqn/9ntoWNpa4S76PyXhx6VQj9eGcJM10/ZogA3FcNF0I4k1gVyFwvAq6GFgdDTgH8i12Nsl0IdxwvDeu/AXd7sRb0Rzko3uo2aYMmgSJ/5CFBTeRYrWSA5vhFJN8v1uFQLoNsh1GDIB1oZet7PIGfm0qx/Mb6MABdpaW82ILz7NkNgS8AwaZYQj3TDhP4yRS9C95sXAaURL9pJA7AbI2cOzCvKsMIiMyOetAA+eMKlk/sMWA1BAeeS2E5KC9xR46/GxThv3gTkgU21mH/iWbwIkDWLeDbAfrDDATdHBt93fhH67iF72w/0Mp/sKI90t6Kb5QeZ20rhcPO/PIihWPHc+d6Nfm3CNktCjoKHDd5ZP+wMomb9HIqHolqlNhFrOJ+2UxtfAqUI9mfkaKktsgUQB1nXHodwxo2PtXSRQanCNkXFoD7w+XOTGDeS+ozP5wVVShDImcqQcMGpG/s6cPRZobcPTl1PUSuQyX9b0IUVDnqK+caALnPHNDllfZ1UJHg4KVMmCO3IIkjwCq5YRy/MVjgSMIVVOuhU5OcOmUbsVc3igJcOPY7DAvMli3ZbYsJJrA3trbQuiS+0R6cF2DnQV34AbtnFrgp4rsNbkG36nkzuzHleWjroUt2tDTr4L99rcCdb2nr6sE+LJnrpzFBi+ST3Auhu75AnuYBR98ATdehCv6uk294Ekjk9wlGkudEpdfToWc4v+imGpounK+Fe7KwGXh6N/Bk4hCZXN7/zhUlZuCrqRP55dfCfayIlDXkxDHIJvdbDbZolBACJBFYYr3qw8SF4ZIU4bExSFS15O4OHBdT6w7SOKnkU3yvqzEpYB7nn7mBS6JxGCaMn7kTXeJxGBO1WTy9o9gkNbA7z/nTvF3SFwA2QaC2EsLEhISEhISEhISEhfFfwHHwt2C3A/IrAAAAABJRU5ErkJggg==;" vertex="1" parent="1">
          <mxGeometry x="691" y="221.76999999999998" width="80" height="26.46" as="geometry" />
        </mxCell>
        <mxCell id="gFBRsMoK_zdnoC3hOrfU-50" value="Cloud App Service" style="text;html=1;align=center;verticalAlign=middle;resizable=0;points=[];autosize=1;strokeColor=none;fillColor=none;fontColor=#1A1A1A;fontSize=20;" vertex="1" parent="1">
          <mxGeometry x="569" y="70" width="190" height="40" as="geometry" />
        </mxCell>
        <mxCell id="gFBRsMoK_zdnoC3hOrfU-53" value="" style="pointerEvents=1;shadow=0;dashed=0;html=1;strokeColor=none;fillColor=#4495D1;labelPosition=center;verticalLabelPosition=bottom;verticalAlign=top;align=center;outlineConnect=0;shape=mxgraph.veeam.cpu;rounded=1;fontColor=#1A1A1A;" vertex="1" parent="1">
          <mxGeometry x="648.6" y="549.6" width="44.8" height="44.8" as="geometry" />
        </mxCell>
        <mxCell id="gFBRsMoK_zdnoC3hOrfU-54" value="" style="editableCssRules=.*;html=1;shape=image;verticalLabelPosition=bottom;labelBackgroundColor=#ffffff;verticalAlign=top;aspect=fixed;imageAspect=0;image=data:image/svg+xml,PHN2ZyB4bWxucz0iaHR0cDovL3d3dy53My5vcmcvMjAwMC9zdmciIHhtbG5zOnY9Imh0dHBzOi8vdmVjdGEuaW8vbmFubyIgd2lkdGg9IjIwIiBoZWlnaHQ9IjIwIiB2aWV3Qm94PSIwIDAgMjAgMjAiPiYjeGE7CTxzdHlsZSB0eXBlPSJ0ZXh0L2NzcyI+JiN4YTsJLnN0MHtmaWxsOiM0Mjg1ZjQ7fSYjeGE7CTwvc3R5bGU+JiN4YTsJPHBhdGggY2xhc3M9InN0MCIgZD0iTTEzLjMzIDB2Mi4zOGgtMi4xNlYwSDguODN2Mi4zOEg2LjY3VjBINC4yOXYyLjM4YTIgMiAwIDAgMC0xLjkxIDEuOTFIMHYyLjM4aDIuMzh2Mi4xNEgwdjIuMzhoMi4zOHYyLjE0SDB2Mi4zOGgyLjM4YTIgMiAwIDAgMCAxLjkxIDEuOTFWMjBoMi4zOHYtMi4zOGgyLjE2VjIwaDIuMzR2LTIuMzhoMi4xNlYyMGgyLjM4di0yLjM4YTIgMiAwIDAgMCAxLjkxLTEuOTFIMjB2LTIuMzhoLTIuMzh2LTIuMTRIMjBWOC44MWgtMi4zOFY2LjY3SDIwVjQuMjloLTIuMzhhMiAyIDAgMCAwLTEuOTEtMS45MVYwem0xLjUzIDE1LjI0SDUuMTRhLjM4LjM4IDAgMCAxLS4zOC0uMzhWNS4xNGEuMzguMzggMCAwIDEgLjM4LS4zOGg5LjcyYS4zOC4zOCAwIDAgMSAuMzguMzh2OS43MmEuMzguMzggMCAwIDEtLjM4LjM4em0tMi4wNy02LjEybC0zLjUgNC44NnYtMy42M0g3LjIybDMuNjEtNC44MXYzLjU4eiIvPiYjeGE7PC9zdmc+;rounded=1;strokeColor=#D0CEE2;fontColor=#1A1A1A;fillColor=#5D7F99;" vertex="1" parent="1">
          <mxGeometry x="711" y="551.4" width="43" height="43" as="geometry" />
        </mxCell>
        <mxCell id="gFBRsMoK_zdnoC3hOrfU-55" value="CPU" style="text;html=1;align=center;verticalAlign=middle;resizable=0;points=[];autosize=1;strokeColor=none;fillColor=none;fontColor=#1A1A1A;" vertex="1" parent="1">
          <mxGeometry x="646" y="521.4" width="50" height="30" as="geometry" />
        </mxCell>
        <mxCell id="gFBRsMoK_zdnoC3hOrfU-56" value="GPU" style="text;html=1;align=center;verticalAlign=middle;resizable=0;points=[];autosize=1;strokeColor=none;fillColor=none;fontColor=#1A1A1A;" vertex="1" parent="1">
          <mxGeometry x="706" y="521.4" width="50" height="30" as="geometry" />
        </mxCell>
        <mxCell id="gFBRsMoK_zdnoC3hOrfU-58" value="" style="endArrow=none;dashed=1;html=1;dashPattern=1 3;strokeWidth=2;rounded=1;strokeColor=#736CA8;fontColor=#1A1A1A;sketch=1;curveFitting=1;jiggle=2;" edge="1" parent="1">
          <mxGeometry width="50" height="50" relative="1" as="geometry">
            <mxPoint x="320" y="860" as="sourcePoint" />
            <mxPoint x="320" y="40" as="targetPoint" />
          </mxGeometry>
        </mxCell>
        <mxCell id="gFBRsMoK_zdnoC3hOrfU-59" value="" style="shape=image;verticalLabelPosition=bottom;labelBackgroundColor=default;verticalAlign=top;aspect=fixed;imageAspect=0;image=data:image/png,iVBORw0KGgoAAAANSUhEUgAAAgAAAAIACAYAAAD0eNT6AAAABHNCSVQICAgIfAhkiAAAAAlwSFlzAAAOxAAADsQBlSsOGwAAABl0RVh0U29mdHdhcmUAd3d3Lmlua3NjYXBlLm9yZ5vuPBoAACAASURBVHic7N13vF1VnTf+z1prl1NuzU3vHUIIHWkjREIqEFAJjoqUgDjW8XnUGWecZ353Zhx1yjN2GB11GDvmh0hCABFGUJHuSO89AdJz22l7r7WeP8694Sa55ZS9djnn+3691Jjcs/bKyd5rffcq3wUQQgghhBBCCCGEEEIIIYQQQgghhBBCCCGEEEIIIYQQQgghhBBCCCGEEEIIIYQQQgghhBBCCCGEEEIIIYQQQgghhBBCCCGEEEIIIYQQQgghhBBCCCGEEEIIIYQQQgghhBBCCCGEEEIIIYQQQgghhBBCCCGEEEIIIYQQQgghhBBCCCGEEEIIIYQQQgghhBBCCCGEEEIIIYQQQgghhBBCCCGEEEIIIYQQQgghhBBCCCGEEEIIIYQQQgghhBBCCCGEEEIIIYQQQgghhBBCCCGEEEIIIYQQQgghhBBCCCGEEEIIIYQQQgghhBBCCCGEEEIIIYQQQgghhBBCCCGEEEIIIYQQQgghhBBCCCGEEEIIIYQQQgghhBBCCCGEEEJIwrCoK0AICUZ3dzff8eCD7ZLzKb7vzxZCZC2tZwKYwRhLa61T0DoNxrLQ2gHn4pAiPGjdCwBgzGOM7YXWO5VSb2jgTRSL2x3H2fb1W2/tDf0vRwgJHAUAhCQD+9B55y1UvjrD1/o4pvQ8CcwCw1SmWYfgcAAIzhgYAwRjxp5uDWgGlADkwNg+ALsZsF1p/aTP2O970unfbNq0qd/M1QkhQaEAgJB4YRtXrz5Ga36e1vp0Db1IK0xVWrdoMCY4IDiD4AwW52DxfYI9AD0AtgP4o+D89h2p1GYKDAiJj/g2H4Q0gStWrZrFuLVBa71KSXWM1JiilOZDfy44gyU4LMFg8QZ4XBnLQ6ltmrGHtFI/+datt24FoKKuFiHNqAFaFEKS488uvHCuly9eqhTOl1od5UudGf7nDIAQDLbgsEWs3/ADwQCltd4Bzu9Xvv+zb9122/WggICQUDR480JItDZs2CDa9/etlsBHpdZ/IqVu0yP8HOcMjuBwLAbW6L3+WBhTAF7WWt/EPe/L19x++2tRV4mQRtXELQ0hZnQvX2695qSullpf7SssVUpbI/0cA2BZHK7FIRpheN8AxtgerfXNgvO/+8aWLS9FXR9CGgm1OoQE5IOrVq31NPusr3D6aJ0+UH7obIsjZfPmftuvEmNsB2PsJqul5W+/+pOf7Ii6PoQkHbU+hNThI6tWzcpp/n+lwnlSqfSYP8wA1+JwbUEPXn201vopxVj3t7du3RR1ZQhJKmqHCKke27h63bukkn/nS71UjzSpfwjX4nAd6vgN6NOMXZ9Op//yy5s27Y26MoQkCbVHhFSou7ubv3rfA5/yfflXUurOCvp9WJwh5Qia4zcs7QgtNZ7Klfx3/scttzwbdX0ISQJqlQgZx4YNG5y2nt6/9RT+3Je6pZLPMMaQdgRsQY9YGNozNgBAKY2S1Nug8Kdf2bz5noirRUisUetEyCiuPvFEu9Q15StSyg9Kpe1KP+faAimbj/+DJBCcM7SmDl5zqbVGSeo3iv35ddf86ld/jKhqhMQaBQCEHI5tXLXmLz2p/lYqjL2wb/iHAKRdi976Q2YLhow78qYLpTWKnnrB9+SKb95yyyshV42QWKOWipBhrl6zZkPRxzWeVBOr+ZwlONKOAE31h8+1OFLOoQcbHkwqjYIv73zTSa/btGlTKaSqERJr1FwRAuBj69dP78sXN/u+PrGSxX3DpRwB16Ih/6hU8/17UsmCJz/3zS1b/8lwtQiJPQoASFMbXNn/jyVPfkYpPfZr5CEYY8i4ojEO6UmwjCtgi+oCsKIv95Z8nPnNLVueMFQtQmKPWi7StDauXHeShLrF89Wkaj/LOUPWEeDU+UeuNW3XNPUilUbJk9//6uabLwu+VoTEH7VepBmxK1at+UrJUx/XNTwDtmBIuxY9PDHRlrFr/7fQGgVf9/rCPuUbN9zwdJD1IiTuqA0jTeXqVauOLGpxh+fLGbV83rHKi/1IPDCUA4B6SaV1wVP/9vXNWz5df60ISQYKAEjTuGLVmk94Uv9btXP9Q6jzjx/GgLZ0/QEAAGgAhZJ8Nb/t9SXffvjhXCCFEhJjFACQhte9fLn1spPeVPLkhbWWQZ1/PAnO0JIa9eDFmpSk9jxPnfn1LVvuC7RgQmKGWjTS0D66bt2cnVo86fnqpFrLcG1BnX9MCc7hBLwFU3AmBGdXnbx4Mb//mWfvCrRwQmKERgBIw7pq7dqzCyV1q1LaqbUMevOPt7GyANZLa6BQ8v/7q5tvXmHkAoREjAIA0pA+uHL1n+Ulvqm0rvn10GTnQoJhWxwZgwGaBlD01Gsdx50wv7u72zd2IUIiQAEAaTgb16z9VrEor642o99wFmfIpGirX9yFNUJT8FV/T8Gb/5+33rrL+MUICQm1b6ShXLFq7aaiJy+qpww+uLCMHo74C/PkxZLUnvb1UV/evPn5UC5IiGGUwJw0Cnb5Oat/XW/nzwBkXUGdf1LoesZ5quMIZnOLPfPn7373KaFdlBCDqJ0jiXf1iSfapQmTHyj58rh6y8q6Fiw6zjcxwhwBGOIrrXKef841m7f+OtQLExIwWt5MEm3Dhg2CMftRz5fL6i0r5YjAt5QRsyzBYFV5EFC9OGNMcH7psbPn3vPQCy+8GOrFCQkQtXYksbq7u3l2f9//+L5cUm9ZtmB0pG8ShTcDcBCLM5bNurd/9Lw1p0VTA0LqRyMAJKnYPCd1T8lXJ9ZbEOcMWdcCo5H/xBGcVX0UcFA4Z8wS4opl8xbc8vBzz70eSSUIqQO98pBEunzVmruLngrk7Sttc+r8SU0EZ7w1Zd3/Z2vWzI26LoRUiwIAkjhXrl7z/ZKn3h5EWSmbhz6HTIIT0QzAQSzBeTbtPPPxtWvboq4LIdWglo8kyhWr1n4uX1IfCKIswRlcm2bBEi0OEQAA2+KO7dqvgtpUkiB0s5LEuGLNuveWfPkPQZVHaX6TT8clAgDg2Lz9ExeufyrqehBSKQoASCJcvnLlcV7J/4HWweSucG0BTvP+iRdiHqCKpC22+BPrz98SdT0IqQSNf5LY+/j7399W6Cs8JrVOBVFeedU/3fqNgIHBDTkR0FgYYxCCLz7uiMV9Dz79zL1R14eQscTnySFkZKxvx54HfKVagyqQjvdtHCpuQwAAOAMyDP/6kZUr685MSYhJFACQWLti9boflaQ6IqjyHMFh0dh/Q4ljECAEZ6mW9H3dy5cHMmpFiAkUAJDYumrtee8plfz3BlmmS2//DUepqGswMsfi7v6Otkeirgcho6HWkMTSx9eunZQryd8ojcCW6ru2gE0H/TQcSzCImI7qWJx1nbR4cea+p5+5I+q6EHIoGgEgsdTn6d/6SrtBlccZYrVYjARHqvhNARzAAEuwz3z03e9eGnVVCDkUtYgkdjauXvONIOf9gfLbfzzfEUm9Yh0AoHxwkCNL90ddD0IORQEAiZUPrV59bNFTHwmyTM5Ax/w2MKkBHcOFgMO5tsj++frzb4m6HoQMR60iiY3u7m5e8PUvg0r2M4TS/TY4rSHj3f8DAFybr/3khRcuj7oehAyhAIDExqu/u+9aT2FKkGUyxujtvwn4MqZbAYbhnIFD0igAiQ1qGUksfGj16mOLUn0w6HJTtPCvKfhJGAIA4NgiTamCSVxQ60hiIS/ZTRrBDv1zTm//zUIqHcuEQCNxbX7ehzZsOCrqehBCrSOJ3MZVaz7jSzUn6HJdQbd3M/H8ZAQAgjOkS4X/jroehNDqKBKpjevXt5aK/m1aB3wvsvJxv7T1r3loJGe3h+Cs5diFC/sffOY5OjCIRCYZTwtpWCpfulEp7QRdris4df5NRiod+5wAQxhjSAnxTxs2bAj83iekUhQAkMhcec7a4z1frQi6XAbAoa1/TanoyairUDHH4mJqMb856nqQ5kUBAImMz/TPTLyvWRZHTFPDE8M8qZGQQQAAQMoWq//3BRfMiroepDlRAEAiccXa8y7yfLXQRNlJmQcmZhQSNAogOIPk+s6o60GaE7WUJApMet63jBTMGCx6/W9qnq8SsxYAAFzBF31k/bnviLoepPlQAEBCd9WadX/pSz3BRNl04h8BgIIX/8yAQzgDXCGuj7oepPlQa0lC1d3dzYue/Jyp8m1Bb/+knBo4CemBhziCT/rEunUXRF0P0lwoACChevX39/2tVLrFRNmW4OCMAgBSlqRRAMYA4YrvRV0P0lxorxQJzYYNG4TIl25WWtsmyndtDkHz/2SQ1oDgybknBOPpY+cvfOLBZ599Muq6kOZAIwAkNNmegc/7UmVMle9Q6l9yiELJR1KWAzIGuBb7j6jrQZoHtZgkLExJ+XFThTuCB3yUEGkESgPFBE0FOLbo+Nj5518YdT1Ic6AAgITiylVrP+UrnTVVvkWL/8goSr5KTHIgBsAWzMgWWUIORQEACYWn1GdNlm9T8h8yCq018kU/6mpUzLH45KvXrTsl6nqQxketJjHuqpVrLvGl7jJVPnX+ZDy+0vBkMoYBGAMytvhR1PUgjY9aTmJcSePzJsun4X9SiXxJJmZBoG3xBX/+3vdOiboepLFRAECM2viO1cf6Us0xVT4DYCdkmxeJVpKmAgRnUAP9P466HqSxUQBAjFICXzdZvuAMjJL/kAp5MjlTAY7Fl4PaaGIQ3VzEmI3r17f6GmeYvIZFe/9JlfIlPxG7AmzB+MfPP/8LUdeDNC5qPYk5+eI/K6WN3mM0/0+qpXU5QVASWAIfi7oOpHFRAECM8TV7n8nyGUNi0rySePGkRsmPf4IgxxLZT77z/LOjrgdpTBQAECOuWrlmnS9Vm8lr0PA/qUehJCFjPhfAGKAVvhl1PUhjohaUGOGB/b3pa1j09k/qoAHkij60jncQYFv8iO7ubivqepDGQwEACdxHNmxokVIdb/o6FACQeikN5ErxngqwOGO7//DQP0ZdD9J4KAAggcv39P9/Sptd/McZwCkAIAHwpUIh5gcGOYJ/KOo6kMZDAQAJnJTqEtPXoPl/EqSiJ1HyZNTVGJXFWfsnL7xwbtT1II2FWlESqI+df/48qfRU09eh1f8kaHlPxTZJEOcMEvKaqOtBGgsFACRQA0W/O4wmlAIAYkK+6Md2Z4DDGG0HJIGiAIAESim13vQ1GGMUABAjyjsDJFQMdwZYFnf/fN2qM6OuB2kcFACQwHxo5bqTfIUO09ehzr95hfFPr7TGQMGPXRDAAMB2vxJ1PUjjoACABKbI8dkw9lRT9t/mdME75uAj71kSyrWUBgYKMnZnBliCLYu6DqRxUABAAqN8eU4Y1xG0A6DpXHLeQhyzoB2dLTZOOLIrlGsqrZGL2UiAJbj10TVrTou6HqQxUEtKAnHZ6tVLfaXbw7gWTQE0D84Zrr7oSMybmkZ5hl5j9enTwUM6AlrGbDqAAbBc+0tR14M0BgoASDAU+5uwLkX9f3NwbI5PvPcoTOmwD/p9iwPvXDEntHqUpwPiEwRYgr0t6jqQxkABAAmE1nplGNeht//mMH1yFp/6wFK0pkduoo6a14ol842vNz1gaE1AHLYIWpynPvWud4UXAZGGRQEAqdtVK1ZMkQqhTMxSAND4Tjt2MjauXwBrrNZJA+86ezay6fDOyBnaHeBHHAQwBpSU/2+RVoI0BAoASN0ksz8d1olqlP+/cXHO8IHzF+Kck6eCYfz7iUPj8vWLQqjZWzTK0wFRZwx0GEIZcSONjQIAUjfFcGFY16IRgMY0NOQ/d8rQYr/KTOrK4JRjjWeePkyu6KPkR3eAkBCsdeP69a2RVYA0BAoASF0+vnatK5WeH9b16IZtLJwznL98Nq68YAFSdnXBHeMMTtrF+nMWYNHcTkM1HF2+JFEoRXOAEGcMrRxfiOTipGFQe0rqktPscqXMHv07HE0BNI4501vx6UuPxnEL24Gqp5AYnEwGjHNwzvC+9UdiclfGSD3HUvQVBoqyijGL4AiGiyK4LGkgFACQukipPhDWtajvbwyOI/C+tQtw6blz4da4hs9KORD2Wx9OuQIbNxyNjjY3oFpWzpcKAwUfYa2DGcIYpoR6QdJwKAAgdVFKHxfWtcJK/kLM8KTGn5w4DZ+5dCkWzMhUM9V/EGFZcNKHd/TtrQ6ues8ytGadOmtaPak0+gvhniRoCc4+um4dLQYkNaMAgNTsw+ecO99XOhvW9RgNASSLBjypkCv6WLKgE//nqmPwjuMngtcxYM6EgNOSweDROIfp6kjhyg1LkUnbI/65SUMJg3wZzuJABsByrM+EcjHSkMLbREsaTo7rjyHENVA0AhB/UmlIqeEpDSkVTj1mMtaeNgMZl6PmV/5BnHO4LVmwce6DKZOyuOKipfjepseRL/h1XbNaGsBASSFtA86YiQyCIRgoKyCpGQUApHZSrg7zcrX0/0oD0LqcRX7wf6EP7ooOm7plB79fMlb+DGOs/GsGMDAw6HE7o0YnlYavdPl/pTrwXS4/aRpWnDwV6QMr++vr/BlncFtbKh4Fmjm1BR98zzJ892ePYyDv1XXtqmmNfElCaY2ULYxeSnAWyvkbpDE1d+tF6nLJitVFpXRoE64ZV8AedhKgUhpSlzv24b+GBhQQ2qIsxt4KBjgbChTKwcLQqIUYDBySPIohtYaS5e9ZKgUp9UHdesoROO/MWTjpyC5YPLjvnovBN39e/Rv1m7ty+O6mx9E/UAqsPtVwbYGUbXYkYKDkX/b1m27+vtGLkIaU3NaIROrydeuWlfL+o2Fe0xbl/HBKA1rpSLZeBWEoYOCcl4MElEcZDg4ghn4uXEoDSqlyMDUYVCmlMNbatkWz23Hu22di5sRUDdv5xsaFgNs6/rD/WHbuzeM71z+Gvv5oggBHcKQdXtsQVgUKnrr/K7/YfKqRwklDoykAUhPmqavCvmbU6VeDMjQVoSpcLHYgIMDgfwaDA+Dg6YkD/3/oOgf+66CrlwMovBVEaa2hdXWD9Jm0hdWnz8SJizvfSuATcOdvOQ6cTKrujnPyhDQ++J6j8Z3rH0dvBEFASSqoEpB1hJFXLothWfClkmZAIwCkJpefs+aJklRHRV0PEh6LM5x58jScdvQkdGYt1DuvPzoGO+3CTgW7p39fTwH/cf1j2NdTDLTcSgnOkHVF4OtGlNLILDve7u7uDnfFI0k8GgEgNfG1Xhh1HYh5mbSFs06chuMWdaKrzR72lm+m82ecwclmIKzgm6bO9hQ++J5l+M7PHsfe/YXAyx+PVBr9RYmWgIMAzhl2P/TAVQD+PbBCK3D1+ednLMamaynbtVLtjPM0gAyAg/Iya8YGmNZDQy/7hNY7Cpa1c+YJJ+zq7u6O7kAFQiMApHpXrVlzTL6oHmmMAXlyqKldaZx10lQcMacdbSkBc2/6BxOODSeTNr6zom+ghO9uegI7dg0Yvc5o+OBIQJALQgtF/8GvbL45sC2BV594om3NmDEHWs9XSi3gwAINzNDAdA5M1sBMAC11XkYxYJfW+lXN2BOcsaeUUk8yxp68duvWlxDWjdfEaASAVE0qfICezMbRmnVw8tETccyCTkyd4MLigwsLAITRBjNezus/PLWvSa1ZB1e/52hcd8OTeO2NvlCuOZxSGgMBjwQwwZfU8rlPr1qVzbnuUVDqGKX1MsbYUgDzAczWUlpA+S1x6C4Y/usAcA1MAWNTGHCy1m9tq/3weeft1Fr/BozdDa3v+vetW58I9tIEoBGAum1cv77VVmpqoejPTqfsDiZlJ+N8ggZatdZZXV7CpDljb/palwSwm3Pep4D9KpfbtXfChOc3bdoUzfLkGl12zpoHPalOiroepDaTJ6Rx0tKJOGJ2GyZ3urB5wM16pRhguS6cVCqSlqhQlLjuhifwyvbe8C+O8khAS8oK5K8updL/8vPNY+43/PC553ZCqVM1Y29jjB0D4BiUO/skZIR9gwE3MK03TXrb235HUwfBoABgHBs2bBDtPT3HKSZWK6lO1owfYXFMBZBljNmcgQ1t36oZY0prXWBa94CxV6H1M4Kxh5Tn/eKa229/Lai/S1AuXbGm11eKziJPAMfiWLKgE0vnd2DetCzaW+y6UvEGhVsWnEwKXJhNlDMez5P4/o1P4flX9kdyfcEZWlyr/pZYa/TsHzjt2jvuuA8Aupcvt95oaVnKgdOg9akMOEUDR6Ax2vzXGfATDVxz7datL0ZdmSRrhJshUB+/8MIF/bnClVrrs5Vmi5TSnYyB2YLBEhwi/Hz0HhjbCeBhcP7zKb2913ffdVf4K5gGbVy/vrXYX+wN++QzMj7H4lgyvwNL5ndg1uQsOttsOOFN4VeEcw47nYJwws/VPxpfavz05qfxxLN7Irm+JTiybv2BUM5TN5U8+Uum9Sow9g4AjZ4lUEHrzYyxr12zdeuvo65MEjV9AHD58uUpnkr9qVa4VEp9stRo0VqDM8C2OBxLxO0YWg1gB4A7HCm/9tXbbnswzItfvnLN5SVf/WeY1ySHy6QtLJ3fiSPmtmPmpAw6WmyUU8/HqLcfhgsB23Uh3Ph0/MNJqbDp1ufwyFO7Irm+Y3GknfqCgIKnUPRCPJwjXn7HgL+8ZuvW30ddkSSJV9cWkqtPPNEuTZryceXJqzWwSCp9YA7M4gyuzWGJJEyLAUzrAc35ryzO//7rmzf/j+nrXbFyzfVFX11s+jqkjDGG2dOzOHJOB+ZMbcGULhetKWswKI1nZz8c4wx2KgXLDf+I3mppDfz8l8/hocd2RHL9lM3h1nF2gCc1csUmTwWg9S8U53/xrZtvfi7qqiRBUwUAl69Yc7Lm+l+lwhlK6YOeNEtwpOxIhvgDw7TepTn/1u50+h9MLSy89JzVz/mScgCY0NZi45hFXVgwsxVTu9LoyFqwRUQL9OrEBYflpmC5FpLUzGgN3Hj7c3jw0WiCgEPPu6iG1hq9+SYPAMryDPjbXZnMlzdt2tS0QyKVSM6TWYerVq+9tKT0P0pfzTy0KeWcIe2Iwa1PjcESXHKOP7CW9gu+8sMfvhFk2R9YsboglQ42RVsTmtDh4qh5nVg8uw3TJqbRlrEgWPI6+oMwQAgLlutAOMnq+IfTWuPmO1/E7/8n0EenIgxANmXV/CLSm/eCzsicZPczIS65ZvPm56OuSFwl8wmt0MbVay9VUv1zSeopI/25awu4Nm+4L2HoBDKpNIqefNpnYtU1N91U926Cy9etm+rl/TeofanOojntOGbhBMyemkFXu1vOnd9ArTRjgHAd2K4DxqNd1R8UrTU23/ki7osgCOCc1ZwjYKAo4Vd4xkST6AXnl127Zcsvoq5IHDVa3wcA2LhmzXrp62t9qaeP1MxyzpBxRKKH+8eSdgQc661hRKk0PKke2G6nVmzatKm/1nKvXL32Y/mS/HoglWxQHa0OTjl6MhbNbsXkzhQyLm+ozn44LgQs1x6c32+8Z0lrjZ/f/jweimA6wLY4MjUsCix6EgWPAoBDKDD2N9fefPMXo65I3DTUU3v5unVT4anNJV+dPNrPBLHaNu6yKWvEKQ2ptMp58ivf3Hzzp2op9/JzVv+iJPUFdVewgUzsSOGUZZOwZG47JrY7h2TRazyMcwjHhuXYke/hD4PSGj+7+Vk88nT4uwMODeQrQQsBR8eAb1yzdesn0MgPaJUaJgC4ctWavyn6qltpjNoq1bvKNinaMvbo/7BaoyR1T16WTrl2823PVFPuZeesecGTan79NUwuzoATlkzECUd1YfakzFtH4TYwxsqJeyzHKafrNZyrP26U1vjplmfw2DO7Q70uA9CSssCrGKlUSqOvQAHAGK69duvWj0RdibhI/JN85erVE3yF2z1fnzjWz2VdkZitffVqz4y/11oprfO++uLXb9ryuUrLveTsVXmlkaqrcgnk2hwr3jYdxx/Zhc4Wq2GH9A/CBof4Bzt9xpvj2RmNLxW+97PH8dK2cNMGC86QrTJdcG/eByXqGp3Wuvvfb7nl76KuRxwkOgC47JzVF0uNHyilR91kzABkRhkSb0ScMbSmKz9UpeCpl3OvbV/67Ycfzo31cxvPOKO14GSjSZoeAYszvONt0/G2o7rQ2WKjOUYNGYTFwW0HlkOd/qHyBR///uNHsXPPmI9K4FyLI1XFtCUtBByXZoxdfs3NN38/6opELbG94hWr1n635MmNYzXLzdb5A4O5xVPVnarmSe0prVZ++cYtd4/2M5eds/piT+rr665gzM2YnMH5Z87CguktYE3S6XPBy2/6jg3WRM9KLfb1FHDtjx5F30C453e1pe2KZ14KnkSRFgKOR7ekrIc5Z79hGr9MtXT8pvu66yJLsR6VxD3ty5cvt+Za7u9KUp8y3s9mXQuWSNxfsS6WYMi61R+rqpRGrqQ++o0tW64Z6c8vW7X6Gs/TH667gjF1xnFTsPKUaWhxm+CtlzEIISAcu9zpN9mcfr22vdmHb//0cXghpt1tqSI3gOcr5EqU/2Y8ggHZ9IH1Ujmt9Y+E4F/7wvU3Ph5tzcKTqCf/6vPPn1jIlR7zlZ463s9mHAG7yhW0jaCeg0W01ih5+l++fNPmvzj0zy5dueYe31en113BmPmT46di5SnTkHUS9ShUjzEIS0DYNs3pB+CRp3fhp1uqWkNbl2p2BEil0U8LASuSGswFc4ibLMj/9flNW16Kok5hSkyr92fnnTcjl/ee8JUe94SrlCPgNmHnDwC24MjUcbKYBlAoyV989aYt7xz++5euWP1GJYFXUpyybBLWnzkTbgOPEDHOwW0By3YgLNF0q/dN23zni7j3D6+Hci3X5khVuoNJAz15z2yFGgQD0JK2wA9/NvIa7O/TS4/95+7u7oadT0lEi/Dhc8+dP1CUj/lSZcb7WVswZGoYAm8U9QYAwGAQ4Ktff/XGzWcP/d4lZ68qKY14HuVWhQkdLjauX4SpHS4acWEf4wzCsiAcG9yqfN6YVE9Khe9c/zhe3m5+RyfXNwAAIABJREFUbWy1z3Vf3oeinQAVGSe4ugW2d8mXfrx1X5h1Ckvsm4erV6+elvfxrFS6ZbyfFZwhW2MKzUYRRAAADI0E+Dd+9aab3/W+c8/tZDlvb5KbE84Z3rd2AY5b2N5w2/gYF7Cc8vA+twQS8Fg3jJ6+Er563R+QNzzkzjlDaxWLe2knQOUYyossx0ie8jSX4uwv/Pzn4eeFNizWWXEuXbGiq6T4c0rp1kp+PutWlzSjEXHOqs4eNhIGwBJ8ySkLFs70Sor5Sl9Uf+2i0dnq4jOXHY05kxsnhQETHLZrw0mn4GRcCNsenNdv7vs/bClXoDVr48nn9xq9jtaofAoAgNQaUjVWoGuSEGOdBMsmaq7PP/2YxT+/5/Fn+kKtmGGxDQA2LF3q2K0dz0ilJ1by8ymbN+Wiv0NxhkACAKDclXCLn1AoqXmeVNMDKTRkpyybhA+9cxFSVvI7RsY57JQDN5uGnUpRpx8T0ya3YNub/dizL2/0OrYlUOn7jdaALykAqBRjGO8Y5i6m+cpTT5z9g98/+kLDLLCIbY/ZMn3mw77UFXU6grOmSPFbiaAfeQaAsbGzLMbVB85biA1nz070fn7GOSzXQao1i3R7C+xUqmFO3GskF65cADeAqbexqCre6Jt8ILRqfkXfrT7GKmR/gAaKuGPZklyxas11RV+vqvTns+6IqzibFBtpW0td+gt+hQ9IfPzZhiNx1Oxxl43EEwOEZcPJpGGn07AcetOPu5RrwbYEnn3J3FoxzlnFeU0YA4o+rQGomEalL5FL3n70kr2/e+Lp+01XKQyxGwG4bPW6K4qeuqzSn3esseZumo/WOvA1bl6ChhI5Z/jk+5di4bRxN4zED2ODb/utcFsz5f36dGsnxinHTUNnu2us/Gry+zPGaBSgCtW0cFrrL37m3e9eZKwyIYpVAHDFqlWzpOd/q+IPMFSVI7tZBH0QSJJe/v/3+5diZpe5RtgELjicTBqZ9lY4mTR4kxxa1WgswXD2abONlV/NFAAASutcpSrazYzg8j9M1iUssWlpuru7uVT83mr2mqcsToOiIwhy9a8vdWJOFnv/ugWY2jnquVCxwziDk0kj1dYKy3UoUU8DOOHoyZjcZWb0qdrHUND9ZNJZn734wndHXYl6xSYAeOWe+77lSzWj0p9njMG16O1/JEHO15cSspd45akzcPzCcZNExgLjHHYmjVRbW7njJw2DM4Yz3zbTSNnVJvah/t8wjS92b9iQ6Ac4FgHAlWvXHl/y1ZXVfCZlc1oTNYogRwC8BCwkOmJuO1afkoQsxeU5/nRbC2zXoQa6QS07YiKcgBfiAuV56mpiAFoYXZ0aEsgtKjD/EhN1CUssAoBSSd+iq+jOg0p206ikCm7YPu7JRDgDLjt3Qeyz+zHG4bZk4GTS9GrW4BybY9kRFaUvqVo1owC0BKByNQdLWv9Fd3d3YjujyCt+xao1X5BKVfX65tIiqXEFtXI/7jsALj1/EeK+DpQJgVRbFsJu3jMqms1Jy8yMSFUTjzd7VtRq1PFdHVF88o/rg6xLmCLtSa9av36K56vPVPs5yvg3vlJAQ/dKxXcKYP7MVhw9r6Is0ZHhFkeqNUvH7zaZOTNa0dYS/PRwNc8jZ4xmSStUzzul1vpDwdUkXJG2Sn6utElpVPVa5FicRlArIJWGDODtXcZ4aL089B91LUbHOIebbWnqw6maFWMMC+d2BF6urrJLp1uvMlZdATpb9bl3vWtOYJUJUWQBwOUrVx7nSfX2aj9Hc/+VK3iyrs8rADqmAwDHHtGFrOHUq/Vyshnai93E5s0MfleKrnJEjqYBxscYg6gww+IouLTUpUHVJ0yR9aZKi+urfXkTglHWvyr4Std1JKjny9i+YF941izE+fVfWAKCtqk2tRlTgk9FXe3TTDsBxmcFsaFM4+Ig6hK2SAKAq9asWe5Ltbjazzm0+K9qhVLtowDSj2cHe/TCTrSm4n0vCLvifFakQU3sNHD8NCUDCpwTzEFyR//VhguOCqKgMEXSinoS36vlc7T4r3pS157MJ65JgC44c1bUVRgXt2jFf7MzMf1T7RPJqMkck8UZrID+nTT4uYEUFKLQb48Prj73HN9X86r9nC1oRWutCiVVU16AOPb/addCZ0vcO1cGRqNVxECLVe1jTFMAYwvyLBkGvSKwwkISeitVkv7XahlYtmk+tWZaaxRq2BYYxyOA15xRcbboyDBeU1Yx0mCYgTUq1QbydB+OLuiTZDXw9o+vXZuok8hCDQCuWLHiKE/qJbV8ttJzsMnISp5CtbsCdQy3ABy3aELUVRgX4xSsEnOdbzVBAI/xQtkoCc6QDmbuf7hMS9Z5W9CFmhRqAKCY/c1aPkfD/8HIF/2qmoO4TQFM6HCRdeM/tM4p6Q8BjJ1VUtUgAGM0CnAIxoCMaxn599GcJWoaILSWauP69a1S66r3/QOARfOpgZBKo+hV3qvH7Rjgs06Yijhv/RtCC68IAJh6ban2CVBKo+ApFH0FT+pAzwpJGs6ArGuZOydB42xDJRsRWlOlC94/KaVrGnOhACA4RU9WdMCP0rqqvONhWDizLeoqVIYiAAJzJ2lWvxCw/NwXShK5oo/+go/evI/enIeBokTBU/Ckit3zHjTOGbKuZTqXzAlJOhwotOXUUqr31fI5zuhUq6ANFCVaU2LMoUE/hocAdbU5SMQIAN2vBECh4Bkpt9onYLRsgBqALxX8A6lCJMRgVjx7MOlao0wfWIIj7Ygw+pJs4Yk/zAfwvPErBSCUAGDjOavPKUhdU15MevsPntYauZJE1h39nz9uOwBaMjYsHq86jYpGAAiAfME3Uq6GRjUT2NW88UqtIX2Nkl++AucMtuCwBUtmWmEGpG0Ragp5BnYcEhIAhPKtKIa/q/WzFACY4UuN/BhZAoM4SChIJy+dFHUVKpbAZpIYkC/WdxbHqKrNBlhjx61RXjdU8CT6CuWpg4KnKppCjBoDsGhOB46c2xH++TGMHRvuBWtnfASgu7ubP/fbe2veGkHJ/8wp+QqCsxEfkLiNACycnZD5f4AiAAKgvOsmDoJ6cZdKQyqJole+xS3BYFkcNo/PCa2CMxwxtw3nnDEb06a2Q2uNhx/dgV///tXQAhetQQHAkFfuvf8jWumarsNoC4tx+ZIEw+FpllXMAoAJrcGfrW4M3bMEQMHYFEB1TLShGoAnNTwpUYCEELwcEPBoDmxrzdpYtrADJx/Vha6JbbBT5faCMYaTjp2KqZOyuOHWZ41NywzHgMScCWA8ANBSf7jWzwaVo7nRzZvZiq52Fw89sbumz+c8hQwrL/wZIqs8dtS0lnRykutQ1goCADlTnU3MsgEeupiQ87cCAUtwYwvvJnW6WDy7DYtnt2HGlAwYGJxMCpZ7+MvCzOmteO8FS/CTm54yHgRoYPaGDRvEpk2bDM0BBcdoAHD11VfbuRdeObLWz9PRv+NbMr8DF509GwrAI0/vhVdL9h6tkSv6yLriwJqLmA0AwLU5krADoCwp9SQm9Q8Y2gVQwzZAjuoPEqqVUhqlAw2IBGflYIAPBgWclYOEalp3zhkmdaYwc3IaMyZlMHtaFp3DRgUZZ3Ay6TFP4Zw8MYOLzjsCP73pKXhV5EOpgb1YlKYDeM3kRYJgNABQL7/6YaV0zbP4tP5vbKcfNwUrTpoMQIMDuHjNPPxo6ws1lzdQlEg75RzZcZoC4JyBM039KkmUnv6ikXJreQy4EFDyrRdSwQHXFsimLbiOgGNzuDaHxRnSKQtSahRL5fwAnlQolSSKJY2C56PklRMKaaUrqovSGkpq4JD3YcbKhxVxxsBYeaQi7XC0t9jobHUxfXIGXe0OutpdTJmQGvU0WGFbcDJpsAoycM6Y0oJ175iPm243u0jfl3wOmj0A8KS+rJ7PmzhOsxFwzrBh1TwsntVy0OvA/OlZnHDURPzhydqmAoDymgCt4zUCMH1yNmGdP923BOjtMxMA1CLrckydmMWiWa1YOr8dkzpTgZTbl/ewZ18Re3pL2N9fQqEgMVDwy1lHiwqe0mBMw2IclsVgW+VAg3GGlrSFtCvQ2Vbu4Dta7Kq2GjLOYaddWI6Nap65JYu68NJrPXj0qV01/I0rrZyeC+B35i4QDKMBgNR6WT2fp6MsDzeh3cUVFyxCxmGHjwVqjbWnz8Czr/Sif6BU8zUKnoxVqtDJE4JprMITn++ORKfP0BRALU47ugvnnDo98HJb0zZa0zbmBl/0qBhjsFMuhOvWvN521dvn4tXXe7G/x0yQxjSbY6TggBkbZN+4au1apTH6hMw4OKP3qEOd/bbp+OiGI8qd/yjSLSlc9q4lcOz6/mnj1IUZOLXLMLpzCdDbX3sQHrSegXhsSawHFxxOJo1UexusVO2dPwBYNseKMwz20VpNNld4cIwFAFrXvvofoAWAw02fksH/umQpzjimC2N1zZbrQNg2Zk5txXvXL6k5c1eMXv4BAKlUaBmrCQmE5ykUYpIHAAAG8vGpSzUYA4Rjw23NItXWAst1Attlu2heJxbM6QimsEMwxiYaKThgxgIAqdTp9Xy+2Y9UVUrDcQQuW78IV65fiJbU2N/H0EKYIUfO78RFaxfVtAVIxSwCSDnJuhfiNH1ComFqAWCtiqV4besdE2OwHAduSxbpjja42QyEZcHEyNpZp80ylSchEQGAkVery5cv7ygpdNVTRi0vr8Pb3aQtH9Baw1fl/bStWRsXr5yPBTMy5b/UOB2KsG242fRhv3/8UZORz/u4+dcvVdUpxa37Sjk0AkCSJU7D/wBQ9GO8JZ0xcCEgbAvCssCECK39ntyVwfzZ7Xjhlf2BltvUAQAs93LUmUueMXbgSFo1eH61VBoa5cVvSuty3zheOXgrGBjKLDgUXBzYfnLgz3DQn5uiB/9e5dSaGr7SUEpjwaw2nH/mLMzscod+cNyyhG3ByWZGDY5PP3E6OGfYfOeLFQcBcXuDdRM3ApCgty1iRJx2AAAxOtuDMXDOwYSAEALMEhCCR/rGdtoJ0wMPABjqewEOi5kAgLEL6n2PzBf9UUqorlyNYf2o1hV/figg4BgWKAxGEwyD/e2BhYoH37xaa4CxAx09MLgXVpX///AO1nU41p0xE6ccNRFpu7qHwHJs2Nn0uANjpx4/DUIw3Hj78xXN78es/0+chA0+EQPitAMAAHSY+3qH2sjBjp4LDi4EGOfgMUzuMnN6K6ZMymLHroEgi03E1iUjAYBU+rh6y4i6D9KDIwzKQG0ci+OM46fi1KO70NVawxn3bDDlpVN5fvyTj5kKwTluuO25cef4o/7uD7Vnf7zepsYTtxEUEr5ek2sAari/arkjGWPl4Xg+lE6YHfj9wV+Uf80G12wxPviz8evkx7PsyIlBBwCJOLwk8ABg4/r1rYX+gpmllQk2bWIGpx07BUfPb0dbWuCtR7K6R5MLASebqSmSPuHoybAsjp/d8izkGCmDQ31bqMCbe3NRV6E68fr6SASMrgGoabi8ws8wwHJcWK4NLpK2/bZ2y46YhLvufQ2+H9j0nRtUQSYFPwKQK/4pNYDAjEkZnLx0EhbObsXENmfwYKPaOn0AAGOwU055/2sdg8zHHDkRjiPwo5ueGvVmj9s/3/YdyQoAKkuQShpZ3BYB8gruSWFZcLKVpdRtNK4rMG9WO557aV9gRQZVkEmBBwCKsfPj14WY1Za1ccziLiye045pXS7as/YID1zt34mw7cFc18HMLh85vxNXvHsp/uvnT6A0wqEYcRvC3ttbLL/AxKtao4rbCAoJX1+/uTUAtQwAjP3SwOCkXVgpB828guWI+ROCDABEEk4EDD4A0PXP/8fZpM4Uli2agPkzWjCtK4PWDB8hmUIwHYCwbdgpB9wKfqBm/ux2XHnx0bjuhicPOx4zbt1XefEkq+gtJh6SUk9iisk8ADWNADKgP+ehJXN4clY77cJKJeKF1agFczvAOQvsILSlhYK7CYj18GXgPYtUelrQZUaBM2DejDYcNb8D86a3YGKHi7TDwYw37gzCFrBTrpGOf7jZ09tw1cVH47ubnkAu/9YbS8wGAAAAvtRwEjIlGcfvj4QnX/CDnEs+XI0v6bt7iocFAFbKhU2dPwAgnbIwfXIW297sD6S8Qqty0UwBwKXr1i32837isra0ZW0ce8QELJjZhmldabRnbVgCI7TkBlt2xmC7NoTjhrpVZvqUFlz+7qPw3U2Po1gsj1bFbQoAAAolBSedkLnJGH5/JDym5/9ZjbfXvl4Pc4e9njHB4aQSsVstNHNmtgcWAKRyduwbgkA7a9tXFych4/ScaS04bnEXFsxqxeSOQxfoofzrkP7puLBguRYsx41s+m3WtFZccdHR+M9Nj6NYkrEcwO7P+WhLJ2JnDfX/Tc74AsAa24neQ04IddKpZp7yH9HsGW2456HtwRQmZbxWgo4g0ABAgp0ZZHlByaQtnHXiNBy3qGOUfffhttiMc1iOVT7YgsdjXHvO9FZc/q6j8L0bnoTOxSuJCQD0DJQwvSsZAQAoE2BT6zN9DkCNWfNyubdez4ZS75KDzZjaEtQ6AB99fc0VAGiljwyyvHpM6HCx8pTpWDK3HS1u7fvug8IYh3BsWLYFbgvEMfSeO6sd7167CN/66WNRV+Uwe3uLAFqirkZFaBdAc+sxPgWgUUv7MVB4KzBt9hX/o7EsjgkdKezem6+rHMbYp7rvuiv2A+LBjgBoPSXI8mpx2jGTcfZJ09DZag3PARxJXRhjEI4FYTuJibanTDj8UKE42LmnEHUVKkf9f1Mznga4xhGAQmmwP2IYPF2PjGTqxGy9AcB1X/zZjV8Lqj4mBXYXfGT58pb9Skc2RnvWidOw6pRpcIf+RhFNxDLOYDk2uG0n8iGLWwKTIW/sifVi2oNolNNIJ+1EShIM0wcB1XpfeYM7EzgXTZnsp1KTJ2aAZ2v9tH46le38cJD1MSmwHqrgZlajFP6Ix5J5HXj/2vlIRdjXciEG3/STnz5zIB+/+X8A2L5jAAnLBgQkMCc6qZ/pILrWu+pA+m8KTMc0ZVK21o9KBXZZ93XXJWa4MrBuU0l1VlBlVcLiDB+66EjMn5qOpEtggsNy7Ibo9IcbiOECQAAoeipZ/X/54GrShIweBATU3IF7g0cCMxqaGtPkiZlaP/qNf970iweCrItpwb03c3YsQkp6OGNSBh/ecCRSVrj9AecCwrVhOVZsVu8HbSAf33UrUmmIpLRdCQlUSLC0Lm9ZNanWRyCoDHeNLp2y0JKx0V/dy1CPZ8nPm6qTKcGNACg1L6iyxrJoTjuuvmBBaG9XjDEI14HlOLE8yzpoxVJ8t7AVfI2snYwIQGsFoDGDRDK6/rw35kmbQaj1DZ4CgMq1tbpVBgDsX/7vT7bsNlYhQwILALRmE02/9ixb2IlL180PIR0vwC0O23XBbaepFnPli/GcAgCAfF4im5DdFLQVsDmZ3vpdz/A9paeoXFurg9d3VPzjuSKsaw1Wx5jAWlOpldGcklO60vhACJ0/Fxx2KgXhWGjG1TLFUnwPr+rLeZjYlowAANTYNiWThwABtS8ABGhWqhptLZWfj8CA//rypk17DVbHmEDGtK9YseIok2ueHIvjk3+6xOxpcIzBzqSQam2FcGw0Y+cPYMTjgeNiX/wTax2gdXwDKWJOn+lttHUcCa4pBKhYW2vlO9q1Uv9hsCpGBRIAMMs5I4hyRnPFBYtgG5xOZVwg1doC240uH39cFIvxXQS4e19idtdAxTeOIgb1DZjeAlhHJ66bvHGrQltLpQGAfvpLN2z+H6OVMSiQ8VQt1fFBlDOSI+d2YNHMrLHxKy443NYsbY0ZVDJ5jGmdduxNTgBAE67Nqcd4EiBqp8KQTtnj/xAAMHa92ZqYFcgIgGJscRDljGTDOXMNTl4xOFnq/IfzYjwFsH3nQNRVqJimIYCm1NdvdhFtfU0VTQFUKuVWNuSsGL/NcFWMCiQA0BqzgijnUEfO7UB7xtzYP7d4U2ztq0bJj+/c9e79hcTk16UjgZvToUfuBo0n5P5PunRlqWX3vaTEg6brYlJAAYDuCqKcQ60/axZMRq3CqnCYp4nIGE8BAEBSdtdpmgJoSn2GpwDqWAPY7MubqpLJ2LDssbtHBjy0adOm+L4xVSCoACDwc1odi2NSh9mzhRi9/R/Gi3kP6/vxrt8BmqYBmo2UCv2Gz9Koa7qSRg8qxhnDpM6xUwIrzR4JqTrGBLIIUGkE3lMvP2na4LnX5tCJWIdThrOY1SvvSThWMjLs0XlAzaVvwDM+9VNX/4/y7pRkPD3RO2HZZJS8iZgyMYO2Fhclz8f+vhJefGU/nnpuD3J577Go61ivugOAq1asmJJTwY8uHbN4QtBFHob6/8PFvP9Hf85HezoZTVg5FwDdZM3C+CFAqH8Yv1SSsN2EJNOK2LIjJx3yOw4mTshg4ZwOLD91FvbuLyz+0qZfMMZYQoYlD1d36ySZfVwQFTlUV1sI8/P0enaYuI8A9BheZR0kWgjYXMLYAVDvjqVcjPN8JInjCEydnP1cz91f+rbWyU2wUH8PyHFUAPU4SCZtwQ7l2LfE/rsZE/dOa5/hRVZBojUAzaUnATsACsVEr1mLo6v23/3F7qgrUau6AwCl2fwgKjLckrkdIfREDAkeuTFGxTwC2LknOcmAdMy/SxKsOO8AGBLnsz6SioF9tu83Xwj8RTgMAYyB6xn1l3GwGZPHXn0ZhHLnTyMAh4p7APDGnlzUVaiYltTYNhPTOQBYABFAngIAExwp8YmoK1GL+gMAjckB1OMgUyakgy7yMPHu5qIT8/4f23cMICmBG40ANBfTawCCWLHk0RIAMxi7SOvuxC0qq7vCGjrw5frtLSEsANQH/osME/cRgKKnktL/0xqAJmP6HAAewLYlz6cIwJCugTvtQ7cNxF4QEUt7AGUcxLbCCaQSvHjTmJj3/wAAGfNkRUO00hRjNhHT2wB5AFMAcT7uO+lKAs0XACggG0RFhhOh7AAALQIcQRICgEJSsgFiKBcAaXS+r4yvsK/rKOBBpQQ9O0ljO87OqOtQrSDWAKQCqMdBrJACAHo7G0n8v5R8PjmdatzzKpBg9PQbXgDIWCCnlsb5tM+E6205/dO7oq5EtQIIAHTgE/ZhDfHqBHR2oUvAV9KXS1AyIAoAmkIStgACgErI9FkC/T6JGQEDyAMQfK7T/lxIC1VoDcBhknAH7+sz+7YVpLgvqiTBMJ0ESAR0kE9yxs4SRrO7o65CLerqvD++dq2RRQ9hpXvVoLez4ZLSV+3el6BkQJQLoCn0Gg5Kg8gBANCUlCkM7K6o61CLugKAPp8FngQIAPb2hJTulYbDDpKU1fU79iYoAKD2tin0GR8BCKacpAT5CdPf1trxcNSVqEVdAYCENz2oigy3a384DTw9DAdLynD19p0DUVehYpQLoDn0Gl4EyEUwM6209dmI37GTPpSchUnD1HVXcW5PCaoiw72+M6R0rwnp8MKSlOHB3fsL9R2MHiKtFd1nTaA3MYsAk/GMJ0pC5/+BOgMAIX0jAcD2XeEEANQuH0wnZAoASNbsTZK+V1IbkyMAnLPAkl9SeurgJXX+H6h3FwDngacBBoCSJ8N5w6MJ2oMkZQoAALyEjFYA9NbVDHoHzI0AB3EM8JAEPTZJkdj5f6DOAEBptAVVkUNJab4zojwAB0tS41AoJaeySlL+9UZWKEp4nrndHkEN/wPJ2OabMImd/wfqDAC0gTTAQ8JI95qgF95QJGkEILRcEQHQIQSzJDqmDwESAUYAtCg1YAme/wfqDQC0zgRVkUPlCiHsn6aH4SBJ6qjCyhURBEW5ABqa8S2AAQYAtBwlWEme/wfqDAAY4+mgKnKo/hDSvdLc7MGS1E2FlisiAFpJ0OBr4zKdBCioLIAAjXoGLNHz/0C9iwC1NhYA7O0NoYGn/v8gSdkGCISXKyIIWtPQayPrNTgCwDlDYFsAQDtSApbo+X+g/rMA3EBqMYLd+80HAIp2ARwkQTMA4eWKCIhK0pdLqtJncAtg0AejUosXoITP/wP1LwIM/CjgITvDSPeqNY3MDpOkt9SwckUEhdYBNC6TOQCCnP8HKA9AkJI+/w/UuwbA4AhAWOleNY0CHJCkr6LkSQQ6NmpYeR0AaUQmdwEIHvhhqyQYiZ//B+oeAdBOUBU5VFjpXpP01mta0r6JYoLWLCifAoBGtWuvudEoHvQIQKClNbXEz/8DdS8ChLEAAAhnywqNiL0lSYsAAaBvIDmdajnQpJut0fT2l1AomrkPGQs2CRAAugWDwnBX1FUIQp0jAMxoABBGulcaAXiLStgK4TAWigZF62TlWSCV2b03b6xsE8P/dAcGQmqF66OuRBDqvMO0HUw1RhZGuleam31L0vqnV9/sj7oKVZE0DdBwdu4xN/wf0AnAB6ERz0B8t/Mdf/Vy1JUIQr2LAK2gKjKSMNK90gDAMAmLAH7/6E4kaSGg8hM/ZUgO8fyr+42VbWQEgCKAio38Vekft7dM+FjYdTGlrg5cay2CqshIevo9zOgyttEAAE0BDJec7Ppl/TkPBV8jZTQMDY7y6V5rJEppvPBKj7HyrcAXAJBqMMbu00zdAc3mAHhZQN/atvyv7426XkGqr+lkjJscUyqne20xVj5AAcBwOmGLAAHg1TcHsHimsTOpAqWUglYKjLZ2NYRXt/eiUDQTNnPGjGyCohGAyjGmd3Sc9df/J+p6mFRvKmCjLVkY6V61UrQyZlASv4Z7H9sVdRWqoCG9pI2zkNE885LJ4X9jRZMKaa3DSUYTofp2ARjepx9WuletaXEWkMw84Y89txeeSs5QqfRoHUAjUErjD0/sMFa+sQRAyXvEI8SStcq4BvUtAtTaaMsbVrrXpO1/NyWpbcMfn90XdRUqpnyfsk82gCee22M2BXDQhwAcJDkBc5QYQCMAYzI8AlDyZEjZAJPa9QWLJXRUuC7RAAAgAElEQVTY8aa7XgnlPgmC1oAs0ihA0t37h9eNlh/0GQAHMAad2FA/XEqjN+o6mFbvYUDGW10ZwtY0StM6JBmd6KEKJYnXdplLyBI0v1RCcsdbyJu7cnhpm7m+QXBm7ElkDOGkWG0AjLM3oq6DaXW+85nvMAq++ZuVkgGViYS8RY/k+ze/gKQEMEoqKI/uuaS69e6XjJZvcvsfA6NkQBVSGmaHeWKgzl0A5ldf5QrmG0opJeiNzPS8o1n7eot4/KXkjNh5JZoGSKIXXu3Bsy+ZXXNi9DlkSNaxnxGyGXs+6jqYVu9ZAMZ7jL4BcwttDtD0TADJXQMw5Idbn09MMkPllWhPdsIorbHlzheMX8fkEcCMobwGgO69cbD9LWfmn4m6FqbVuQgwoFqM4c095nMBAIBStD+bJ3gKAAB8pXHLvckYtdMa8IvJOcyIAPc89Dp27Da7M4mbOAFwGAYMvvDQG8/Y9AOMdTf8l1RvIqCAqjG6V94IZysmLQQ0uPI4RHc/9CZe2RVO0Fgvn3YDJMa2N/tw+29fNn4dy3AGoKEYX1EAMCamsSXqOoShvjwAzPwr45Mv7g9lixcFAI2TfeybP30ShQQM6Gil4NNagNgrFH38ZMsz8EOYXzIdhA+VTudSjEmVbP7zqCsRhvrWAIQwApAv+siFcCyw9P2m3x/Lk74IYJDSwLd+/mwicgP4hSKtP40xrTVuuO057A0hLTkQ3kJcOplyTHdM+pO/TMZcYp3qPA44nBb2xW0hTANoQDf5KAAzerZjuF57sx8/uO1lxH1roJKSzgeIsVvvfhmPP7snlGtxFsJW3MHypa9oIeCo+L9GXYOw1PnKF84NdNPdryKMhlw2+d5sc+lHovHIM3tww12vxT0GgFfIg4YB4ueOe17Fbx/cHtr1TM//A8MDDA0lm7u9G8X/tJ/1F3dEXYmwxPowoCH7eovY02d+yMovFZs6KhZWY0wBDHfvoztx2/07Yh0EKKmaPviMm98+uB13/v7VUK8ZyiLcYdege+5wGupTjLGm6QTqPAwovNeWH//yRePX0Eo39UNhJWDOvBZ33LcdN/x6e2gBay28QjJ2LjQ6pTVu+83LuOUus9n+RmKFMP/Ph/VtvhdCjpUE0Ro/6lz+uV9HXY8wxT4PwJBXXu/Ha7vNN5J+qXn3ZrMEZwIcz72P7sBXr38GfkyPDlY+rQWIWrEk8YMbn8Ld928L/dqcsVDycAy/gpaKpgHesk3A/mTUlQhbvbsAQh0q+e4vnoMyewIxpO837R7ZpCcCGs+2N/vx+e89iv25eDZ6Xj45Bxo1mh27c7jmB3/E0y/sjeT6Ybz9AzhsZwxtQwUAeFzpP217x6d3R12RsCVq0rc/5+EHt71kdnuXBvxCcw6N/eGJHVFXwbj+nIfPf+cR3PHQTuiYLQxQUsEvNue9FxUpFe6+fxu+8f0/Yufe6AKwsAKAQ4N8v1hq9vWnWkN/qO3sv74n6opEoc5tgOHfOo89txe/fXQ3TM4/yGLz5Wl/9uV9uOOecBc9Rem232/DP3zvUezsidcbkEd5AULz8vZefO2//ojbfvMyfBntqF8YOwAA4LA4Q+vB46mbk2b4TOfyv/7PqOsRFSvqCtTipl+/grQjcNIRHUbK19Dw8kU4mZSR8uPm5W29+OEvnoJMykk6Aent9/DP//UYjl7YiYvPmYuME/2IgFYKXqEIO+1GXZWG1dtXxJ33voYHH30zFpt+LB7iBtwR4gy/WITl2oj1VpngeWD4WOdZf/XtqCsSpfoCAMZ0VE/QT3/5InoHZuHsEycZeWPyiyXYaRchZDuO1GPP7MamW5+F5zXnugcAePz5fXj8+X1YeeoMnHPylMPfkkLmFwuwXBvM4KlwzajkKfzmgW24+4Ft8GOUCleEmIN7pHU+SirIkgfhOKHVI2L7oHFxx/K/apr9/qOpK/fbMfMW/I2OcBThuVd7sWN/CUcv6DRzgpYGhJ3IQZJx+VLjV797BTf/+qWD3vyLTRwIvLitD//94Bvo6Ehh+qRMpO9DWspmfCszQkqFhx7bgR/e+CSefnEflIrBa/8waUeEtgC3o83FkXPbDvt9JRUs101C9uw6sT9AilUdZ3/24ahrEgf1jgBEnjjnkWf24OkX9+GD7zoCc6dkEORwgF8swXYdsEY5JWfQK9t7cePtzxs/2jSJlAau/+VL2PrbbXjfuvlYPL0FUUzKS18221uZEc+/sh83//eLsb3XGWOhnsI52qXKB1OV27sG9u32XOYTbN0nmnev9yHquvM+cPaqvNSIzUT5/BmteN/aBejICATVaAvbgtuSDaSsqPX0lfDf97465txnb86jNWjDzJzagkvWzMfENhthBwKMc6TaWhp+GsqEbW/24ZZfv4SXtvVGXZUx2YIh44Y3yrhgVgvOffvMkf+QAem21oabetJKo7+nf8+sd35hYtR1iZu67jwds/XKL27vw+e/80e8bekkXHjWLDgBPFfS8yE9P9FTAUNzn795YBu8ceY+Y/UPGgPb3uzHl657NJKFgloplHIFuNl0aNdMurgt8BuPHXL6bT5W565RXvzcQPdbqeBj/+4eZDPiuajrEkeJXQQ4lgee2IUHntiFtX8yC2efMBmszm6tlMsNvoklKzKWUuHhx3fiV/e8iv6B5t3qE4SoFgrKUgnSsRMdgIYhrgv8xhPW9r8h4w0m+SUPokHut/6eHHr29KG9zQVvovz+1ajvXznmm+Vv/d1ruPP+1/HeNfOxbH5bzesVtNIo5YqJehN7/pX92HLni9i5p7q5TwYaBRjLr+7bjjvv344Nq+bhpCMngIXwCJQD0FaaChjBUJB7x+9eQV8uXjkdxiNE+Odvjj/goMv3W2srWIhrE4KklcaenfuR7yugrd0Fj3pbT4zVFQCwmI4ADFfyJP5ry3OY0OHi0nULMXOSW1MPJ0sl+LYFy7GDr2SAkjL3mWRhLxTUSqPYn0OqNQPaFfCWuC/wG48dweJiXkGnrpVGaSAPtyWTuNutVPCx+8198D0fLS0ObLuujW4Nr84RgOS8LO7dX8RXfvwE5kxvwSVrF6Aza6HaRtvL5SBEayx3BVSywK8iNARQsf6ch2///8+EslBQ+T68fBF2OjZrbiPTKEGuHcGbqahwgZ/0vcQlpOrvyWHfrl5orZFOW0ilkj+NYVp9hwExJGeybdArr/fjH7/7CHbsyVe92lVroJjLxWrQQyuNfbv78L2fPYoHHql/4VPCAv5YGFooeN0tL8JkGgWvWIT0kjXMHaR8wcOtd7+Ia374SOI7f86iOXyrmuFwr1CAX4z//aaVxu4392Hvzh5oreG6FrLZht7OGJg6zwKIU1dYHeVL7NrZj0JJVbW4T/kSpVwOUb8ma63R35PD66/sQqE/F9hyjMT+g8bA48/vQ+/eHArF6u6pimmgNJCHjlkiG9O00ujZ04892/fijTf6EtzqvCXs1f9Dqs054OXysQ46SwUfb7y6G7m+8lHxjsPR2kqdf6XqHCNhKuldRn9vAQOMoa0jDcdiFXWksuTBEwJ2KprhsUKuiH27euGVyufHpwO84WkGoH79fQX09wPtHWnYNi8vGgiI1hqFvgGk27JmT8WMAa01Bnrz6NnTBykVXFfAb5DgJ4r5fwAA46jmKdfQKA7kkGppAbfiNZ8+fMgfABxboK2NOv9qNH0AAJQbmp59OQhLoL09Bc7Hz3Dg5QtgAKwQg4BSsYR9u/pQzL+1pY8xwA0i4QEJlgZ69uXBOUNbZ6a8+jqoURolURzINUyCqpEcGuQCjXOf85Cz/w3nlzz095fQ2upC6wrnqzRQ6B+A25KFiEEQMLTKf+itHwBsW6C1zQFNYlanvl0AMd8GWC3pS+zdMwDHEWhrTw822KP/FUv5IsD4YM52k/VS6Nnbh/7e3GHVSaftYF8EY5DeuZEopbF/zwAsR6C9PT24bbD+71d6Prx8HnY6OVtTKzFSkAsAnAOOG7/Ft7WwItyWxgRHoeCh5El0TsiAVRwEaJT6+2Fn0rAiTE9dLJSw58398D154PccR6C1tRnOMQhefZkAGVQDDAAcplSS2L2rH+mMg5asM0akrFHK5QGtjIwEaKXRu28Avfv6R5yaYAxIpQIOPqjzN8IvSezZ1Y9U2kFrqwOt6l8t6BVKYEzASiV/2FP6Ej17+0cMcgHAbaCDkaJY/T/EGry0kur/tXffUZId9b3Av1U3dZy0aTYnhY1ahRVCCISEtFoBq/gkkISwJILAxsgiPCPgvGewj00yJtgm2c/4PQ5JJphkIxuQwBIyKCGEclppc5rU8aaq90dPL7sz3TO3++ae3+ccDke707drZqdv1a1fKBw5VEaxL4OMoXgKfUoJWJU6pCsir0aRQmJ8tIzSSOW44jNdV9BXNHrlVyNyPvsApK8KoBO1qoVa1UKxLzv5IWn17UpYtTqkbH4o/P8mHo19jpThOm7br8tmNATdtpvRDkCo6jUL9ZqFfDGDXEb1vg3bhlWrAwxQU3qIy2yL3KZeKelijEXe/e9YU0MPpYk6KgrHwEAWCvfS1kXCrptwHQdGPgvGww0JSAlUSzWMHSlNuxdmMiryhXT+3ieFvx0AifazUw8pTdRQYQzFgSw0tfUEadctuI6Y/FB0/wFvFftshXOGbC740ANN/dGolOqoBJIoKGFVG7HQNC0Cpib4zcTQFSg90s0tzqd/oHUVgHAFRo5UwBWOvv7GPW62HSrhuKhNVKAZRiMZOuBvy3UFqqUaSmOV47b7gcZb5XJaV/e/XYdqr+RSvlowMA55z5L5uR8yxnr6QXYmtAPgkfCQKCgcB/VSBXo+C0Xt7EfbLvbZTj6vhxLz6o3bbEockyjYP5iD0nW7cgmrVmvsBKTg+GCvi9ymMBa6cYkt+3/STH0AhCswNlIBAGRyOrJZDaoyWRnVamtAykavAMuEauhQdaPr9sFSSlimDatmo1Y1YdastmHPYtGArne28yCZyncfqn4FUl4vATAJSDDsOVS7c/9+ecnwMKt0NfCU89sJcM4sAJqaiYKarqK/PzMtUVAKAbNUgZoxoGeMWUu1Zkrwa0c3FBhG/Nm4JBhCSIz6TRScjM9CyEgrUzrR6SIXaMR41Zhq5oPGWbwJgACge5yg61UL9Wrz34lB0xVo2uS/BcPx51K4EpZtAjDRXCvM9tsrpYQUEsIVcF0Bx3ZnzUNQFI6+Ph1Kh4soqRpgG9+4DhJntfjr8x2l9gUAb+zooj3CZxJgb5QBdsO2HBw+VEYupyNX0Ce3cH//s3DqJlzLhpY1oGr6tEdr1xGYGCujPNZZEx/OGAohxr1oByA+RxMFMxoKfQbQcaJgMx9FTrZwTca/5mwJfjPppad/NQEldLyrHQgJ23I879iEwTBUFApaxwdiSb0AueE6yPxwf/svwvW7DlS/u3xR7jt+x5k2vhYAXAp3TiQBzKBatVCtWjAyGnJ5o7FlJho/FSkErEoNjmJCzWTAGEO9bqNaqqNeNbvq3lco6qG2EJ2by7lkqddt1Os2CsUMsl0kCtp1E1IK6NlsrM2CvCb4tWPoSmwd88IQd/wfAJT41yAdYYyhUNBgGJ1PVTIzBLnxOiAz5OF98IV9+0r/tXhx8VA340wrnzsAXCCtUYCAP4tm3YZZb7TM5IxB1ZXGwRucwXUtOIerELMkO80ml1M7jn11Kv5bFGny01HQMW0IV/pOSu1GJwl+7THkeqifO2eAmoDjdePOQeiEqiooFvWuEkBlcQnk+usALef1JQsEVz4F4PqO3yzF/CUBIr1VAEqIT0ZCSlhmsNtlhqEgl2t/QzTo2Mve5KOjoHAc1CfKMAo58A6TUrvVaYJfO7mc2jOZ/0ByJt40/EwZZ8hlNWSyancPJP1rINdfDSid5cJIhjfsOlD9zlwKBfjbAYDPIuYQLV65Cms3bgYAPP/4o9jz/HPH/b3C01PurqkchcLMv8zF/PGx0kw+jxO3bEVhYBCjB/fj6d88ANeZ/VAP6qaVTN12FJRSwixVoWYNaEZ4DVO6SfBrhysM2WzvxP4BJOZc+qQsRNoxDBX5gtZ1mFMu2AKcsAPosj/BXAsF+MwBSN4OAOccV77lD/GSC7Yd9+e/uee/8J1//Dzq1SqWL8ylZvJXVY5iX2bWiXnpwhwef34cALDxrHOw/fq3IFsoHP37scMHcftnPoZDu1+c8Top+bHMWd10FJSQsGt1CMeBngs2JOAnwa+dQi6cEte4cAYk5cE7qfO/qnLkC7qvnA+55CzI1RfB5yp3ToUCfP06SMYStwDYdvU10yZ/ADj1nFfg1o/9DZatWYtXbFkQw8g6p6p8sufA7F+7cU0/dF3Hq2+4GZe//dbjJn8AGJi/ENe86wPI5Gc+QKbTLFsSj3rNwqGDZdQ6OHrYtR3UJ0pw6qbvybp5RO/enYdQHg9u8jcMBXqPlbjqCXn6B5L3+VYUjmKfgYGBjI/Jn0Gu3ga5ejsC6cTaCAVc6ftCKeB3PZioBcDS1Wtw/qXt/92GFg7jHX/xUZz00m1IerqbrjUaDnn9vPbNH8ZbP/xRnH7e9MXP0a8ZmoeLrrtp5gulZWuEAGh0FDxypAzbReNRcxZSNtoH18vlrpJSpQRK41Xs3XkQ4yOlrrL72+EKmzXUlUZJ33aPg6ZyFIs6BgczMPwkNjMV8uQrIZecHdzgADCGvwr0ggnlLzOIJWcBoKoarnnHrbMmOymqhtymHVDnr0HloX+BtGoRjdC7TKZR8+qVnLcO8oTLMKDOfvPc/LJX4sn7f4UnH7qv9Rcw72eFk2QQAhgfrYJzhmJ/FrrKZp2YheOiXipB0XToWWPWsICUEuXxKiZGy3CdcFJ/CiF1t4yTypmXdVlk1IHFcMf3xfb+hq4gk1WDyYlQdIh1VwMDa/1fawrJ8IPAL5pA/kIACaoB3Hb167Fo+QrPX68Pb0D/ebdAHfT+mvAx5Av6ZKMfD3cNpkKuvhhy3esAD5N/08V/8NZpIQKSfkI02lUfOVKBaQmAccz4eyQB17JQGy/BqtQwrauHbBy/OnpoAnufP4jRQxOhTf7ZbPglrnFI0vY/pETfOW+DOm91pG+rqBz5vI6heVkU+4xAJn+pFyA23xjK5A/AVhT2t2FcOGl8LQAYZHytoY6xdPUavHLH5R2/jmcH0ffym5FZew7iDgkoCsfAQKPxiyfZeRBb3gy55CUdv1dhYBDbrr2x5d8l6GGFdEmIxilvhw+VcWS0irolISQDOAfjvGUc2HUcWJUa6pUqSmMVHDkwjj07D+LAriMojVV81PPPTlX4jCWuacUQf+vf4zAGpmXQ97I3Q196Sphv00jqy2sYGsxicCCDbFYNrIGZzAxBbr4RyA8Hcr2pVIWxrKp8bWTC/OhY2b5wl5TZUN4oAXyeBsjcuLeLVVXD6//oT7qvc+YqcpsugTp/bSwhAcYaJU+5nPfxN7f8O3nqn2rzy16JJx/4NZ588NfHX7vrK5Ikkq5EeWLK7zRrVMtwzsAZh+u6EEIGGs/3inGGvj6j57b+gUacO0nf1tF/Xa4if8Y14HoO9ef/2/d1GWs85Wsqb5wXoPHQupV20eCnY5rCVQDnMLBzpJDvK5RsZ7RkPQzgHgZ5twL9rmKR9USZoN/uILHnAFx41eswvGKl7+vowxugnncLyvd9Hc7ozKVyQdENBfmc5v1wC6ZCrrqwq6f+Vi5+41vw4lOPoVYu//4tArny3MSBxg8w6aso2Tj5rdGxOr6PMANQLBgznlA3VZoS6vQkPf1PwRhH7pTLoReHUHv8DkgpIUSjZFQe13GSgTUamoIxBs4YuMKg8Mb/qwoHV3g0C7guG/x0QuEMfHrShgqJMwCcIcFucWBjdMJ6DsA9jOFuF/KeeUXj0dAGFaJUJwEuXb0G511yRWDXa4YEqo/9O+rP/hJh3cl1XUEup3V2yll2HsTJVwH5RYGNoxkK+P4//F1g15zLBvoMKqLoQC6vQ9c7m9CzKSkR5Jx1fGpd6Fr8cqqrz0Vfvh949odgIvbnubb8NvjxqoNSxDUA1kiJN3IwjE2Y+yVwPwO/WwD3DBbVXzHGZu+8FjN/rYBlfDkAvrf+2wkpJMAYg2EoyGa1jttxyqF1kCf62/JvZ2ooILnPLMk31Ndb3evClM1qyGY7/+zmunhNHPSkTf4zkAu3AGoW7MlvAyJ5c1ZADX5mxXljZ6MbEmwYwA4JuYMBGCvZ5dEJ62EJeTfn/CelvHrPcsYSV3Lm9yyA2BYA2WIBQwsWhnZ9fXgD1Fe+E+X7vgpnbE9X12AMUDUFhq7CMJTOt8m4Crl6O+TwGV29v1eLlq+clgswpzGG4dPPwZIzz0X/irXQ8kWY46MYe/5J7Ln3Zzj8xG9avuzEpX0RDzSdDENFPt/dYml4KNP27zLzhrHo7G0YWHcqjIH5kK6L6sE9GHv8Qez/5R1w69Vuh9wZxtJ3iuHQSZCb/gDs8a8DdkQ/p1kxyNUXBl7j307A4aUCUpBH4GtJdcOF2z9vu/LtQQ3GC84Yzt92Ni645FLkl26AaYdciSicjkICnHPoOoOuqdD01hnXnoSw5d8K5wwZWcULv/0l/v1b38PTz+6BaSd3KzBsmYEhnPKm92Bg5Yltv+bgI/fjsa9/AVZl4rg/f9tlazHY5cQ2V+iGgmLR6PrGM1ay8LfffPL4P2QMS867DMtedTmY2vrnb1dLePYbf4/xpx/p8p2901SOXAJLGoUEbvnc12b+ouoh8Me+Bpjj0QyqHa5AnHAZsGBTJG/HGJA1ujx8qHux5xH4+n5v3P7qt1qW+6WgBjOT4eH5uOJ1l2D92a+Ckhs8+uem7cJxww+8WvsfmxISYFBVQFEUKAqDojBoqtJRQlM7YW75H4uBIXvszoQU+Pit78ALO3eF+r5JpeXyOOvdH0FuwezlReb4CB7+509j7Lknjv7ZbdetC3N4qafrCvr6/P9Of+5bT+HImAkAUPN9OOF1b0f/SVtmfZ10HTzx5Y9h4tnHfI9hJnlDgZrAEICUwDtnWwAAYFYZ7LGvApUDEYyqhRAb/LSjT1YxxIlBRp5H4G8BcN55GZsbZSllaMvdrWduwvbLdmDJhrMApfXqvmY6nRyV3jVpjgGPfQu8vAcsjPZeAWf5z8bQlWlnlH/qfe/FM0880eYVve3Ut/wpFm7e6vnrhXDx7I++iZ0//R62rhvCBael44yJOOiGgr5iMAvaXz58CD+9bz/61qzH2te/A3rf4OwvmmSXx/HbT98GZ8ruTVA4Zyh67eURMQHglr+ffQEAAHBMsMe/ATbxQqhjmkrqBcgN14VW499OLqOAJS8Dqgwg1DwC39/xDRdu/4ntyguCGExTJpvB5VdehJds2wFjcMmsX+9KCdN0o6m+kg7Yzp+C7f01Aq0SiGjLv0lVGIwWHbk+fdv/xNOPPx7JGJJkyZnnYtP1f9zVa0eeegRnjvwI/SwpsdNkyWRU5At6YLfXcs3F7S+swNKLrwVTOp9sRx97AE995W8CGs3xMroCI6Hxfykl3vm5r3fwAgfsqe+BHY5mZ1pmhiA3XgdkhiJ5vyZN5dAT+m82hQOGQPMIfC9VjdHDl4r++ftdKYt+r3XSySux48pLsOaMc8E6aPSgTCbdWCG1KT0Om0zM618F/vT3AKfu+5JRbfk3MYaWkz8A8ARuXYbN6BvAyVfe2PXrh07ajBetVVj9zO0olKJ9Ykq6bE5DPhdcXoSl5PDUmh1YtmlN19cY3HAGhjafhZFHfhXYuJqSXPsvO81HYirkSVc0KgT23x/OoCZF0eCnFYaOSv/iNrUfgRydsB6XwN1M4m7puj8fGsp21MTG9wLgSw88UH3rBRdfUIP8uZDouGXisUl9/Ss2ottNCU3lcIWEG0UsAACGToY49W1gT34brLS7u2tEvOXflJmhF7fXo2V7yfqr3gIt5+9sBFsv4qn1N2Hxnp9jeO9dYHO+IQBDoaghYwS3HT6aXY7fLroMpuL/HItVl9+E0vNPwC4Hl+ymqT6SfiPQ1RY345BrXwNk+sF2/gyh9EaJoMFPO4qSwI1/7xiADQzYAIabmapgtGQ9ICX7tqtY/3dBPr93tgsEcrf/h5/++D5DY8sUzjxn1wwPz8cf3nITPv21/4cr3/EB9K/YBL8RCUOLOI5j9ENu/gPIJWeh47EbA5Cbb4h88tdV3qrT1VFJvoGFYcmZ52LhloD+DRjHvmXn45l1N8DWfG+IpRbnDP0DRoCTP8OL/VvxwOJrApn8AUDLFbH6ijcHcq2mpG79N/mZuuXScyBPvBQy4EY8csEWyA3XxjL5A+nqLOmJxBkM8q9UoT09WrI+UyrJGWvlA1ue/5877hgBsPGGC7e/Vgh82ZWyZUaUl6S+bjEG6BqPtoyti5BA1Fv+TZzPXp88l0IAfrf+2yn1rcETm94+J0MCmq6gWNQD6wVvKTn8buEOHM51v+XfTpChANVHE5m0CLphUFQNftpp0/a3N0jkANziwL52bMx+w8CA9p+tviy07/7GCy/+iCPEe4SE1mlSn19RlQZOf+PxmUMCMW35Ay1K/tr4/If/N3734IPRDCpmp77pvcE9/bcixZwJCTA04v25AOP9QW75t2NXS3jkU+/zHQrIGSq0BMf/AUCC4Z1//1Xf12GlPT4bBkXb4KedjK70/KJtksvA3j/Qp31i6l+EVq/yzz/58fuf+sW37xbawD8tPOmMhZ0k9fllaAqEiKY08Pg37ofcfAOw8yfTqwSMAciT/wdkcWnEg2rQdW8HdvCQe20nRaBb/+1MhgTKfSux6plvQ7NL4b5fTFSFo1jUoQS2Bc7wYv8ZeGre+RAs5N7vk6EAP1UBnCHxkz8QXPReFpdCbrqhu4ZBETf4aTuMObBjcwxFQn58bMJmA33ax4/9i8AXAPLOO9Uji5R3s74l7+Z9yxfFtb2j60p0pYHHYgrk6u3AvJPBHr+9EQd81TcAACAASURBVBKYvwHyhMsgAw55eKUqbFq9fztzIQQQ1tZ/O70cEmhk+asI6nMe5pZ/O35DASkpIQtWbgHkKW/urGFQDA1+2um52L8HEvKjh47UxYJ5mb9u/llgC4Ajj/5sozQGPjk2sPICRS/G3gkj0tLAFmTfKsgz3w1ujUNk5sUyBmDmkr9W5sICIIis/071WpWArnMU8p0d5TubKLb82+m2KoAxQFfTsmsW7MOY1AuQm2701DAorgY/rTCGjg9k6wWWI5jtup/Yd6j2wOIF2TuBAKoADj9y5/WHn3/0Mb7krN8pCzdtRwIm/yZN5fFu83A11skfmLnkrxXOe3sBEMnWfzs9UCWgKBzFooG+vkyAk3/wWf6d6rYqQFe8hdZ6lmpAbroecv7Gtl8iM0OQm29MxOQPNJ7+59o/mekI2I4AwCCZ/Hbzz7u62z//0J0DR5787y8e2benqqw85yvKvBPXB53RH5TISwMTZLaSv1ZYDy8Aot76b6cZEigXV8Y9FM+4wlAo6BgYyMAwgnvitZQcHlx8NZ6Yf2Ho8f7ZNEMBndA7XGD3JKZAnnQl5PD0NtqyuARyy5sj7+43E1WdO/OBlJNJ8cfshAuBwQMj5p8CHS4A9j/8swsOP/Pwvf0rThvhi0+/mecXdNz4J2rN0sC5xkvJX+vX9e4NLY6t/3aaIYF9S8/vvENbhDhnyOc1DA5kkcmogT7tjmaX497lb4o03j+bVZffBK3Q7+lrNZUjTXlkofb4YKzRMOiEHTgaahhYC7npRkBNzjShqXzOPBBKSNTbVMQJId4LeMgBkPJD/PBjF/0ZH1j8Dl5cMi+upD4/VIXBFSzU0kDGJrNsPbwFB4MIMT2RgXW89d/UqyGAWLf+20lwlYCicmQzGoyMEsInPros/051UhWQ9MY/U0WRdSIWnQ6RWQAxvgvq8rORpPgIw9xJ/pMSqNsCok0pnCvkgiNHqmfPuAA4/OjdHxjZv+qD6vKF0TZoDkGYpYGMNWLtNY8NiDSVwZUIbUHiteSvlV5cACRl67+dpFQJMNaonslkVGghbW3HkeXfKS9VAWls/BPFaPft3Yfv/+uPcPjQYVx6eRGbt2yO4F29URSWpPVIaKRsnJA72+ziQnlrywXA8w/dOdDXP+8uPv/kLWl84m8njNJAzhkyWuc9wA1NAecCth3sXkAnJX+tMCVZT2RBUHMFcE2PexgzaoYEluz+KYb33o1ontcaNI3DMFTohhJYB79WRrIr8MjCS2GqyQjDzEQvDsz892kMK4b4b1ur1vBvP/wRfnHXLyBEI978pc9/ESeedCKuvuZ1WLxkcWjv7dVcePoXQqJueZtTHCleNW0BsP/hO1ZrC074LS8sSv6ntENBlwZqCoemdZ9RqikcCmOo2wIygLKwTkv+Wo5JS2Yypx9DOY78xC7U58VffzwjxrF3+TaU+teGHhLQdAW6xqHrCpTQb4zJ3fJvxXBrmM/HcZCzlluonLNUTiZh5ABIKXH/r+/Dd7/1XZRK039fn37qaXz0Lz+Kc1/5Crzmktcim40nH6Cn2/5Ocl2JuuO9Db6UWHjcAmDPw3efjOFNj7JMLvmf0i4FcWogY43rBHET4JwhqyswLReuz0VAt3H/YxUHvCVAJR1jDKefdzbWverVwLItkIxDVE1YUZ4T0aUwQgIKZ9B0BdrkpB/VoU9p2PI/FuMM+b4hFK97H064/DAmHvkF7v/+9zEx+vv+AJmUxf6bFDXYxf2LO1/AN79xO17cOfPvqHBd3PWzu/DQgw/h8isuxxkv2Rr5oWO9nvnvuLLjM3AYoB+dMaT8EK/I17zg8ozhCAnOWajbgXFSOO86/t6M96stJn/b9bazoE5ZjTYaU3BIyK5zFHSVtxxTp+rVGu7/xc99XycuxYF+XHDtVTj75vdiaOtFQP/io1ufmqLAtGPoDtkFoRg4Mv9UAAyF8gsd7jI1droMQ0UupyJf0JHLadB1BWqER9aOZpfjgSXXomQsiuT9gtCXNY5+joSWg7ZsPdac9xqcsH4V7PEjKB0eQTbAMsgo5QaGcNr5F/u+juPY+MH3foivfeWrGBsd8/w6s27i4d88jJ3P7cQJJ50Y2W4A5wxGapo1dc5yRFe72hLHFLHs37XzIcdYeGrzvxkascE0bnV50c2KabZ4f8V0PIVuDZVDbfMUYbud5wU0dxGC4DgObr3qcqStUd260zfh1It3QD3hLAje/knHdlyMV8wIR+ZfceK5aSEBBoApjUW6onAoKoOqciicJ6DLWbq2/JsyhopCZuZcEW1iN0bv+w88+h//CdtN/m7Ssda/7AJc8AZ/RyBPjI/js5/6WxzYv9/XdbKZLG56y01Yv2mDr+t4YWgK1Ng/E+GwbOH5wbMVFQAOPfHgVvOYyR9ozGOWLSBcCSOgySVJOi0N9Bvv96rTvAA/JX+tqKqK+QsX4tCBg4FdMyy6oeOsi87H6lftgDO4GgAw20dBUxVkDA110/9xplEp9a3BU6e8Hev3fBdD9d2N3bmExjPTtuXfpHKGvDH7FrndtwyFC96Ec869Gs5T9+KxO36Ikb3+JsMoSAmcc8Xru78Aa9ybDJXjyJEjvsdTq9cghQND57BsEdoDR6+2/ZUSsBz/p94qAPCe2/7sfqFkWvYmFRJwhYTKe6/lpapwuO7MT9vNRkK6Ovvk320IYPp7MqgKhxBy1p0AI4QjLW3TxBO/fTjQawZp2eoV2HbjG3HajbeiuOnlENnBjl6vqQps24VI0TaHyw0cGNgMzjmGrN2JrM1J45Y/0NhN6StkoHRQAisUA1i4FgtfejHWnroRmlvD2L69id05U7M5nL3jqq5eqzCGrK5CVRiyuSzMuomnn37W13jWrF2Na669Cgrnjfi8ZKF8HvW428GHoNHgR/jKY2tio88/NFAtnDw628+eMQZD670fpisaoYBW338z3u/1aSuIEMBxJGDOsMpTFeY767+d915zFWq1eijX7karpD4/HCExVq4jsXfsGQzVXsDmgz+A4ZTjHsqkdG75N+UzGrIenv5no1UPo/rY3Xj0xz9EeWwigJEF56K3vgsnnXpmR69hk0/9UzuKOo6DD7z/Qzh86HBXY1EUBX/5kQ9h4cIFx/25KwRMWwZSEdWUy/RWK3gpgZrlBHbbUt5167v/SWj9nro1NCeiXloEcMbAOTD14V3hDBnd++QPBLcDcBRr7FJwhmmrPVVh0FUltF2Z+YsW4aF77w3n4h2YKanPD84a8XOrg7KZpKhpA9hf3ID++l5knXgnGkvJ4eHhK/Bi/xm+F2Vx0FUFhWwwPSKEloOyZB2WnnMxVp60As74EZSOjARybT+ygwuw7brOYv/NkuJWicWcc+zbtx8v7trV8WTNGMPChYtw6WWvmX5dxqAqDEKyQBYBmsqh9lBjMyEarX2DfGZRofdf0MkLbEdASBlo3DluCufIGY0VqJQMnCFRMVZVaSR2ue5k8hdnofcgP/0Vr8T9v7gLD//6vnDfqI2pSX1OCO+R0VVYjpuK0sCpTKWA+5dehzUjv8SasXtiOV44zuN7g8A4QyEXfIMoV9GBNS/D6ptfhpMndmMkxqRBAY43fvCjHb1GVRh0beae+bbtIJPJwTZN2I63fBpFUaAbGTgz/BwYY8joDLYLX03SGNDVWShJ5QoJ02ODn06wfQcnHBed10hw3th+TtA8GbvAQwAJ8PF33YIXnnsukvdqldQXNjEZCkhTPsBU0YcE0r3l39SXMyI7zU+1S5EnDboSuP6DH8O8pcu9vYA1YuZeKr8++9kv4qknnwbQ+Ay5jgXHdSHF8bugjDFwRYGqaVAmDxpjjOEzn/3YrG3HXSlhWW5XpdFhhkej5rgSpuOG0hyU7T5Ykd22+2Vg0HXWU9ssfvTiAgAAvvAXf4ZH7n8gtOsvW70CZ112KXIbXwFXy4f2Pu2ksTRwKsMt45T9/4rB+u5Q3yetWf5TeSn5CwOTEurBx7D7F/+OZ++7r+1hLX5JpuAN/+vjGFrkrQUvZ8325N7mgo995FPYtXtPq3eGFBKSAXyGkNDHPvHnyOdmP2JGQsK0JFzRWalbtsPwbVI5roBpB9O5thWVgXW9sGj+40i1t7ZbyPHe/r8+jHt/8h+4/YtfgGVZgVyzVVJfXBvxaSwNnCqKkEDat/ybFI8lf2GQjMFetBGLrt6IZa8NPmlQSmDeslV44wf/Eq70NgEqnMPQWUfJcpVqtc3fMDA++5WqlZqnBQBDIyRgOY3wsxe90vbXcoTn77lbbPfBaiB3CoUzGPrcOWu5lV7dAWgSQuBbX/o8/uuOO44e+NGp4kA/Xn7FDix4yXY42aGAR9g9CWC8VIfT5feVJMGHBHpjyx9o7HX2FzOJ2rVUXAvyhfvx7E9+hD1PPd31dZhm4Opbb8PqdRsBAFVz9mxxXZ2e5e/Fe979QZhm97tm7/3TW7Bq5YqOXuMK0XjgnOUmmwmhNDpqfhv8eBXYAgBobCNldLXn+gV41esLgKaxQwfx5U9+HM8+/oTn3SOvnfrilObSwKmCCgn0ypZ/U1Alf2HRu0galGB42eXX4NxLrjjuz3+fODb995mh8cDWzUTpui5u/ZPbfGXqv+Mdb8H6Des6fp2QQH2GMri031sBoG6JjkMe3Qp0AdDUy60XZzJXFgBNTz78G3zt7z6DwwcPtfz7OJL6/KpbDsq1YMIccWMQvkICvbLl36SrCvryRtzD8MRL0qCUEis2no5r331b2/bkUja2zh3RqK9njEFRGHSl+8ZupVIJ77/tw929eNJNN70BZ2w9ravXStmIjTuuOJogqHAOXU331r9E4yjfsPJCWpl2HHAQGo11uttaIulx8pZT8eF/+DJ+9t3v4Iff+CrMemNLcGpSXxglfGFJc2ngVBIczw69HKPZ5R2GBHpny78prJK/sDhaEdh4ETZu2DYtaVBKoH94KW78wJ8jW2jZwPWoo51MAxxbtVrzfY1KpV0OweyOnsbaQ/OLlEC9y4oHP0LZAWjqJrkkzebaDsCxXNfFvT/7EZThFZBLT0llU5imXigNnMprSKDXtvyboiz5C4tWPYz6k/+NdSeux8Lla2Mbx/PP7cQnP/l3vq6xY8d2XPzqbQGNKN0aDX68nf0StFB2AJpcIVA353ZeQK+zbRMHjuzDfj4ItvXSWQ/jSQPOGYo5PfWlgcfyUiXQa1v+TRlDTf3kDwB2bj6U03bgOdfC+N4XMFzIo9g3P/JxtK8A8C6IXYReEOfkD4S8AAAaSRs100VG56mOz5DjlSYOYX+5isPGEghjVdzDCVwvlAZO1T4k0Njyf3L+qyCR3p2bVuIs+QuLq+g4mF2Jgy6Q238Ii5UaFg0tBVOiWeRUK/GGAHqFlO3PoYlK6AsAoJHcULPcnmnOMFe5roMjI/uwz9FRziwCsnGPKFz5jAbHdnuiNPBYI9mV+OWKm3HKge+jYO7Dw4uvxpg+HPewAscAFPNG2wS5XlA1FuBZAC+OVLDAPojFg/OQyfaF+56B7ADQAsC0ReQx/6kiWQA01e3GIqCXP5C9qFYdx77xURzUFsFVl0f8WxMfBqCY0zFaMXuiNPBYNtPx4OKroUDA8dgwJm1yGS1R9f5hstU89qqrsa8mMDCyC4uzCgaHFqPbLq8zqdb87wDM9RCA4wZznK9fkd7KpWx0N+qVHs29TEqJ0dH9OFB3MJpZCpnpj3tIsVAUjkJG65nSwGNJKeH0aIKuriqJrvcPi2Qco7nlGAWQOTCGBXIMi4cWQdOD266rlP0/vQeRR5BWja3/ZOwqRv4s57gSKpdQ5mCfgDQ4NqnP1Bb3/Da/F71UGjgXpK3kLyx1fQC7MIC9ExbmWcElDQaxfV8JII8grWw3/if/plg2c21XQIkoYYV40+tJfX4VMjrGnN4qDexVxYwOTmHGo4JOGgxi8q5VK76vkVZh9/fvRCwLAHeymQV9RuM115L6/OjF0sBe1Cslf2EJImmwWvO/A+A4LizLgq7PrZ2aKPr7dyK2dC7HFT3VySlNatVx7B8bwUFtEZw5lNTnVy+WBvaSXiz5C8vvkwYl+kZ3Y0lGwdDQMLwkDVYDKuGrVGpzbgHgJmj7H4jx1u8KCfqoRmdaUl92bib1+ZWm0kAGT40pe8JcKPkLg2QM49llGIf3pMGgSviqlQoGB+fWfShpIcTYFgAJqICYE6QUOHBoF/bIftR1SurziwEo5I3EnxrIOYPCOWzHf+KipiqBXCdMc6nkLyxHkwZLJhaaO7Fs/iLoUxYCUkrUAigDBOZeJUAz9J0ksS0A4mp9GCqv31IETylSChw4vBt7RB/q+srQ328uUTlLdGmgpnAU8wYqAY2vP2egYtqoJTT0MVdL/sLicgP7sqtwsGRikfk8li1YDE3LAADq9TrcgOLYc60XgEzgU2+s0d9eSwTkjHna4gm7GWK9NoEnR6soZ1eE+0ZzWFJLAzO6ikI24Lgqa4Q+NIWjVLMStXinkr/wuNzA3uxqHByv4AS2B/PmLQ100g4qlyAtkhg0jHcBgDD6VMVHVRkse+abI+fhnll98NAuPMcWwA25HShJVmkgA5DP6sjo4X2kdU3BADcwUTUT0cUMoJK/KDhKHk8gh4V7X4AR4Hp3roUAkpiQQ0GzAGkKhzpDgyPGgExoJUoSz+zdiafV5XCVTEjvQY7VLA2MG+cMfYVMqJN/k6Jw9Bcy0NT4S+2o5C9KDAezK3FYyWBwMB/IFedcCCABDwpT0QIgYIamIKMrUCaf9DljUDiDrnJkDSXQkIeUjaxSV7h4au+LOJBdFdzFiSfN0sDY3l/hGChkoCnRfZQ5Y+jPGbHG3ankLx617CLs+MM/xoKF/rP3a3NtByCB6Gy+ECicIaMryOoKskZjQaCpHCyAgIcQjSMkq6aLqumgWrdx9+5x7NaWBTBy0o18TBnoGV1FfyETzxb4ZF5AXy760jsq+YuXk52Pc276EyxZ4e8ESToSOH6cUUFeali2QM1y4bjy6HbSbw+PY0xkUKqYqNTtRMaZel2zNDCqjFYGoJDVg0/264KuKRjIG1AifJSgkr/4uK7EaMVERag49Zq3IVfovq44iFMFpZRwhYDjStiuCPR/jpAQQvb0LZUzuzYW9yDI7OqWmNZG8sWRwzjk/j4eVzNtTNTMRCSlzTXN0sCwRRnv9yrKvAAq+YuPZbsYr/y+DNCWCl71prd3fb2qj1MFXSFRtxo7oXVLwLRdWLYI9H+m5aJmuajVXZi2SGQM3w/GIDjMkR/EPRAyM8sWcKd0nitVxvG0PT3T37JdjJXqcBLWc3ouyOjhJqXFEe/3Koq8ACr5i0/NtDFRnf5wYRqDuPDqK7u6ZrdVAJYjULfcyCpRJCQcV6BmicRUvwSBMYzz4ZrzVg6aLZJKytYHSDxSVtt2lRJSYrxiJq5GfS4ohFSWFmu836uQ8wKo5C96UkpMNMOLbSirT8Xwks7zAbrJAbBsEdtpelJK1O3oFh5hY8CdnG3caPHyvn+MezCkNatFC9YXRw6jKmd+0pJSYqJqolyzejqGlTRBlwYmKd7vVRh5AVTyFz3XFRgr11veg44lJLD1qms6vr5pmnBd7w8prpgeBo2cBEzbTVxL304xxoQqs3/MAWB4zUlvU8yRZ+IeFJlu2u+74+J5u+j59XXLwUTFTGQbyl4VVGlgEuP9XgWZF0Alf9Gr2y7GKt4bPpnGEDZvPaXj9+nkYCHLScY9TEqk4jCwmahMfmLBArbvaDBxeNkv13Fz5IU4B0WOJ+X05hHPjo3Alp09WdmOi9EK5QVEyW9pYJLj/V4FkRdAJX8Rk0ClbqNcNTtOelt17sUdv53XZkBiMiM/KZyEHevbCU3h/7Jofu424JhGQIy9zl2yfNkqtbbnm5ylfYOjN7T6AO51C11dSwiJsYqJOuUFRMJPaWAq4v1e+cwLoJK/6AgpMVY1uz70qa4WsGxVZ/1IvJ4HkKC5HwBSWR7IGDM1jb9n0bzM65p/Nm1vcXjlidfs2vXoH+ky96+uNnCWUIz0BB97zNQH/ZHyBEzpo82vlChXTTi6inxW76lzGJKo01MDo+jnHxddU9CvGJiomJ6f5HSNSv6i4rgCpYoJ18+znwRO377DVX/8b+NeX2La1jOQmJj10lIOc44l3Q8uDOIRSO55tcQ4W8Uhh8Ic0VQcrC6BvZyz2xcOGp9hjB13M/I0B+x78qEzGdNOCHpwqj1yUHEdJ+jr9gpXzWqOWlzQ/O9f1fs/N4riQBDXVlUFfTnKqo5CtW6jOstTVSN50Ah0y79UNWEGsOMzvz8XwGgaGsmpFuxZEsu0yd9P2voPX91yUAkoWVhjUr5h8yBt2aQEfbpS5Ku/GxW2CO6OGMakQ1qzHRcV04YzpYSJgcHQFeQzWuCTXRIXAE11y0HNtKclmXHOkNVVZHWN7k4hkwAqNQt1K9hnsEXmC9e++swt3wj0oiQUvbfX2KN+fP9jp+8PcPIHGnGsiXK9Z7edk0RTFQyoClwp4boCUgBcAVTO5+RTbkZXkdFVOK44Gk9VOGvE++fejyNyQkhM1MxpC9IgOGr+bQBoAZACdNdPCVdR3hvGdSWAcs2C44pU1ZqnlcIYlAQcpZsUqsIB+nFEynZdlKpWaFn1dTW/JZQLk8DRAiAlXCVzVpjXr1sOXFegmDPA6YxIQnpSkPH+dmym+z8rmESCgr8pYcGYF/Z72JOdv2LvtkUICVaEnUFtSUlFaUH/UCnhcG5E8T6NcwTqXdcCE0KSpdkDJKqzQaQE7n7wwYSV7JFWaAGQElIq0YVrJruBlaomUt/0mpA5zHJcjJaj7wJaE3xNpG9IukI5ACkhGOdRt54ybReuNNGXpbwAQtLGS/+JsDApOj8ekESOdgDSQnZ4AEBAHEdgtFKftXELISQZJBrx/rgmfwAQUKiFYwrQAoDMSgqJcR89wgkh0XCFxFipHlm8n6QbhQCIN5N5AY4QKGSoRSshSWNaLsp1q+NT/MjcRTsApCOm5WK87P1AF0JIyJpJu7XOj/AlcxstAEjHHCEwWq7DorwAQmJF4TniBy0ASFfkZGMRuvEQEg/HFRijBF3iA+UAkO5Nbj3arkAxS3kBhETFtByU6jb16SC+0A4A8c2yXYyV69OOdiWEBKt5eFepZtHkT3yjBQAJBJUfERKu5vHddcuJeyikR9ACgARGonHGOOUFEBIsx6GDukjwaAFAgjWZF1CpWXGPhJCeYDkuxismBG35k4BREiAJRc1yIAEUsnrcQyEktUzHbRzKRUgIaAeAhKZuOajWKRxASDccR6BctRD1IWBk7qAFAAlV1bRRp8RAQjriikafDersR8JECwASukrNguvSjYwQTyRQqlLMn4SPFgAkdFJKlGsmbWUS4kHVtOFQtj+JAC0ASCRsV6BuU/0yITMRQlIZLYkMLQBIZKp1G5K2AQhpq1K36BNCIkMLABIZISVqJu0CENKK4wqYlDBLIkQLABKpuunQEw4hLVCLXxI1WgCQSAkp6bwAQqaQUtLTP4kcLQBI5Ex60iHkOKblUs0/iRwtAEjkLFfQzY6QY1gOPf2T6NECgERPSjrVjJBJEo1FMSFRowUAiQU1OiGkwXUFQDtiJAa0ACCxoAUAIQ30WSBxoQUAiYVLN73QMcZ8X4MHcA0yM1fQ0z+JBy0ASCwE3fRCx7n/yZsFcA0yMyFoMUziQQsAEgsJOhsobBr3//HWFbpFhI2mfxIX+nST2FApYLg0TfG9hW9oSkCjIe1I2g0jMaEFAIkP3fdClzO0rl+rqwpUlRYAhPQqWgAQ0sMyhgq9i0mcM4ZCVg9hRISQpKAFACE9rpjXoXWwCOCcoS9vBJJESAhJLloAENLjGBj6cwZyGQ2YJSdA1xQM5DNQKfmPkJ6nxj0AQkgEWCMfIKupMB0XluNCSAnIxna/qnIYqgIlrolfSrgJywlhjPogkN5GC4D0kADobkR8YZwho6vI6PF/9B0hUDcdWPbkYiSBGBh0jSOjqx2FUeY6DexQ3GMgs4v/LkA8USCEjQAKuwmJmQRQqVmop+BYaAkJ03Zh2i50VUExq1NzJC/UyjNxD4HMjiaUlFClXYl7DIT4JaXERLmeisl/KstxMVqpUxfLWXAmcf5pZ++MexxkdrQASAlN1l6IewyE+FWuWak+CloIiYmqSS0sZqAz1457DMQbWgCkhOFUvxr3GAjxw3IaW+lp57gCNZPmuHaybmVX3GMg3tACICXmy/qnFHruIClWNdO37d9O3XKok2UbGTHx+bjHQLyhBUBKbN261S6gRCtrkkpCSjhO+p/+m4SQcNze+X6ConMptp+2+a/jHgfxhhYAKVKsjtwwWyMXQpLITXHcvx2nB78nv4rW4bviHgPxjhYAKXLhS0+9s1+UD8Q9DkI61YuJ8734PfmhcSnXGNZlcY+DeEcLgJTJi4OvUGgTgKRNQhv9+EHP/8eb5+777MaNG8txj4N4RwuAlLnotNOenufs+Qz1BCSEJEUfSrsv3rLh1rjHQTpDC4AUes1pG2+dJ448EPc4CCEkyyzzZGVifdzjIJ2jBUBKXbJl7dZBOfZE3OMghMxdGe5YS+3da2jrP51oAZBil21ZtX6ee/DnVBlACIlaAbXxE/btXPjy00/fG/dYSHdoAZByl5x20nmL7Bfeo3FBOUmEkNAxBsx3D//kqlMWD2zdtnU87vGQ7tECoAe8+vRT/mb1xBOFeeLIr1RO/ckIIcFjjKEPlQPDlSe27jjthG1xj4f4R3vHPeb+/7y//+D8wj+WlcHX1pmRTXKt8lAxC05Hq84JpuWgVLPiHkagMoaGQkbzfZ2xcj3RTYUM5joFd+K3ev3Azdtf+lJKPu4hdPftYbc/+qjeX7Pf5qq5bQ7XVkjB8y7jubjH1TRPju1RmKB+qnNAnWXyEzI3L+5xBCnHrImCLI/5vc4I+ocdKHoQY/KLQ1pMiqoizfr9ugAAATJJREFU7YMarHtgV764/SUvoRbkhBBCCCGEEEIIIYQQQgghhBBCCCGEEEIIIYQQQgghhBBCCCGEEEIIIYQQQgghhBBCCCGEEEIIIYQQQgghhBBCCCGEEEIIIYQQQgghhBBCCCGEEEIIIYQQQgghhBBCCCGEEEIIIYQQQgghhBBCCCGEEEIIIYQQQgghhBBCCCGEEEIIIYQQQgghhBBCCCGEEEIIIYQQQgghhBBCCCGEEEIIIYQQQgghhBBCCCGEEEIIIYQQQgghhBBCCCGEEEIIIYQQQgghhBBCCCGEEEIIIYQQQgghhBBCCCGEEEIIIYQQQgghhBBCCCGEEEIIIYQQQgghhBBCCCGEEEIIIYQQQgghhBBCCCGEEEIIIYQQQgghhBBCCCGEEEIIIYQQQpLh/wMBl0eE4DNEzwAAAABJRU5ErkJggg==;" vertex="1" parent="1">
          <mxGeometry x="12.5" y="132.5" width="145" height="145" as="geometry" />
        </mxCell>
        <mxCell id="gFBRsMoK_zdnoC3hOrfU-60" value="Application User" style="text;html=1;align=center;verticalAlign=middle;resizable=0;points=[];autosize=1;strokeColor=none;fillColor=none;fontColor=#1A1A1A;strokeWidth=0;fontSize=20;" vertex="1" parent="1">
          <mxGeometry y="70" width="170" height="40" as="geometry" />
        </mxCell>
      </root>
    </mxGraphModel>
  </diagram>
</mxfile>
